<?xml version="1.0" standalone="no"?>
<!DOCTYPE svg PUBLIC "-//W3C//DTD SVG 20010904//EN"
 "http://www.w3.org/TR/2001/REC-SVG-20010904/DTD/svg10.dtd">
<svg version="1.0" xmlns="http://www.w3.org/2000/svg"
 width="1336.000000pt" height="900.000000pt" viewBox="0 0 1336.000000 900.000000"
 preserveAspectRatio="xMidYMid meet">
<metadata>
Created by potrace 1.16, written by Peter Selinger 2001-2019
</metadata>
<g transform="translate(0.000000,900.000000) scale(0.100000,-0.100000)"
fill="#000000" stroke="none">
<path d="M2592 8958 l3 -43 -40 -3 c-22 -2 -43 -9 -47 -15 -4 -7 -8 -37 -8
-69 0 -35 -5 -58 -12 -60 -7 -3 -35 11 -62 29 -59 39 -110 56 -150 51 -36 -4
-54 -46 -55 -125 -1 -67 -8 -83 -37 -83 -43 0 -64 -33 -64 -99 0 -50 4 -65 27
-92 15 -18 46 -40 70 -51 23 -10 45 -23 49 -29 3 -6 -10 -27 -30 -46 -34 -33
-36 -39 -36 -97 0 -80 -8 -105 -34 -110 -93 -17 -99 -20 -112 -56 -7 -19 -13
-72 -13 -117 -1 -45 -4 -88 -7 -97 -10 -26 -38 -18 -75 20 -37 40 -120 84
-158 84 -46 0 -89 -37 -106 -93 -8 -28 -15 -63 -15 -78 0 -14 -7 -32 -15 -39
-12 -10 -23 -4 -65 33 -101 91 -212 123 -258 74 -48 -51 -69 -247 -34 -317 12
-26 32 -43 75 -63 60 -29 69 -46 42 -81 -17 -22 -20 -121 -6 -158 5 -13 27
-36 50 -51 23 -15 41 -32 41 -37 0 -5 -22 -19 -49 -31 -59 -25 -79 -59 -88
-151 -8 -90 11 -132 72 -158 26 -11 63 -20 83 -20 41 0 137 24 155 38 20 15
67 24 67 12 0 -6 -21 -34 -47 -61 -44 -47 -47 -54 -50 -112 -3 -38 1 -71 9
-86 20 -37 75 -63 151 -71 38 -4 70 -10 73 -13 3 -2 8 -21 11 -41 7 -45 -11
-68 -73 -92 -31 -12 -58 -15 -92 -10 -63 8 -162 58 -185 93 -11 16 -36 41 -57
56 -73 52 -164 31 -249 -55 -68 -71 -99 -142 -103 -242 -4 -82 -3 -87 21 -109
14 -13 43 -34 63 -46 32 -19 38 -28 43 -69 13 -93 42 -131 113 -147 31 -6 33
-10 27 -34 -30 -118 -15 -141 93 -141 l74 0 -6 -32 c-4 -18 -9 -59 -13 -90 -5
-52 -3 -59 22 -84 25 -25 30 -26 108 -22 88 5 138 24 208 79 60 47 69 41 69
-47 0 -60 4 -84 21 -110 25 -40 27 -39 -96 -54 -49 -6 -109 -14 -133 -17 -27
-4 -53 -16 -72 -33 -26 -24 -30 -35 -30 -82 0 -32 12 -87 29 -138 16 -47 27
-89 24 -93 -2 -4 -19 1 -37 13 -42 25 -68 25 -91 0 -25 -28 -33 -26 -88 19
-59 49 -92 57 -160 37 -114 -33 -177 -156 -133 -257 5 -12 -2 -22 -28 -37 -21
-12 -38 -32 -42 -47 -8 -34 11 -100 37 -126 12 -12 18 -23 15 -26 -7 -7 -82
53 -151 119 -27 27 -78 63 -112 80 -53 26 -71 30 -117 26 -93 -8 -162 -67
-173 -147 -7 -54 15 -87 78 -113 61 -25 62 -41 8 -93 -82 -79 -111 -160 -75
-208 37 -49 163 -86 298 -87 26 0 49 -4 52 -9 4 -5 -11 -20 -31 -33 -81 -49
-122 -128 -103 -198 10 -36 18 -44 63 -66 37 -17 70 -24 115 -24 34 0 62 -4
62 -9 0 -5 -16 -28 -36 -52 -69 -82 -97 -170 -72 -219 18 -33 43 -35 114 -11
32 11 60 18 61 17 2 -1 5 -27 7 -57 2 -30 11 -71 20 -91 16 -37 60 -69 83 -61
18 6 26 -33 12 -59 -8 -14 -15 -75 -17 -155 -3 -105 -1 -143 13 -186 25 -79
89 -156 161 -192 32 -16 61 -32 64 -35 12 -12 83 -40 101 -40 45 0 55 -16 69
-105 13 -85 28 -112 73 -128 7 -3 -2 -19 -24 -43 -47 -50 -59 -74 -59 -117 0
-49 24 -99 63 -134 50 -44 52 -58 12 -82 -63 -37 -75 -70 -75 -210 0 -117 2
-126 31 -187 34 -73 77 -121 144 -160 45 -26 71 -34 168 -56 53 -12 57 -20 25
-46 -87 -68 -116 -126 -103 -206 19 -110 155 -306 253 -362 36 -20 38 -30 17
-58 -15 -20 -19 -92 -7 -133 10 -33 68 -90 110 -109 20 -8 45 -20 54 -25 10
-5 28 -9 40 -9 23 0 57 -16 48 -22 -3 -2 -22 -11 -42 -20 -52 -24 -72 -67 -64
-135 7 -62 34 -124 74 -170 15 -17 32 -39 37 -48 6 -11 20 -16 35 -14 l25 4
-36 40 c-72 82 -99 137 -99 202 0 37 5 50 30 73 16 15 51 33 77 39 68 17 144
52 137 62 -3 5 -40 9 -82 9 -106 0 -219 36 -267 84 -57 57 -67 94 -40 146 17
33 42 44 105 44 33 1 45 5 45 16 0 11 -23 20 -80 31 -128 26 -140 35 -241 179
-103 147 -119 222 -63 300 17 23 39 45 50 47 10 3 19 9 19 13 0 4 27 18 60 30
53 20 74 22 161 18 55 -3 105 -10 112 -17 6 -6 19 -11 29 -11 10 0 18 -3 18
-7 0 -5 36 -41 81 -82 60 -55 83 -71 92 -62 8 8 -1 24 -38 61 -44 45 -79 68
-152 104 -13 6 -23 14 -23 19 0 4 -9 7 -21 7 -11 0 -28 4 -37 9 -9 4 -82 11
-162 15 -201 8 -300 39 -385 117 -88 81 -125 189 -110 323 5 52 12 71 38 101
l32 37 105 8 c58 4 95 8 83 9 -12 0 -37 7 -55 15 -18 8 -53 22 -77 32 -51 21
-101 65 -101 89 0 9 -4 24 -9 34 -14 25 5 101 32 129 29 31 70 52 102 52 31 0
29 22 -2 30 -42 11 -113 65 -129 98 -11 24 -14 47 -9 83 8 56 7 57 -105 85
-92 22 -150 54 -208 114 -74 76 -95 137 -96 270 -1 67 4 121 14 150 20 64 72
150 112 186 83 75 263 97 412 50 98 -31 194 -79 227 -114 57 -59 139 -132 149
-132 6 0 -2 18 -16 40 -15 22 -32 40 -39 40 -7 0 -25 14 -38 30 -14 17 -30 30
-36 30 -6 0 -11 5 -11 10 0 6 -6 10 -14 10 -8 0 -16 7 -20 15 -3 8 -12 15 -21
15 -8 0 -15 5 -15 10 0 6 -6 10 -13 10 -8 0 -22 9 -31 19 -15 17 -17 35 -15
106 5 104 18 121 84 109 22 -4 67 -8 100 -8 58 -1 60 0 58 24 -20 249 -20 250
58 250 79 0 142 -26 209 -86 65 -58 75 -61 105 -40 69 46 129 26 229 -77 172
-178 276 -355 292 -498 4 -40 11 -59 20 -59 19 0 19 0 -23 202 -4 20 -1 28 8
28 37 -1 95 -77 124 -163 11 -32 25 -59 30 -60 6 -1 10 17 11 40 1 47 20 102
41 120 49 40 235 -117 298 -252 18 -38 36 -91 40 -117 4 -33 11 -48 21 -48 12
0 13 7 7 38 -4 20 -7 93 -6 161 3 148 14 177 66 166 69 -15 226 -102 277 -154
14 -14 42 -39 62 -56 48 -41 102 -119 127 -185 12 -30 26 -64 31 -75 5 -11 11
-40 12 -64 2 -27 8 -46 17 -49 12 -4 13 7 7 62 -7 71 5 135 29 160 23 22 89
29 132 14 21 -7 74 -31 118 -53 75 -37 82 -44 114 -103 19 -34 41 -62 48 -62
7 0 13 4 13 9 0 17 -38 99 -49 105 -6 4 -11 16 -11 27 0 31 42 23 83 -16 20
-19 40 -35 46 -35 5 0 11 -6 14 -12 2 -7 8 -10 13 -5 4 4 0 29 -9 55 -21 57
-22 121 -3 148 22 30 88 24 171 -15 116 -55 244 -205 294 -341 21 -57 41 -161
42 -215 1 -58 12 -95 23 -77 4 7 6 61 4 121 -2 60 0 112 3 115 16 16 42 -13
74 -80 19 -40 35 -78 35 -83 0 -13 32 -23 42 -13 6 6 15 34 22 63 7 35 17 55
28 57 21 4 103 -90 142 -163 32 -61 66 -90 51 -44 -17 54 -17 132 1 186 16 45
24 56 59 73 23 11 51 20 62 20 70 0 202 -101 245 -188 26 -51 56 -84 71 -79 7
2 19 32 28 66 25 94 35 111 64 111 40 0 59 -14 123 -89 l59 -68 -4 -289 c-5
-273 -6 -290 -25 -305 -13 -10 -19 -25 -17 -45 4 -55 -1 -100 -10 -86 -7 11
-9 10 -14 -3 -4 -8 -1 -24 5 -34 9 -15 8 -24 -5 -45 -19 -28 -23 -61 -7 -51 6
4 10 -5 10 -19 0 -26 -13 -32 -44 -20 -9 3 -13 10 -10 15 3 5 -3 9 -14 9 -16
0 -19 -6 -16 -31 3 -24 0 -30 -13 -27 -24 4 -51 57 -52 101 -1 30 -6 40 -27
49 -20 9 -30 9 -45 0 -15 -10 -19 -10 -19 0 0 9 -3 9 -9 -2 -6 -8 -7 -19 -3
-25 11 -17 13 -38 7 -82 -5 -31 -12 -44 -26 -48 -14 -5 -19 -13 -16 -26 4 -14
0 -19 -16 -20 -38 -2 -62 3 -66 13 -2 6 -12 18 -22 26 -11 9 -19 21 -19 26 0
5 -10 20 -22 33 l-21 23 21 0 c12 0 35 14 52 30 17 17 37 30 45 30 20 0 19 16
-1 24 -10 4 -13 13 -9 26 5 14 2 20 -9 20 -9 0 -16 5 -16 10 0 6 -7 10 -16 10
-12 0 -14 -4 -7 -12 6 -7 13 -30 17 -50 6 -36 6 -37 -25 -40 -18 -2 -35 -9
-37 -17 -3 -8 0 -11 7 -7 6 4 11 2 11 -3 0 -11 -33 -16 -75 -13 -16 2 -17 0
-5 -8 8 -5 12 -10 8 -11 -5 -1 -12 -3 -18 -4 -5 -1 -19 -3 -31 -4 -11 0 -17
-5 -14 -11 3 -5 -1 -10 -9 -10 -12 0 -15 15 -15 79 0 62 -4 84 -18 100 -9 12
-22 21 -29 21 -16 0 -44 -34 -44 -52 0 -13 -19 -28 -35 -28 -2 0 -2 22 0 50 3
42 1 50 -16 55 -11 4 -18 13 -15 20 2 7 -2 22 -10 33 -8 11 -11 28 -7 38 5 12
3 15 -6 9 -10 -6 -11 -3 -1 15 11 20 9 25 -11 41 -18 14 -28 15 -44 6 -11 -5
-22 -10 -25 -10 -3 0 -14 -6 -25 -13 -12 -7 -32 -15 -45 -17 -20 -4 -27 1 -36
27 -10 28 -15 31 -58 34 -27 2 -54 -2 -62 -9 -11 -9 -18 -6 -34 14 -11 14 -34
28 -51 32 -23 5 -28 11 -24 25 5 15 2 17 -15 13 -11 -3 -23 -9 -26 -14 -3 -5
-14 -9 -25 -9 -18 0 -20 -5 -14 -62 3 -38 2 -55 -3 -44 -8 19 -9 19 -14 -2 -5
-19 -11 -22 -32 -16 -23 5 -26 3 -26 -20 0 -16 6 -26 15 -26 14 0 42 -40 28
-40 -4 0 -2 -4 6 -9 17 -11 53 -2 45 11 -4 6 2 8 12 6 16 -3 19 -13 20 -68 1
-97 -1 -93 44 -88 22 2 40 1 40 -2 0 -9 -33 -54 -44 -62 -15 -10 -53 -2 -83
17 -13 9 -34 18 -46 19 -50 7 -120 42 -136 69 -7 11 -8 16 -2 12 6 -3 11 -2
11 4 0 12 -37 24 -50 16 -5 -3 -10 -1 -10 4 0 6 -8 11 -18 11 -10 0 -27 7 -39
15 -24 17 -37 7 -27 -20 6 -14 2 -15 -31 -9 -27 5 -36 4 -31 -5 4 -6 2 -9 -6
-6 -13 5 -48 75 -48 95 0 6 5 10 10 10 6 0 10 7 10 15 0 8 -4 15 -10 15 -5 0
-10 7 -10 15 0 19 -19 20 -26 1 -3 -9 -13 -12 -22 -9 -9 4 -14 3 -10 -2 13
-14 -13 -35 -43 -35 -27 0 -69 30 -69 49 0 5 -15 8 -33 6 l-33 -3 2 49 c2 36
-3 55 -18 74 -26 34 -23 37 45 44 5 1 5 6 1 12 -4 8 -9 7 -16 -2 -5 -9 -7 -4
-3 16 6 26 5 28 -7 14 -7 -9 -22 -19 -33 -22 -21 -7 -39 -41 -50 -97 -4 -19
-12 -42 -18 -52 -8 -12 -7 -23 2 -42 16 -29 8 -58 -13 -50 -10 4 -16 -2 -18
-17 -2 -19 -10 -24 -43 -26 -22 -1 -46 4 -55 11 -8 8 -25 17 -37 20 -23 7 -33
36 -12 36 5 0 7 5 4 11 -4 6 -9 8 -12 5 -9 -9 -83 70 -83 88 0 9 -8 20 -17 23
-22 8 -140 123 -128 123 6 0 -7 11 -27 25 -20 14 -41 25 -46 25 -6 0 -12 7
-16 15 -3 9 -19 15 -41 15 -34 0 -36 -1 -33 -35 1 -21 7 -35 15 -35 20 0 64
-43 59 -57 -3 -7 2 -13 11 -13 21 0 59 -42 68 -77 4 -15 10 -22 12 -15 3 6 9
12 15 12 6 0 8 -6 5 -13 -3 -8 7 -18 24 -26 16 -7 29 -19 29 -27 0 -8 5 -14
11 -14 7 0 9 -10 6 -26 -3 -18 -1 -24 9 -20 8 3 18 -4 24 -15 6 -11 15 -17 21
-14 5 4 9 -3 9 -14 0 -12 5 -21 10 -21 6 0 10 -7 10 -15 0 -8 5 -15 11 -15 5
0 7 -4 4 -10 -3 -5 3 -15 15 -22 28 -18 28 -86 0 -116 -12 -12 -25 -22 -31
-22 -6 0 -7 -9 -3 -22 6 -20 5 -21 -10 -6 -13 13 -14 22 -5 44 5 16 7 46 3 69
-6 35 -8 37 -15 17 -5 -12 -15 -22 -24 -22 -8 0 -15 -7 -15 -15 0 -19 -14 -19
-34 0 -8 8 -22 15 -30 15 -9 0 -16 4 -16 9 0 12 -49 20 -56 10 -3 -5 2 -9 10
-9 9 0 16 -3 17 -7 0 -5 2 -16 4 -26 5 -26 -20 -45 -52 -39 -24 5 -26 3 -15
-10 10 -13 9 -18 -3 -28 -13 -11 -14 -10 -10 3 4 8 1 18 -6 23 -7 4 -10 3 -5
-4 3 -6 2 -13 -4 -17 -5 -3 -10 -1 -10 4 0 6 -4 11 -10 11 -5 0 -10 -4 -10 -9
0 -9 28 -22 59 -27 28 -5 33 -22 12 -43 -21 -21 -21 -21 -1 -33 26 -16 25 -24
-2 -32 -22 -7 -22 -7 -3 -16 28 -12 75 -12 75 0 0 6 -5 10 -12 10 -6 0 -4 6 6
13 18 13 18 14 0 21 -16 6 -16 9 -4 16 13 8 12 10 -2 10 -9 0 -20 5 -24 12 -4
7 -3 8 4 4 7 -4 12 -1 12 9 0 9 5 13 10 10 6 -4 7 -12 3 -18 -4 -7 0 -6 10 2
9 7 17 19 17 26 0 18 40 7 47 -12 3 -8 0 -19 -7 -23 -19 -11 -2 -32 21 -25 14
5 21 0 28 -18 6 -14 15 -28 20 -32 6 -3 11 -17 11 -29 0 -22 74 -106 92 -106
5 0 8 -7 8 -15 0 -8 5 -15 10 -15 13 0 13 -47 0 -52 -5 -1 -11 -19 -13 -38 -5
-43 -23 -50 -39 -13 -9 22 -12 24 -15 10 -3 -9 -9 -17 -14 -17 -5 0 -9 -5 -9
-11 0 -6 9 -8 20 -4 16 5 20 2 20 -15 0 -16 -5 -20 -17 -16 -15 5 -18 -1 -18
-39 0 -47 4 -52 22 -34 8 8 13 8 18 -1 4 -7 -1 -14 -14 -17 -25 -7 -28 -31 -3
-40 9 -4 22 -14 29 -22 6 -9 15 -13 19 -8 4 4 2 7 -4 7 -7 0 -12 5 -12 10 0 6
9 10 20 10 13 0 20 7 20 19 0 15 29 39 34 29 1 -2 7 -14 14 -28 6 -14 16 -32
21 -40 24 -41 30 -75 33 -187 2 -66 9 -127 15 -135 15 -18 27 -78 15 -78 -5 0
-15 18 -22 41 -8 22 -35 67 -62 100 -47 58 -57 76 -39 65 4 -3 17 2 27 10 16
13 16 15 2 10 -9 -2 -22 2 -29 10 -7 9 -21 13 -30 11 -10 -3 -28 4 -40 14 -13
11 -33 22 -46 25 -13 4 -28 15 -34 25 -5 11 -19 19 -30 19 -36 0 -18 34 21 40
28 4 34 9 32 25 -5 27 -12 33 -12 9 0 -15 -7 -19 -34 -19 -44 0 -52 8 -32 37
21 29 20 47 -1 43 -10 -2 -21 -4 -25 -4 -5 -1 -8 -9 -8 -18 0 -10 -7 -31 -15
-47 -13 -24 -13 -31 -3 -37 10 -6 8 -12 -7 -23 -11 -9 -24 -16 -28 -16 -5 0
-6 -4 -2 -10 3 -5 12 -7 20 -3 8 3 15 0 15 -5 0 -18 -20 -24 -35 -12 -8 7 -15
8 -15 3 0 -5 11 -15 25 -21 14 -6 25 -19 25 -27 0 -9 7 -26 16 -39 10 -16 12
-26 5 -31 -8 -4 -8 -12 -1 -25 5 -10 10 -30 10 -45 0 -14 3 -24 8 -22 4 3 15
-3 25 -13 16 -16 16 -18 2 -24 -9 -3 -13 -2 -10 3 3 5 1 12 -4 15 -15 9 -24
-50 -11 -73 8 -15 8 -27 0 -42 -11 -19 -13 -20 -30 -4 -26 23 -35 2 -16 -37
12 -22 13 -35 5 -44 -8 -10 -3 -13 21 -12 24 1 31 5 27 18 -5 19 33 26 44 8 6
-9 12 -8 23 1 11 9 16 10 16 2 0 -6 -5 -11 -11 -11 -5 0 -7 -5 -4 -10 4 -6 11
-8 16 -5 5 4 9 0 9 -9 0 -24 -24 -24 -47 1 -26 28 -35 29 -31 6 2 -14 -3 -17
-24 -15 -35 4 -45 -14 -12 -22 17 -5 24 -12 20 -21 -3 -8 -1 -15 4 -15 5 0 11
8 13 17 3 10 5 3 6 -15 1 -29 -1 -32 -17 -23 -10 6 -37 8 -60 6 -23 -2 -42 1
-42 6 0 5 16 9 36 9 24 0 34 4 31 13 -2 6 -15 11 -28 10 -13 -1 -31 1 -39 3
-13 4 -13 6 0 15 11 8 5 9 -22 4 -33 -5 -37 -4 -31 12 6 16 5 16 -10 4 -18
-14 -20 -11 -17 32 1 15 -3 27 -9 27 -6 0 -11 -12 -11 -27 0 -26 -20 -71 -20
-46 0 6 -9 9 -21 6 -20 -6 -20 -7 -5 -18 9 -7 16 -19 16 -27 0 -8 5 -19 12
-26 9 -9 9 -15 0 -24 -9 -9 -12 -7 -12 11 0 20 -2 22 -16 10 -9 -8 -13 -21
-10 -35 5 -19 3 -22 -11 -17 -10 3 -24 11 -31 16 -10 8 -12 7 -10 -4 2 -8 -2
-13 -8 -12 -19 4 -24 -46 -5 -51 9 -2 118 -4 243 -5 206 -1 228 1 237 17 6 9
11 12 11 5 0 -7 7 -10 15 -7 8 4 15 2 15 -3 0 -5 17 -9 37 -9 20 0 38 -5 41
-12 5 -16 1532 -18 1532 -2 0 6 9 10 20 10 11 0 44 11 74 25 74 34 96 32 132
-10 l29 -35 116 0 117 0 10 27 c10 26 30 217 53 483 4 58 13 199 19 315 5 116
14 293 20 395 30 554 46 895 60 1280 6 146 15 281 21 300 19 66 -3 1234 -26
1345 -4 17 -10 80 -15 140 -13 167 -40 323 -66 382 -22 49 -7 68 64 80 32 5
64 7 70 5 20 -6 39 -62 57 -162 9 -52 23 -122 31 -156 35 -150 42 -589 19
-1263 -8 -240 -17 -508 -20 -596 -11 -369 -38 -919 -55 -1135 -5 -69 -17 -222
-25 -340 -8 -118 -22 -305 -30 -415 -9 -110 -20 -279 -25 -375 -5 -96 -12
-196 -16 -222 -3 -26 -3 -56 1 -67 6 -21 8 -21 724 -21 634 0 720 2 731 15 13
16 22 74 39 265 5 58 12 112 15 120 3 8 11 73 17 145 18 214 42 425 59 526 6
30 10 76 10 101 0 26 5 59 10 73 6 15 15 71 20 124 5 53 14 121 20 151 6 30
18 102 26 160 9 58 20 125 24 150 5 25 14 81 20 125 7 44 16 96 20 115 5 19
16 78 25 130 9 52 26 133 37 180 11 47 24 112 29 145 13 86 54 273 62 281 4 4
7 23 7 42 0 53 36 239 62 322 7 19 15 53 19 75 10 56 54 225 67 255 6 14 16
53 23 88 7 34 17 62 21 62 4 0 8 9 8 21 0 16 9 9 40 -30 40 -50 41 -51 96 -51
50 0 55 -2 49 -17 -4 -10 -11 -31 -17 -48 -5 -16 -13 -39 -18 -50 -20 -50 -29
-83 -33 -122 -2 -24 -9 -48 -14 -55 -10 -13 -36 -100 -55 -191 -8 -34 -8 -51
0 -59 8 -8 17 3 32 38 31 69 35 81 56 152 15 50 34 81 97 155 106 126 186 215
289 322 48 49 100 115 116 145 16 30 43 82 61 114 17 32 31 66 31 75 0 10 5
22 11 28 6 6 25 39 43 74 l33 64 72 3 c40 2 71 -1 69 -5 -2 -4 -18 -37 -35
-73 -61 -129 -114 -236 -133 -265 -11 -16 -26 -43 -35 -60 -14 -28 -64 -88
-120 -145 -14 -14 -25 -30 -25 -36 0 -7 -17 -29 -37 -51 -60 -63 -163 -208
-218 -309 -93 -169 -105 -196 -105 -234 0 -29 -5 -42 -20 -50 -20 -11 -90
-112 -90 -130 0 -6 -4 -18 -10 -28 -5 -9 -14 -28 -20 -42 -5 -14 -14 -32 -19
-40 -5 -8 -19 -49 -31 -90 -12 -41 -26 -84 -30 -95 -11 -26 -54 -162 -76 -240
-9 -33 -27 -87 -40 -120 -13 -34 -34 -133 -49 -230 -15 -93 -33 -200 -41 -237
-8 -37 -14 -83 -14 -102 0 -19 -4 -37 -9 -40 -5 -3 -9 -16 -8 -29 0 -13 -12
-42 -27 -65 -14 -23 -26 -47 -26 -53 0 -6 -6 -23 -14 -37 -24 -48 -35 -76 -51
-137 -9 -33 -19 -67 -22 -75 -30 -72 -38 -338 -15 -460 7 -36 15 -89 19 -119
7 -62 -14 -186 -34 -202 -7 -7 -13 -31 -13 -58 0 -26 -5 -52 -11 -58 -11 -11
-8 -127 6 -203 4 -19 3 -30 -2 -24 -17 23 -87 64 -109 64 -13 0 -33 -10 -43
-22 -11 -13 -29 -34 -40 -47 -12 -13 -21 -30 -21 -38 0 -25 28 -13 63 27 19
22 38 40 44 40 6 0 31 -18 56 -40 25 -22 53 -40 62 -40 9 0 13 -4 10 -10 -9
-14 13 -13 28 2 10 9 10 29 0 97 -18 121 6 291 43 305 28 11 65 -18 95 -73 45
-85 65 -109 80 -94 10 10 0 37 -49 134 -107 207 -142 344 -142 559 0 122 10
209 30 255 4 11 11 29 13 40 14 52 71 203 87 230 11 17 37 40 59 52 48 26 90
18 159 -28 52 -35 92 -39 92 -9 0 12 -16 46 -35 76 -44 69 -87 159 -115 244
-17 50 -23 90 -23 175 -1 61 2 126 6 147 10 48 67 103 134 128 45 17 60 18
110 9 68 -13 154 -63 189 -110 36 -49 74 -136 88 -201 4 -16 11 -28 16 -28 6
0 10 -10 10 -22 0 -35 20 -98 30 -98 12 0 13 53 3 64 -4 4 -17 42 -29 84 -12
42 -35 108 -51 147 -17 38 -28 77 -26 86 5 18 80 59 108 59 18 0 72 -35 92
-60 7 -8 27 -43 44 -77 26 -52 53 -82 65 -71 1 2 6 55 9 118 9 165 20 212 55
244 17 14 36 26 44 26 8 0 28 11 45 25 23 20 31 37 36 73 14 102 43 172 80
192 24 13 31 12 78 -13 29 -15 58 -27 64 -27 6 0 34 14 62 31 48 30 52 31 75
15 14 -8 31 -30 39 -48 42 -94 47 -120 47 -233 0 -62 4 -116 9 -119 14 -9 19
13 31 160 14 168 42 299 73 337 12 15 47 40 77 55 60 31 67 45 69 127 1 28 4
59 7 71 6 21 65 55 211 119 l83 36 37 -21 c21 -11 45 -25 54 -32 22 -15 66 -2
72 22 3 11 10 20 15 20 20 0 83 -76 119 -145 59 -109 65 -131 61 -230 -3 -79
-7 -99 -37 -159 -19 -39 -40 -77 -47 -85 -75 -93 -104 -149 -71 -139 11 4 85
105 86 119 2 16 98 150 142 196 60 64 91 85 113 77 24 -9 20 -59 -15 -192 -17
-64 -34 -127 -36 -140 -3 -12 -9 -22 -13 -22 -13 0 -31 -53 -21 -63 15 -15 27
-1 57 70 32 74 59 103 141 146 75 39 97 34 101 -22 2 -24 -1 -56 -7 -70 -15
-39 -21 -90 -10 -97 5 -3 52 37 104 88 107 104 145 124 205 108 46 -12 113
-82 140 -146 35 -81 22 -324 -25 -480 -8 -27 -15 -58 -15 -68 0 -18 1 -18 20
-1 10 9 27 38 36 64 16 43 66 101 89 101 5 0 22 6 36 14 60 31 77 29 102 -11
28 -45 44 -123 53 -256 7 -121 16 -129 94 -85 30 17 71 43 90 58 19 14 59 38
88 54 85 45 119 31 200 -83 18 -25 32 -49 32 -54 0 -26 43 -65 85 -77 53 -15
54 -16 71 -89 6 -31 18 -72 25 -91 40 -113 59 -176 59 -194 0 -9 -12 -21 -27
-28 -16 -6 -53 -23 -83 -38 -30 -15 -76 -33 -103 -39 -50 -12 -182 -69 -175
-76 5 -6 61 9 147 40 41 14 107 28 146 32 68 5 73 4 88 -18 10 -13 17 -40 17
-59 0 -40 -26 -139 -41 -155 -5 -5 -9 -17 -9 -27 0 -9 -11 -34 -25 -54 -32
-47 -29 -68 10 -72 38 -5 45 -16 38 -61 -7 -43 -39 -90 -104 -152 -27 -25 -49
-51 -49 -57 0 -27 52 -45 146 -50 90 -5 96 -6 105 -29 34 -91 -19 -294 -101
-386 -24 -27 -45 -56 -46 -63 -2 -12 59 -14 362 -14 l364 0 0 4500 0 4500
-1870 0 c-1028 0 -1870 -3 -1870 -7 1 -35 199 -241 339 -353 52 -41 114 -92
138 -112 24 -21 50 -38 58 -38 7 0 26 -13 42 -29 16 -15 44 -36 63 -46 19 -10
49 -30 66 -44 17 -14 41 -33 54 -41 12 -8 40 -27 61 -42 21 -16 43 -28 49 -28
5 0 30 -10 55 -22 44 -22 58 -38 32 -38 -18 0 -47 -32 -47 -51 0 -21 46 -114
69 -141 11 -13 44 -56 75 -97 50 -66 56 -80 56 -122 0 -26 5 -51 10 -54 6 -3
10 -15 10 -26 0 -11 13 -44 30 -74 l30 -54 -32 -3 c-25 -2 -35 -9 -42 -30 -13
-37 8 -125 50 -213 19 -39 34 -75 34 -81 0 -6 16 -33 35 -60 19 -27 35 -53 35
-57 0 -4 -19 -25 -41 -47 l-42 -39 7 -108 c3 -59 9 -125 12 -145 6 -38 6 -38
-28 -38 -49 0 -93 -44 -102 -102 -8 -53 7 -164 27 -204 10 -20 13 -48 9 -91
-3 -43 -1 -63 7 -63 6 0 11 -9 11 -19 0 -13 -9 -21 -30 -26 -17 -4 -44 -18
-59 -31 -25 -21 -31 -35 -36 -89 -6 -51 -4 -70 8 -89 15 -23 14 -28 -13 -83
-17 -32 -53 -94 -80 -138 -27 -44 -50 -85 -50 -91 0 -5 -22 -35 -49 -65 -59
-66 -175 -129 -252 -137 -65 -6 -124 23 -159 79 -33 53 -50 51 -50 -6 0 -25 4
-45 8 -45 4 0 16 -26 27 -57 21 -65 126 -273 157 -313 11 -14 46 -52 77 -86
79 -82 219 -155 326 -170 108 -15 115 -17 120 -38 3 -11 -3 -44 -14 -72 -19
-54 -71 -111 -166 -184 -89 -68 -118 -80 -198 -80 -82 0 -287 34 -332 56 -87
42 -205 205 -309 429 -20 44 -44 91 -51 105 -8 14 -56 102 -107 195 -87 160
-109 195 -122 195 -9 0 -7 -28 3 -48 5 -9 51 -102 101 -207 78 -161 96 -207
116 -300 12 -60 30 -139 39 -175 9 -36 20 -83 25 -105 20 -92 44 -165 81 -242
21 -45 39 -85 39 -90 0 -18 -49 -63 -68 -63 -12 0 -47 -7 -79 -15 -83 -22
-351 -21 -360 1 -7 18 8 54 45 108 26 38 27 44 26 167 -2 119 -4 131 -29 178
l-28 50 -66 3 -66 3 2 45 c6 193 3 261 -13 291 -23 46 -63 79 -93 78 -26 0
-26 0 -3 -9 53 -22 62 -40 68 -151 9 -151 -6 -269 -45 -354 -61 -135 -115
-230 -254 -452 -42 -68 -77 -127 -77 -133 0 -5 -4 -10 -8 -10 -5 0 -24 -21
-43 -47 -18 -27 -43 -58 -54 -70 -25 -27 -33 -37 -70 -88 -38 -52 -64 -77 -74
-73 -15 5 -221 227 -221 237 0 12 44 107 62 136 56 86 88 141 88 149 0 6 11
24 25 40 14 16 25 33 25 39 0 5 16 32 35 58 19 27 35 51 35 54 0 2 16 29 35
60 20 30 39 63 42 73 4 9 26 47 50 85 24 37 43 69 43 71 0 17 156 260 186 290
15 16 15 17 -8 20 -15 2 -15 18 2 148 9 73 9 121 1 196 -11 105 -22 141 -56
181 -36 43 -46 51 -63 51 -13 0 -12 -5 8 -23 47 -41 63 -78 75 -176 22 -177
-12 -392 -81 -508 -16 -27 -42 -75 -59 -108 -16 -33 -36 -64 -42 -68 -7 -4
-13 -13 -13 -19 0 -6 -10 -25 -23 -42 -12 -17 -29 -44 -37 -61 -21 -43 -91
-159 -100 -165 -4 -3 -9 -9 -11 -15 -11 -27 -84 -150 -91 -153 -4 -2 -8 -10
-8 -17 0 -7 -4 -15 -8 -17 -4 -1 -18 -22 -30 -46 -20 -39 -106 -176 -122 -195
-4 -5 -30 11 -57 35 -28 24 -100 83 -160 132 l-110 89 13 44 c12 40 77 172
230 473 33 63 68 135 78 160 41 96 49 116 56 135 115 299 154 376 236 458 37
37 75 67 86 67 10 0 18 6 18 14 0 20 -33 9 -65 -20 -14 -13 -29 -24 -32 -24
-3 0 -21 -11 -39 -25 -36 -28 -38 -26 -48 27 -5 26 -11 35 -21 32 -9 -4 -16
-33 -20 -92 -5 -59 -15 -103 -31 -136 -13 -28 -24 -55 -24 -60 0 -15 -45 -125
-91 -222 -22 -44 -39 -86 -39 -93 0 -7 -8 -25 -19 -39 -10 -15 -22 -38 -26
-52 -4 -14 -15 -36 -25 -50 -10 -14 -21 -36 -25 -50 -13 -42 -236 -485 -253
-502 -7 -7 -23 -3 -49 13 -59 37 -77 47 -98 57 -11 6 -50 29 -85 53 -36 24
-78 51 -95 59 -16 8 -42 23 -58 33 -26 18 -27 22 -21 70 4 29 11 57 15 63 13
16 50 136 46 148 -2 6 2 17 10 24 15 16 18 52 3 52 -5 0 -10 -7 -10 -15 0 -13
-20 -65 -41 -107 -5 -10 -9 -27 -9 -37 0 -11 -4 -22 -9 -25 -5 -4 -12 -23 -16
-44 -3 -20 -16 -49 -29 -65 l-22 -27 -64 25 c-36 14 -74 30 -85 34 -11 5 -40
14 -65 21 -25 7 -63 18 -85 26 -23 8 -47 14 -55 14 -8 0 -32 5 -52 11 -34 9
-38 13 -38 42 0 18 7 57 16 87 8 30 26 93 39 140 13 47 36 128 50 180 15 52
29 106 32 120 2 14 8 34 13 45 14 32 19 94 9 100 -8 6 -11 -7 -14 -73 0 -13
-5 -26 -11 -30 -10 -8 -33 -77 -41 -130 -3 -18 -9 -35 -14 -38 -5 -3 -9 -23
-9 -45 0 -21 -4 -39 -9 -39 -6 0 -13 -20 -17 -45 -3 -25 -10 -45 -15 -45 -5 0
-9 -10 -9 -21 0 -26 -26 -106 -56 -174 l-22 -49 -194 -2 -195 -2 4 77 3 76
-15 -48 c-31 -96 -45 -110 -118 -129 -36 -9 -100 -28 -142 -43 -42 -14 -80
-23 -85 -20 -13 8 -13 85 0 85 6 0 10 22 10 49 0 27 7 62 15 77 8 16 15 41 15
56 0 15 4 30 10 33 6 3 10 17 10 31 0 14 4 33 10 43 9 18 26 99 37 176 3 22 9
45 14 51 13 16 39 119 39 155 0 17 7 37 15 45 8 9 15 26 15 40 0 13 4 32 9 42
5 9 17 44 26 77 9 33 21 70 26 83 5 13 9 33 9 45 0 13 5 28 10 33 6 6 19 39
29 75 36 125 93 231 160 295 36 34 69 58 79 56 56 -9 82 -51 82 -133 1 -24 5
-63 9 -87 5 -23 5 -45 1 -47 -4 -3 -10 -17 -13 -32 -3 -16 -9 -43 -15 -60 -6
-20 -7 -33 -1 -33 5 0 9 7 9 16 0 8 7 22 15 30 8 9 15 26 15 40 0 13 4 24 9
24 5 0 17 23 26 51 18 53 13 68 -22 69 -9 0 -13 16 -13 45 0 89 -63 158 -124
135 -29 -11 -96 -68 -96 -82 0 -5 -6 -16 -12 -23 -27 -30 -55 -72 -64 -95 -3
-8 -10 -23 -15 -32 -5 -10 -9 -25 -9 -33 0 -8 -4 -15 -9 -15 -5 0 -12 -11 -15
-25 -9 -36 -31 -31 -51 13 -27 58 -44 72 -85 72 -28 0 -43 -7 -63 -30 -15 -16
-27 -32 -27 -35 0 -3 -11 -16 -25 -29 -14 -13 -25 -30 -25 -39 0 -9 -4 -19
-10 -22 -5 -3 -10 -18 -9 -33 1 -23 2 -24 7 -7 7 20 16 36 76 127 39 60 84 74
116 37 10 -13 19 -34 20 -46 0 -12 4 -24 9 -28 5 -3 12 -34 16 -69 5 -48 3
-70 -8 -93 -9 -16 -17 -43 -19 -59 -2 -16 -9 -35 -15 -42 -7 -7 -13 -29 -13
-48 0 -19 -4 -42 -9 -52 -5 -9 -17 -44 -26 -77 -10 -33 -21 -68 -26 -77 -5
-10 -9 -28 -10 -40 0 -29 -33 -155 -42 -164 -4 -4 -7 -27 -7 -50 0 -24 -4 -45
-9 -49 -6 -3 -13 -26 -17 -50 -3 -25 -10 -48 -15 -51 -5 -3 -9 -25 -9 -50 0
-25 -5 -55 -12 -67 -6 -12 -15 -45 -19 -73 -10 -74 -61 -180 -96 -198 -15 -8
-50 -35 -77 -61 -36 -35 -51 -44 -57 -34 -16 26 -22 143 -10 200 6 30 11 71
11 90 0 19 5 40 10 45 6 6 14 43 17 82 9 105 -12 92 -26 -15 -6 -49 -17 -113
-23 -143 -10 -46 -15 -244 -8 -307 1 -10 -4 -37 -10 -60 -14 -47 -7 -97 15
-127 12 -16 18 -17 27 -8 9 9 9 22 1 53 -15 56 4 113 53 161 57 56 62 52 44
-32 -11 -47 -17 -77 -48 -228 -10 -50 -22 -95 -26 -99 -18 -19 -104 101 -152
212 -25 56 -22 258 6 425 11 69 27 170 35 225 9 55 20 113 25 129 6 16 10 48
10 72 0 23 5 44 10 46 6 2 14 29 17 61 3 31 10 57 14 57 5 0 9 27 9 60 0 33 4
60 9 60 8 0 15 28 41 160 12 62 27 121 33 127 11 11 45 -9 52 -30 19 -64 23
-101 10 -121 -7 -12 -15 -37 -16 -56 -2 -19 -7 -37 -10 -40 -7 -5 -12 -59 -9
-95 l1 -20 9 20 c5 11 9 37 9 57 1 20 6 40 11 43 6 3 10 15 10 25 0 11 7 36
16 57 35 80 64 165 64 186 0 9 -4 17 -10 17 -5 0 -10 -16 -10 -35 0 -30 -3
-35 -23 -35 -15 0 -28 11 -41 35 -24 44 -56 47 -72 8 -6 -16 -17 -55 -24 -88
-6 -33 -18 -78 -26 -100 -8 -23 -14 -50 -14 -62 0 -12 -4 -24 -9 -28 -6 -3
-13 -37 -17 -75 -3 -39 -11 -70 -15 -70 -5 0 -9 -25 -9 -55 0 -30 -4 -55 -10
-55 -5 0 -10 -10 -10 -22 0 -13 -6 -35 -14 -50 -8 -15 -22 -52 -30 -82 -9 -31
-22 -57 -29 -57 -41 -4 -223 29 -259 48 -15 7 -35 25 -45 39 -16 24 -15 28 2
60 10 19 33 45 51 59 47 36 119 135 158 218 50 104 106 252 106 275 0 12 5 24
10 27 13 8 13 75 0 75 -16 0 -37 -42 -50 -100 -31 -134 -57 -175 -150 -230
-30 -18 -64 -41 -75 -50 -40 -35 -185 -118 -239 -139 -61 -22 -126 -27 -156
-11 -21 11 -80 68 -80 78 0 3 -17 40 -39 81 -45 89 -61 154 -61 255 0 103 5
108 121 110 122 3 204 25 338 90 66 32 97 55 149 111 65 70 112 150 112 192 0
12 12 36 27 53 50 60 202 160 242 160 12 0 21 5 21 11 0 15 -63 3 -112 -22
-20 -10 -42 -19 -48 -19 -25 0 -163 -115 -186 -155 -11 -19 -13 -18 -40 13
-16 19 -38 44 -50 57 -12 13 -24 29 -27 37 -4 7 -20 36 -36 63 -59 97 -108
211 -131 299 -39 154 -19 339 50 441 94 141 122 180 192 270 43 55 84 107 92
115 25 28 113 147 152 206 21 32 44 64 50 71 6 7 51 76 100 155 124 201 196
307 287 418 7 8 38 47 69 85 32 39 70 80 85 92 15 12 47 40 70 61 89 81 262
145 395 146 47 1 89 4 93 8 13 12 -38 30 -74 26 -73 -10 -76 2 -16 67 30 33
55 63 55 68 0 4 -711 7 -1580 7 -869 0 -1580 -3 -1580 -7 0 -7 113 -80 150
-97 56 -26 186 -116 188 -130 5 -22 -24 -117 -42 -142 -12 -16 -15 -14 -36 27
-35 69 -58 89 -103 89 -34 0 -45 -7 -93 -57 l-55 -57 -38 44 c-51 59 -86 59
-148 -2 -24 -24 -53 -58 -64 -75 -12 -18 -27 -33 -35 -33 -8 0 -34 20 -57 45
-43 44 -45 45 -107 45 l-63 0 9 63 c15 109 10 152 -22 198 -16 23 -36 52 -44
65 l-15 24 -313 0 -312 0 2 -42z m3068 -2692 c0 -3 -4 -8 -10 -11 -5 -3 -10
-1 -10 4 0 6 5 11 10 11 6 0 10 -2 10 -4z m3633 -1515 c22 -21 41 -133 34
-199 -7 -71 -26 -135 -46 -157 -10 -11 -24 -31 -31 -44 -7 -13 -60 -90 -119
-170 -58 -80 -148 -205 -198 -276 -50 -72 -118 -158 -150 -193 -52 -55 -63
-62 -96 -62 -22 0 -45 7 -56 18 -33 30 -71 94 -71 118 0 21 58 102 144 200 20
23 36 45 36 49 0 5 24 40 54 80 29 39 61 86 71 105 9 19 25 44 35 55 10 11 30
43 46 70 15 28 47 80 71 117 23 37 43 70 43 73 0 3 10 22 23 43 13 20 34 64
47 97 29 75 35 83 74 94 37 11 65 5 89 -18z m-2993 -56 c0 -13 -7 -50 -16 -82
-19 -71 -50 -203 -70 -303 -9 -41 -20 -83 -25 -92 -5 -10 -9 -40 -9 -67 0 -28
-4 -53 -10 -56 -5 -3 -10 -24 -10 -45 0 -21 -4 -41 -9 -44 -12 -8 -126 77
-146 108 -10 14 -13 31 -9 38 4 7 11 30 15 53 4 22 15 72 24 110 9 39 20 95
25 125 28 162 45 189 144 239 44 22 84 40 89 41 4 0 7 -11 7 -25z m-1059
-2951 c6 -19 6 -40 1 -55 -9 -23 -10 -23 -26 15 -9 22 -15 44 -13 50 2 6 -3
17 -12 24 -9 8 -11 11 -4 7 7 -3 18 5 25 17 l13 23 3 -25 c2 -14 7 -39 13 -56z
m149 -4 c0 -5 -4 -10 -10 -10 -5 0 -10 5 -10 10 0 6 5 10 10 10 6 0 10 -4 10
-10z m177 -72 c-3 -8 -6 -5 -6 6 -1 11 2 17 5 13 3 -3 4 -12 1 -19z m-291 1
c-6 9 -4 12 5 9 8 -3 15 -22 17 -46 3 -34 0 -41 -12 -36 -20 8 -33 -23 -17
-39 14 -14 14 -37 1 -37 -21 0 -32 51 -16 75 12 19 12 23 -1 31 -11 7 -13 17
-9 32 7 20 10 21 24 10 13 -11 14 -11 8 1z m304 -57 c0 -20 -2 -21 -20 -10
-11 7 -20 16 -20 20 0 3 -3 13 -6 22 -5 13 -2 13 20 3 17 -8 26 -20 26 -35z
m-50 -38 c0 -8 -5 -12 -10 -9 -6 4 -8 11 -5 16 9 14 15 11 15 -7z m50 -10 c0
-2 -9 -4 -20 -4 -11 0 -20 4 -20 9 0 5 9 7 20 4 11 -3 20 -7 20 -9z m10 -31
c0 -13 -3 -13 -15 -3 -9 7 -19 9 -23 5 -4 -4 -1 -10 6 -12 25 -9 11 -19 -23
-15 -25 3 -36 0 -41 -12 -3 -9 -12 -16 -20 -16 -8 0 -14 -5 -14 -10 0 -6 -11
-8 -24 -6 -18 3 -25 -1 -29 -15 -7 -27 -22 -24 -47 11 -19 26 -19 30 -5 30 10
0 30 11 47 25 32 27 43 30 53 15 9 -15 25 -12 25 4 0 17 21 22 72 18 26 -3 38
-9 38 -19z m23 -8 c4 -8 2 -17 -3 -20 -6 -4 -10 3 -10 14 0 25 6 27 13 6z
m-13 -56 c0 -5 -4 -9 -10 -9 -5 0 -10 7 -10 16 0 8 5 12 10 9 6 -3 10 -10 10
-16z m60 -49 c0 -5 -9 -10 -21 -10 -11 0 -17 5 -14 10 3 6 13 10 21 10 8 0 14
-4 14 -10z m-1760 -120 c0 -5 -4 -10 -10 -10 -5 0 -10 5 -10 10 0 6 5 10 10
10 6 0 10 -4 10 -10z m263 -387 c-7 -3 -13 -11 -13 -19 0 -8 -7 -14 -15 -14
-8 0 -15 7 -15 15 0 8 7 15 15 15 8 0 15 8 15 17 0 14 2 15 13 4 10 -11 10
-14 0 -18z m9 -105 c-9 -9 -12 -7 -12 12 0 19 3 21 12 12 9 -9 9 -15 0 -24z
m-178 -74 c9 -24 7 -27 -9 -10 -17 17 -19 26 -6 26 5 0 12 -7 15 -16z m22
-135 c3 -5 13 -9 24 -9 19 0 133 -104 142 -130 4 -11 -1 -16 -13 -17 -10 -1
-19 2 -19 8 0 5 -7 9 -15 9 -9 0 -12 6 -9 15 4 8 1 15 -6 15 -6 0 -9 -4 -6 -8
6 -9 -29 -52 -42 -52 -16 1 -34 18 -24 24 6 3 13 2 17 -4 7 -12 25 -4 25 11 0
5 -9 9 -20 9 -11 0 -20 5 -20 11 0 6 -6 9 -14 6 -19 -8 -50 17 -43 34 4 11 6
10 6 -3 1 -11 7 -15 21 -11 27 7 26 29 -2 36 -18 5 -19 8 -8 21 11 14 9 16
-10 16 -13 0 -20 3 -17 7 4 3 -1 12 -10 19 -15 11 -14 11 10 7 15 -3 30 -9 33
-14z m92 -188 c-15 -24 -38 -28 -38 -6 0 9 10 19 23 24 28 11 31 8 15 -18z
m82 -42 c0 -5 3 -8 8 -7 17 5 49 -26 44 -44 -6 -26 -23 -23 -79 15 -47 31 -49
35 -35 55 13 20 15 20 38 5 13 -8 24 -19 24 -24z m173 -46 c-4 -21 -2 -34 3
-30 15 9 10 -65 -6 -100 -15 -33 -59 -50 -46 -18 3 8 1 15 -4 15 -13 0 -40 30
-40 45 0 7 8 12 18 10 9 -1 16 -8 15 -14 -2 -6 10 -11 27 -11 29 0 30 0 24 47
-5 43 1 93 11 93 2 0 1 -16 -2 -37z m-303 -44 c0 -5 -10 -8 -22 -8 -18 1 -19
2 -5 6 9 2 14 9 11 15 -4 7 -2 8 4 4 7 -4 12 -11 12 -17z m-70 7 c0 -3 -4 -8
-10 -11 -5 -3 -10 -1 -10 4 0 6 5 11 10 11 6 0 10 -2 10 -4z m110 0 c0 -3 -4
-8 -10 -11 -5 -3 -10 -1 -10 4 0 6 5 11 10 11 6 0 10 -2 10 -4z m60 -62 c0 -2
-7 -4 -15 -4 -8 0 -15 4 -15 10 0 5 7 7 15 4 8 -4 15 -8 15 -10z m36 -39 c8
-10 14 -27 14 -37 0 -10 4 -18 10 -18 5 0 7 -7 4 -15 -4 -8 1 -17 10 -21 24
-9 21 -54 -4 -54 -16 0 -21 9 -26 50 -7 56 -28 93 -42 73 -11 -17 -102 -30
-102 -14 0 6 16 11 38 11 30 1 34 3 19 11 -9 5 -22 7 -27 4 -6 -3 -10 -1 -10
4 0 6 10 11 23 11 14 0 18 3 10 8 -8 5 5 8 28 7 28 -1 46 -7 55 -20z m-342
-26 c-6 -11 -24 -2 -24 11 0 5 7 7 15 4 8 -4 12 -10 9 -15z m196 11 c0 -5 -4
-10 -10 -10 -5 0 -10 5 -10 10 0 6 5 10 10 10 6 0 10 -4 10 -10z m-7 -55 c-8
-22 -22 -18 -16 5 3 11 9 17 14 15 4 -3 6 -12 2 -20z m117 0 c0 -11 -11 -15
-42 -15 -23 0 -38 3 -35 7 4 3 21 6 39 5 23 -1 28 2 18 8 -13 8 -12 10 3 10 9
0 17 -7 17 -15z"/>
<path d="M5430 1504 c0 -8 5 -12 10 -9 6 4 8 11 5 16 -9 14 -15 11 -15 -7z"/>
<path d="M7916 8901 c-3 -5 -24 -7 -46 -4 -22 3 -40 2 -40 -1 0 -4 33 -47 73
-94 103 -122 122 -152 97 -152 -5 0 -10 5 -10 10 0 12 -8 22 -69 88 -24 26
-53 59 -65 73 -12 14 -35 34 -50 44 -23 16 -29 16 -37 4 -5 -8 -9 -17 -9 -20
0 -9 72 -92 94 -108 11 -8 26 -22 33 -30 8 -9 32 -36 53 -61 22 -25 42 -53 45
-62 4 -10 11 -18 16 -18 5 0 9 -6 9 -13 0 -7 12 -29 26 -50 14 -21 23 -43 21
-50 -3 -7 -9 0 -15 15 -6 15 -20 36 -30 46 -11 11 -28 34 -38 52 -39 68 -207
241 -292 300 -31 21 -35 21 -50 6 -15 -15 -12 -20 43 -72 192 -179 251 -246
306 -350 38 -73 53 -89 74 -80 13 4 16 15 13 36 -5 34 -1 37 17 13 11 -14 16
-15 28 -5 8 7 13 21 10 31 -3 12 2 20 16 24 29 7 27 38 -9 108 -35 70 -84 141
-134 193 -20 21 -35 41 -32 43 6 6 66 -36 66 -46 0 -4 21 -29 48 -57 26 -27
55 -65 64 -84 25 -52 72 -105 86 -96 19 12 14 47 -13 82 -14 18 -25 36 -25 40
0 12 -81 117 -120 154 -98 95 -138 118 -154 91z m163 -358 c0 -12 -4 -8 -11
10 -5 15 -13 27 -18 27 -4 0 -10 8 -13 18 -2 9 -8 26 -12 37 -4 11 7 -1 24
-27 17 -27 31 -56 30 -65z m18 -35 c-3 -8 -6 -5 -6 6 -1 11 2 17 5 13 3 -3 4
-12 1 -19z"/>
<path d="M8123 8903 c-7 -2 -13 -11 -13 -19 0 -14 19 -54 31 -64 10 -8 57 -92
74 -130 8 -19 19 -42 25 -50 6 -8 15 -27 21 -42 19 -48 65 -48 56 1 -7 37 -30
94 -43 106 -6 6 -18 25 -25 43 -8 17 -17 32 -20 32 -4 0 -10 11 -13 25 -4 14
-11 25 -16 25 -6 0 -10 6 -10 13 0 10 -46 69 -53 66 -1 0 -8 -3 -14 -6z"/>
<path d="M7260 8888 c0 -8 17 -23 38 -35 258 -140 292 -164 454 -319 52 -50
110 -130 146 -200 23 -45 50 -63 63 -42 9 14 1 51 -12 56 -5 2 -9 10 -9 18 0
8 -4 14 -10 14 -5 0 -10 6 -10 13 0 44 -194 258 -285 315 -22 14 -44 31 -48
38 -4 8 -12 14 -17 14 -4 0 -44 22 -87 48 -96 59 -144 82 -189 89 -26 4 -34 2
-34 -9z"/>
<path d="M8193 8884 c-3 -8 4 -25 16 -38 11 -12 21 -30 21 -39 0 -9 4 -17 9
-17 5 0 12 -9 16 -19 6 -21 53 -71 66 -71 24 0 5 64 -37 129 -47 71 -77 90
-91 55z"/>
<path d="M3486 8715 c-9 -24 -7 -63 3 -69 15 -10 33 21 29 50 -3 32 -23 43
-32 19z"/>
<path d="M9780 8641 c0 -22 25 -51 45 -51 14 0 182 -143 205 -175 8 -11 31
-38 51 -60 57 -62 158 -220 211 -330 66 -137 61 -130 99 -130 30 0 34 -3 37
-30 1 -16 7 -39 12 -50 5 -11 14 -40 20 -64 21 -81 29 -95 45 -81 8 7 16 29
16 49 2 35 2 35 9 -9 5 -25 13 -74 18 -109 12 -70 22 -87 47 -78 13 6 15 19
10 89 -6 77 -5 81 9 58 10 -16 15 -51 16 -97 0 -39 5 -75 10 -78 6 -3 10 -26
10 -50 0 -49 10 -60 46 -51 23 6 25 10 20 49 -3 23 -10 83 -16 132 -19 163
-31 219 -63 298 -31 77 -44 90 -67 62 -14 -17 -35 -21 -25 -5 10 16 -24 107
-93 248 -56 115 -67 132 -88 132 -17 0 -24 -6 -24 -19 0 -11 5 -23 10 -26 6
-3 10 -12 10 -20 0 -8 22 -60 49 -117 27 -57 57 -128 66 -158 9 -30 21 -65 26
-78 12 -30 12 -72 -1 -72 -5 0 -10 10 -10 21 0 26 -29 117 -59 192 -6 12 -13
32 -16 45 -4 12 -11 22 -16 22 -5 0 -9 6 -9 14 0 14 -30 77 -41 86 -8 7 -89
136 -89 143 0 15 -61 67 -79 67 -32 0 -26 -30 14 -77 19 -23 35 -44 35 -48 0
-4 15 -28 34 -54 39 -54 116 -207 116 -232 0 -10 4 -20 9 -23 12 -8 21 -46 10
-46 -5 0 -9 7 -9 15 0 8 -4 15 -10 15 -5 0 -10 8 -10 19 0 10 -7 24 -15 31 -8
7 -15 18 -15 25 0 13 -29 74 -40 85 -12 12 -40 69 -40 82 0 8 -8 23 -18 34
-10 10 -33 43 -52 72 -18 28 -37 52 -41 52 -4 0 -11 9 -14 21 -7 22 -183 199
-198 199 -5 0 -34 18 -64 40 -62 44 -93 51 -93 21z m797 -808 c-3 -10 -5 -4
-5 12 0 17 2 24 5 18 2 -7 2 -21 0 -30z m20 -95 c-2 -13 -4 -3 -4 22 0 25 2
35 4 23 2 -13 2 -33 0 -45z"/>
<path d="M8915 8558 c-22 -6 -49 -14 -60 -18 -11 -5 -38 -14 -60 -20 -137 -41
-235 -105 -235 -153 0 -35 18 -34 56 1 33 31 146 90 196 102 89 22 184 52 193
61 7 7 4 15 -9 25 -22 16 -24 16 -81 2z"/>
<path d="M1202 8478 c-7 -7 -12 -18 -12 -25 0 -7 -4 -13 -10 -13 -5 0 -10 -7
-10 -15 0 -35 57 3 73 48 8 20 -22 24 -41 5z"/>
<path d="M6835 8235 c-123 -23 -224 -57 -300 -102 -117 -69 -297 -227 -344
-303 -9 -14 -35 -50 -58 -80 -47 -63 -122 -208 -150 -290 -28 -86 -25 -271 6
-375 36 -118 58 -149 99 -138 13 3 30 -1 40 -9 35 -29 105 -61 163 -74 112
-26 277 13 403 95 146 94 325 270 410 404 66 103 133 249 146 317 15 83 -5
218 -45 304 -28 61 -109 151 -155 173 -40 19 -93 40 -125 51 l-30 10 35 3 c56
5 93 7 130 9 29 1 32 3 15 10 -29 13 -159 10 -240 -5z"/>
<path d="M7164 8194 c27 -14 62 -36 77 -49 16 -12 32 -25 37 -27 4 -1 28 -32
53 -66 32 -46 45 -59 48 -46 2 10 -2 20 -8 22 -6 2 -11 8 -11 14 0 15 -65 96
-104 130 -17 15 -39 28 -48 28 -9 0 -20 5 -23 10 -3 6 -21 10 -38 10 -32 -1
-31 -1 17 -26z"/>
<path d="M8715 8181 c-27 -15 -65 -36 -84 -47 -91 -51 -207 -176 -194 -210 9
-24 21 -16 56 39 39 61 140 153 197 179 21 10 42 23 45 28 3 6 15 10 26 10 10
0 19 7 19 15 0 21 -7 19 -65 -14z"/>
<path d="M8960 8201 c-84 -10 -163 -34 -210 -62 -8 -5 -22 -12 -30 -15 -9 -3
-21 -14 -28 -25 -10 -16 -9 -19 3 -19 8 0 15 5 15 10 0 6 5 10 11 10 5 0 34
11 62 24 113 52 148 40 60 -20 -63 -43 -213 -186 -213 -203 0 -6 -15 -34 -33
-63 -59 -94 -67 -125 -67 -272 0 -132 4 -157 47 -290 64 -197 286 -497 455
-616 82 -58 151 -86 248 -101 135 -21 423 26 549 89 146 73 286 281 320 476
24 133 -1 346 -60 518 -52 152 -80 194 -191 284 -86 70 -356 204 -410 204 -8
0 -18 4 -23 9 -6 5 -58 21 -117 35 -118 29 -277 40 -388 27z m-30 -35 c0 -11
-19 -15 -25 -6 -3 5 1 10 9 10 9 0 16 -2 16 -4z"/>
<path d="M7360 8144 c0 -3 7 -20 16 -37 30 -57 34 -67 34 -79 0 -21 32 -98 41
-98 12 0 12 57 0 64 -5 3 -12 22 -15 41 -4 19 -11 35 -16 35 -6 0 -10 8 -10
18 -1 25 -50 81 -50 56z"/>
<path d="M8450 8085 c-47 -36 -86 -72 -88 -80 -2 -8 -8 -15 -13 -15 -5 0 -9
-12 -9 -27 1 -27 1 -27 13 -7 7 11 39 45 73 75 90 81 113 99 125 99 5 0 7 5 4
10 -10 16 -15 13 -105 -55z"/>
<path d="M7462 8083 c5 -21 13 -55 19 -75 5 -21 8 -43 7 -49 -2 -6 3 -14 11
-17 18 -6 11 100 -10 142 -22 46 -39 45 -27 -1z"/>
<path d="M7598 7543 c-123 -135 -147 -162 -181 -204 -46 -58 -130 -196 -163
-269 -14 -30 -30 -63 -35 -72 -14 -28 -11 -136 6 -168 8 -16 25 -36 37 -44 42
-30 62 -20 124 57 66 81 101 117 114 117 15 0 46 -38 75 -93 64 -121 100 -147
171 -127 47 13 109 71 145 135 19 33 23 54 21 122 -1 69 -8 104 -48 220 -25
76 -52 152 -59 168 -31 76 -35 87 -35 109 0 34 -78 96 -120 96 -5 0 -28 -21
-52 -47z"/>
<path d="M7045 7149 c-44 -45 -136 -126 -205 -180 -148 -117 -132 -105 -198
-153 -31 -23 -52 -45 -50 -54 5 -26 23 -24 68 10 63 48 84 59 89 47 2 -6 -1
-15 -7 -21 -14 -14 -3 -38 18 -38 15 0 97 52 110 70 3 4 30 23 60 43 30 19 77
56 103 82 75 71 44 96 -37 30 -23 -18 -61 -45 -85 -61 -24 -16 -56 -37 -70
-46 -14 -10 -33 -21 -41 -25 -8 -3 -18 -11 -22 -17 -4 -6 -11 -7 -15 -2 -4 4
3 17 17 28 14 11 34 27 45 36 11 10 47 38 80 64 94 72 255 231 255 251 0 35
-38 15 -115 -64z"/>
<path d="M8287 7103 c-14 -13 -6 -122 12 -174 25 -70 70 -159 81 -159 5 0 11
-8 14 -18 8 -23 43 -62 56 -62 18 0 10 27 -14 54 -33 35 -91 139 -111 201 -11
32 -15 64 -11 92 8 57 -5 88 -27 66z"/>
<path d="M8355 7027 c-18 -71 98 -259 258 -418 100 -101 132 -122 132 -91 0
12 -52 76 -105 131 -14 14 -43 48 -65 76 -22 27 -46 56 -52 63 -7 7 -13 17
-13 21 0 4 -8 16 -17 27 -18 19 -55 92 -88 172 -20 46 -41 55 -50 19z"/>
<path d="M8513 6903 c-7 -3 -13 -8 -13 -13 0 -12 69 -112 93 -136 12 -11 31
-33 42 -48 11 -16 25 -33 30 -40 6 -6 28 -34 49 -61 49 -63 126 -134 147 -135
8 0 20 5 26 11 9 9 20 3 44 -19 19 -17 49 -39 69 -49 19 -10 38 -22 42 -28 5
-6 8 -3 8 7 0 18 -83 103 -137 140 -17 12 -39 35 -48 51 -26 43 -155 191 -170
195 -8 2 -15 -7 -17 -20 -4 -22 -5 -22 -13 -3 -5 11 -11 22 -14 25 -4 3 -26
29 -50 58 -46 56 -68 72 -88 65z m247 -243 c0 -5 -4 -10 -10 -10 -5 0 -10 5
-10 10 0 6 5 10 10 10 6 0 10 -4 10 -10z"/>
<path d="M6890 6787 c-30 -22 -59 -47 -63 -55 -5 -7 -22 -25 -38 -39 -48 -43
-33 -44 29 -2 31 22 76 52 100 67 38 25 54 54 34 66 -4 2 -32 -14 -62 -37z"/>
<path d="M6023 6509 c12 -7 35 -7 70 -1 l52 10 -70 1 c-53 0 -66 -2 -52 -10z"/>
<path d="M6108 6393 c-21 -2 -38 -8 -38 -13 0 -6 41 -7 98 -3 107 6 134 13 54
13 -27 0 -56 1 -64 3 -7 2 -30 2 -50 0z"/>
<path d="M7095 6376 c-82 -32 -128 -70 -167 -138 -12 -21 -25 -38 -30 -38 -4
0 -8 -6 -8 -14 0 -7 -7 -19 -15 -26 -17 -14 -20 -50 -5 -50 6 0 10 5 10 11 0
6 11 25 25 43 14 18 25 37 25 42 0 5 26 35 58 66 59 58 121 95 182 108 l35 8
-40 0 c-22 0 -53 -6 -70 -12z"/>
<path d="M5990 6360 c0 -5 13 -10 29 -10 17 0 33 5 36 10 4 6 -8 10 -29 10
-20 0 -36 -4 -36 -10z"/>
<path d="M7216 6362 c6 -4 18 -23 28 -42 14 -28 18 -59 17 -159 -1 -68 -4
-128 -7 -133 -3 -5 -10 -33 -14 -61 -14 -83 -33 -162 -40 -167 -12 -9 -20 -74
-11 -89 8 -12 11 -8 16 15 8 36 32 129 45 170 6 17 10 36 10 42 0 7 11 30 25
52 28 44 31 60 13 78 -7 7 -12 54 -14 128 -1 64 -6 119 -11 123 -6 3 -15 16
-22 29 -6 12 -19 22 -29 22 -10 0 -13 -3 -6 -8z"/>
<path d="M7623 6363 c9 -2 25 -2 35 0 9 3 1 5 -18 5 -19 0 -27 -2 -17 -5z"/>
<path d="M7723 6356 c23 -7 53 -28 73 -51 18 -21 37 -36 40 -32 10 10 -28 60
-54 72 -12 5 -22 13 -22 17 0 5 -17 8 -37 7 l-38 -1 38 -12z"/>
<path d="M7531 6324 c-20 -23 -9 -25 18 -3 13 11 17 19 10 19 -8 -1 -20 -8
-28 -16z"/>
<path d="M9256 6278 c2 -7 46 -33 97 -58 160 -77 272 -163 449 -344 59 -60 81
-67 86 -25 3 25 -37 68 -143 154 -27 22 -70 58 -95 81 -25 22 -56 50 -70 63
-14 12 -36 28 -50 35 -14 7 -50 27 -80 44 -89 48 -206 78 -194 50z"/>
<path d="M9530 6263 c0 -25 10 -35 54 -58 22 -11 63 -40 90 -65 28 -25 68 -58
89 -74 21 -15 41 -36 44 -45 4 -9 19 -31 35 -50 16 -18 39 -53 51 -77 11 -24
25 -44 29 -44 4 0 8 -7 8 -15 0 -8 4 -15 9 -15 5 0 11 -10 15 -23 3 -13 17
-36 32 -52 23 -24 27 -26 40 -13 14 13 13 20 -6 54 -58 103 -105 178 -132 208
-10 11 -18 23 -18 28 0 25 -159 179 -231 224 -63 38 -109 45 -109 17z"/>
<path d="M7460 6260 c0 -5 5 -10 10 -10 6 0 10 5 10 10 0 6 -4 10 -10 10 -5 0
-10 -4 -10 -10z"/>
<path d="M7840 6235 c0 -14 7 -42 15 -62 17 -40 19 -123 4 -198 -5 -27 -12
-70 -15 -95 -3 -25 -12 -63 -19 -85 -7 -22 -18 -60 -25 -85 -7 -25 -15 -52
-20 -60 -4 -9 -11 -31 -15 -50 -4 -19 -10 -37 -14 -40 -10 -8 -53 -132 -59
-168 -2 -18 -8 -35 -13 -38 -5 -3 -9 -15 -9 -27 0 -12 -7 -31 -15 -41 -15 -20
-22 -88 -7 -71 5 6 14 30 21 55 8 25 19 59 26 75 29 67 35 84 61 165 15 47 33
99 41 117 7 17 13 40 13 52 0 12 4 21 8 21 4 0 16 36 26 79 20 89 46 131 106
171 23 15 48 37 56 49 26 37 5 26 -51 -27 -13 -12 -34 -23 -47 -25 -23 -2 -23
0 -28 128 -5 114 -18 185 -35 185 -3 0 -5 -11 -5 -25z"/>
<path d="M7419 6221 c-35 -34 -63 -80 -55 -88 3 -4 13 2 21 13 68 88 84 126
34 75z"/>
<path d="M8170 6111 c0 -5 9 -7 20 -4 11 3 20 7 20 9 0 2 -9 4 -20 4 -11 0
-20 -4 -20 -9z"/>
<path d="M8278 6110 c17 -4 42 -20 55 -36 30 -38 77 -151 78 -189 1 -16 4 -41
8 -55 l7 -25 8 23 c9 27 1 103 -16 147 -20 52 -69 125 -84 125 -8 0 -14 5 -14
10 0 6 -17 10 -37 9 l-38 -1 33 -8z"/>
<path d="M8097 6079 c-21 -11 -35 -24 -32 -29 7 -12 45 6 45 20 0 6 9 10 20
10 11 0 20 5 20 10 0 14 -9 12 -53 -11z"/>
<path d="M83 5904 c-15 -15 -17 -31 -5 -37 12 -8 29 18 23 35 -5 13 -8 14 -18
2z"/>
<path d="M6741 5773 c0 -31 2 -34 9 -18 12 28 12 55 0 55 -5 0 -10 -17 -9 -37z"/>
<path d="M6716 5708 c-4 -24 -3 -45 4 -52 7 -7 10 6 10 42 0 29 -2 52 -4 52
-2 0 -6 -19 -10 -42z"/>
<path d="M8703 5733 c15 -2 37 -2 50 0 12 2 0 4 -28 4 -27 0 -38 -2 -22 -4z"/>
<path d="M7167 5650 c-4 -24 -12 -49 -16 -55 -5 -5 -11 -25 -15 -43 -4 -24 -2
-32 7 -30 6 3 13 20 15 39 2 18 8 37 13 40 6 3 9 26 7 50 l-3 44 -8 -45z"/>
<path d="M6690 5598 c0 -32 3 -39 10 -28 13 20 13 70 0 70 -5 0 -10 -19 -10
-42z"/>
<path d="M6673 5500 c0 -25 2 -35 4 -22 2 12 2 32 0 45 -2 12 -4 2 -4 -23z"/>
<path d="M6015 5409 c-4 -26 -3 -45 4 -52 8 -8 11 3 11 41 0 63 -6 67 -15 11z"/>
<path d="M6642 5380 c0 -14 2 -19 5 -12 2 6 2 18 0 25 -3 6 -5 1 -5 -13z"/>
<path d="M6615 5313 c-3 -21 -10 -46 -16 -55 -5 -10 -9 -37 -8 -60 l1 -43 9
36 c4 20 9 43 11 50 2 8 6 16 9 19 10 8 18 90 9 90 -5 0 -12 -17 -15 -37z"/>
<path d="M5988 5259 c-3 -57 6 -75 16 -28 9 45 7 79 -3 79 -5 0 -11 -23 -13
-51z"/>
<path d="M7611 5170 c-50 -125 -61 -170 -42 -170 5 0 17 26 27 58 9 31 21 62
26 69 5 6 8 27 6 45 l-3 33 -14 -35z"/>
<path d="M5968 5146 c-11 -70 -10 -92 3 -79 5 5 9 37 7 69 l-3 59 -7 -49z"/>
<path d="M6569 5120 c-7 -35 -4 -48 7 -38 3 4 4 21 2 40 l-3 33 -6 -35z"/>
<path d="M6540 5013 c0 -28 3 -34 10 -23 13 20 13 47 0 55 -6 4 -10 -9 -10
-32z"/>
<path d="M1220 2140 c0 -21 4 -30 13 -27 6 2 12 14 12 27 0 13 -6 25 -12 28
-9 2 -13 -7 -13 -28z"/>
<path d="M4400 2126 c19 -7 39 -11 43 -9 12 7 6 10 -38 16 l-40 6 35 -13z"/>
<path d="M3927 2113 c-13 -13 -7 -21 13 -16 11 3 20 9 20 14 0 10 -24 12 -33
2z"/>
<path d="M4190 2102 c0 -10 9 -37 21 -61 16 -33 18 -49 11 -70 -6 -17 -6 -34
-1 -42 15 -24 11 -153 -6 -175 -20 -26 -19 -80 1 -88 27 -10 61 -7 73 8 6 7
15 57 20 110 8 77 6 113 -6 173 -16 79 -19 85 -65 134 -30 33 -48 37 -48 11z"/>
<path d="M4320 2073 c1 -27 1 -27 15 -9 19 25 19 36 0 36 -10 0 -15 -10 -15
-27z"/>
<path d="M4004 2041 c20 -22 26 -25 26 -13 0 4 -10 13 -22 21 -23 14 -23 14
-4 -8z"/>
<path d="M4100 2025 c0 -8 5 -15 10 -15 6 0 10 7 10 15 0 8 -4 15 -10 15 -5 0
-10 -7 -10 -15z"/>
<path d="M4065 1980 c3 -5 8 -10 11 -10 2 0 4 5 4 10 0 6 -5 10 -11 10 -5 0
-7 -4 -4 -10z"/>
<path d="M3228 1963 c7 -3 16 -2 19 1 4 3 -2 6 -13 5 -11 0 -14 -3 -6 -6z"/>
<path d="M4696 1945 c-4 -12 -1 -16 11 -13 18 3 21 20 5 26 -5 1 -12 -4 -16
-13z"/>
<path d="M4597 1926 c-3 -8 -1 -17 6 -20 8 -3 7 -5 -3 -5 -10 -1 -7 -6 8 -17
15 -10 21 -22 17 -32 -3 -8 0 -19 7 -24 10 -6 8 -8 -4 -8 -27 0 -33 4 -30 18
2 6 -4 12 -13 12 -12 0 -15 -6 -9 -22 4 -13 11 -26 16 -29 6 -4 6 -9 -1 -14
-7 -4 -19 -1 -27 6 -8 6 -17 9 -21 5 -3 -3 0 -7 8 -7 8 -1 1 -5 -16 -9 -28 -7
-27 -8 13 -9 28 -1 45 -6 48 -16 6 -15 36 -22 32 -7 -2 4 2 8 7 9 6 1 9 -7 8
-17 -2 -13 2 -17 12 -14 17 7 19 20 5 29 -7 4 -6 13 1 26 5 11 8 30 6 42 -4
18 -5 17 -6 -5 0 -16 -4 -28 -9 -28 -4 0 -6 20 -4 43 3 31 -1 49 -13 60 -12
12 -13 17 -3 17 10 0 10 2 -1 9 -11 7 -11 9 0 14 9 3 5 6 -7 6 -12 1 -24 -5
-27 -13z"/>
<path d="M5546 1921 c-7 -11 20 -48 29 -39 9 8 -4 48 -15 48 -5 0 -11 -4 -14
-9z"/>
<path d="M4675 1880 c3 -5 8 -10 11 -10 2 0 4 5 4 10 0 6 -5 10 -11 10 -5 0
-7 -4 -4 -10z"/>
<path d="M4573 1873 c9 -2 23 -2 30 0 6 3 -1 5 -18 5 -16 0 -22 -2 -12 -5z"/>
<path d="M7 1863 c-4 -3 -7 -24 -7 -45 l0 -39 30 34 c17 19 30 40 30 46 0 12
-42 15 -53 4z"/>
<path d="M4190 1859 c0 -5 5 -7 10 -4 6 3 10 8 10 11 0 2 -4 4 -10 4 -5 0 -10
-5 -10 -11z"/>
<path d="M4551 1824 c0 -11 3 -14 6 -6 3 7 2 16 -1 19 -3 4 -6 -2 -5 -13z"/>
<path d="M4106 1811 c-19 -21 -12 -28 13 -12 7 5 12 14 9 21 -2 7 -10 4 -22
-9z"/>
<path d="M10325 1820 c3 -5 8 -10 11 -10 2 0 4 5 4 10 0 6 -5 10 -11 10 -5 0
-7 -4 -4 -10z"/>
<path d="M5885 1800 c-3 -5 -2 -10 4 -10 5 0 13 5 16 10 3 6 2 10 -4 10 -5 0
-13 -4 -16 -10z"/>
<path d="M4144 1786 c-3 -9 -12 -16 -20 -16 -20 0 -17 -10 9 -34 30 -28 47
-22 47 14 0 34 -26 61 -36 36z"/>
<path d="M4721 1779 c-1 -15 -8 -29 -16 -33 -27 -10 -17 -43 16 -55 40 -14 39
-14 39 4 0 8 -8 15 -17 15 -12 0 -14 3 -6 8 6 4 16 20 22 35 9 23 8 27 -8 27
-11 0 -22 6 -24 13 -3 6 -6 0 -6 -14z m2 -59 c-3 -12 -8 -19 -11 -16 -5 6 5
36 12 36 2 0 2 -9 -1 -20z"/>
<path d="M4682 1779 c2 -6 8 -10 13 -10 5 0 11 4 13 10 2 6 -4 11 -13 11 -9 0
-15 -5 -13 -11z"/>
<path d="M3160 1751 c0 -5 7 -15 17 -22 15 -13 15 -12 4 9 -12 23 -21 28 -21
13z"/>
<path d="M6324 1656 c0 -11 -3 -28 -6 -36 -2 -8 -3 -12 -1 -7 3 4 9 5 14 1 5
-3 9 2 9 10 0 9 5 16 11 16 16 0 6 33 -11 35 -9 2 -15 -6 -16 -19z"/>
<path d="M4807 1653 c-4 -3 -7 -11 -7 -17 0 -6 5 -5 12 2 6 6 9 14 7 17 -3 3
-9 2 -12 -2z"/>
<path d="M3903 1600 c0 -25 2 -35 4 -22 2 12 2 32 0 45 -2 12 -4 2 -4 -23z"/>
<path d="M8816 1621 c-3 -5 7 -38 24 -73 29 -60 30 -69 30 -199 0 -114 3 -138
15 -143 25 -9 28 17 21 156 -6 117 -9 136 -37 194 -32 67 -44 81 -53 65z"/>
<path d="M5960 1604 c0 -8 5 -12 10 -9 6 4 8 11 5 16 -9 14 -15 11 -15 -7z"/>
<path d="M3140 1590 c0 -5 5 -10 10 -10 6 0 10 5 10 10 0 6 -4 10 -10 10 -5 0
-10 -4 -10 -10z"/>
<path d="M4868 1593 c7 -3 16 -2 19 1 4 3 -2 6 -13 5 -11 0 -14 -3 -6 -6z"/>
<path d="M4006 1575 c-3 -8 -1 -15 4 -15 6 0 10 7 10 15 0 8 -2 15 -4 15 -2 0
-6 -7 -10 -15z"/>
<path d="M6326 1581 c-4 -7 -5 -15 -2 -18 9 -9 19 4 14 18 -4 11 -6 11 -12 0z"/>
<path d="M5010 1553 c0 -7 -9 -13 -20 -13 -11 0 -20 -4 -20 -10 0 -12 47 -14
54 -2 2 4 1 14 -5 22 -6 10 -9 11 -9 3z"/>
<path d="M6041 1546 c-7 -8 -8 -17 -3 -20 6 -3 12 3 15 14 6 24 4 25 -12 6z"/>
<path d="M9010 1540 c0 -10 7 -45 15 -77 22 -82 18 -208 -8 -255 -27 -49 -17
-71 28 -66 43 5 41 -10 -3 -31 -17 -9 -32 -22 -32 -29 0 -24 20 -52 38 -52 13
0 14 2 4 9 -11 6 -10 10 4 15 16 6 16 8 4 16 -10 7 -11 10 -2 10 6 0 12 9 12
21 0 11 4 18 9 14 19 -11 23 17 5 36 -9 10 -14 19 -10 19 4 0 1 10 -6 23 -8
15 -11 62 -9 146 2 97 -2 134 -15 172 -18 50 -34 64 -34 29z"/>
<path d="M5918 1545 c-8 -8 2 -45 13 -45 4 0 11 5 15 11 7 12 -19 43 -28 34z"/>
<path d="M3840 1530 c0 -5 5 -10 10 -10 6 0 10 5 10 10 0 6 -4 10 -10 10 -5 0
-10 -4 -10 -10z"/>
<path d="M6180 1529 c0 -11 27 -12 34 -1 2 4 -4 9 -15 9 -10 1 -19 -2 -19 -8z"/>
<path d="M4110 1506 c0 -14 5 -26 10 -26 6 0 10 9 10 19 0 11 -4 23 -10 26 -6
4 -10 -5 -10 -19z"/>
<path d="M6321 1514 c0 -11 3 -14 6 -6 3 7 2 16 -1 19 -3 4 -6 -2 -5 -13z"/>
<path d="M9235 1483 c-20 -155 -31 -203 -53 -248 -34 -65 -36 -103 -8 -126 36
-31 47 -23 24 17 l-21 35 25 27 c28 30 57 160 59 262 1 75 0 80 -10 80 -6 0
-13 -21 -16 -47z"/>
<path d="M6235 1481 c0 -33 2 -36 34 -39 21 -2 31 0 26 7 -3 6 -14 11 -24 11
-14 0 -17 6 -13 28 2 19 -1 29 -10 29 -8 0 -13 -13 -13 -36z"/>
<path d="M11087 1496 c3 -16 1 -26 -6 -26 -6 0 -11 -7 -11 -15 0 -8 9 -15 19
-15 11 0 22 -4 25 -9 7 -11 -61 -77 -74 -74 -5 2 -15 -7 -21 -19 -23 -43 -71
-78 -98 -71 -33 7 -42 15 -44 40 0 12 -6 19 -13 16 -7 -3 -11 -10 -9 -16 2 -7
6 -24 9 -38 5 -22 10 -25 36 -21 29 4 31 3 25 -20 -6 -24 12 -51 31 -47 20 3
35 -2 30 -10 -3 -5 0 -9 7 -8 40 1 57 -5 57 -19 0 -14 3 -14 16 -3 13 10 17
10 25 -2 11 -18 11 -60 0 -79 -11 -16 -78 -17 -94 -1 -8 8 -3 11 19 11 28 1
28 1 10 15 -11 8 -30 15 -42 15 -12 0 -25 7 -28 16 -5 14 -12 10 -40 -20 -19
-19 -36 -41 -39 -48 -3 -7 -6 -3 -6 10 -1 12 -5 22 -9 22 -4 0 -6 -16 -4 -36
2 -19 7 -33 9 -30 9 9 31 -20 35 -45 2 -13 9 -23 16 -21 6 1 12 -2 12 -8 0 -5
-8 -10 -17 -11 -15 0 -14 -2 4 -11 17 -8 25 -7 39 6 28 28 44 11 86 -91 13
-34 33 -49 43 -33 4 6 16 10 28 9 l22 0 -22 -16 c-13 -8 -23 -23 -23 -33 0
-10 -7 -23 -15 -30 -12 -10 -15 -10 -15 3 0 9 5 19 10 22 6 3 10 12 10 18 0 7
-5 4 -11 -6 -13 -21 -45 -22 -57 -1 -12 21 -82 29 -82 9 0 -9 -17 -14 -52 -17
-66 -5 -77 -2 -84 28 -3 13 -10 24 -15 24 -4 0 -7 13 -6 29 1 16 5 27 10 24 4
-2 7 1 7 6 0 10 -14 15 -24 9 -6 -4 -46 49 -46 61 0 21 -65 70 -92 71 -16 0
-28 -4 -28 -10 0 -5 -6 -7 -13 -5 -7 3 -30 -4 -52 -15 -37 -19 -38 -21 -17
-27 23 -6 23 -6 3 -24 -11 -11 -30 -19 -43 -19 -19 0 -20 2 -8 10 13 8 12 10
-3 10 -10 0 -32 10 -50 22 -18 13 -34 24 -36 26 -3 1 -5 17 -4 35 1 31 -1 33
-28 29 -17 -3 -29 0 -29 7 0 6 5 11 10 11 6 0 10 9 10 21 0 11 6 30 13 42 17
30 35 280 22 309 -13 32 -25 38 -46 25 -19 -12 -29 -64 -33 -174 -1 -34 -5
-65 -9 -69 -4 -4 -7 -20 -7 -35 0 -15 -5 -31 -10 -34 -6 -4 -8 -11 -5 -16 9
-13 -20 -40 -32 -28 -5 5 -15 1 -25 -11 -10 -11 -13 -22 -8 -25 5 -3 11 -1 15
5 8 13 35 13 35 -1 0 -5 -4 -8 -8 -5 -4 2 -18 -17 -30 -43 -12 -27 -28 -54
-36 -61 -18 -14 -56 -4 -56 15 0 8 -7 11 -20 8 -14 -4 -19 -11 -15 -23 5 -15
-24 -60 -38 -60 -3 0 -24 18 -46 40 -49 49 -84 52 -142 13 -47 -31 -59 -56
-59 -119 0 -72 -10 -80 -94 -76 -81 4 -106 -9 -106 -56 0 -20 -3 -23 -12 -14
-16 16 -28 15 -28 -3 0 -8 8 -15 19 -15 23 0 29 -21 23 -78 -3 -27 -9 -42 -18
-42 -8 0 -19 -9 -26 -20 -16 -25 -83 -28 -92 -5 -3 8 -17 15 -31 15 -34 0 -31
33 3 38 12 2 22 8 22 13 0 5 -29 9 -65 8 -61 -1 -65 -3 -50 -19 8 -9 15 -21
15 -27 0 -6 10 -18 23 -27 12 -9 17 -15 12 -12 -6 3 -10 -16 -10 -47 0 -29 -3
-83 -6 -122 l-5 -70 -2 72 c-1 39 -7 75 -12 78 -6 4 -19 24 -31 46 -18 36 -24
40 -52 37 -30 -3 -32 -5 -29 -38 2 -19 10 -40 19 -47 15 -12 21 -53 27 -184 2
-31 6 -62 11 -69 6 -10 4 -12 -8 -7 -9 3 -18 1 -21 -6 -3 -7 -4 -3 -1 9 4 15
-1 24 -18 31 -22 10 -24 9 -23 -23 1 -19 8 -39 16 -44 24 -15 2 -24 -25 -10
-14 7 -27 26 -31 44 -3 17 -11 36 -16 43 -5 6 -8 31 -7 55 1 23 -2 51 -6 61
-5 12 -3 17 6 15 8 -2 14 5 14 17 0 13 -10 22 -30 28 -16 5 -41 24 -55 43 -20
27 -31 34 -54 32 -42 -4 -44 -45 -5 -89 15 -17 35 -56 44 -85 17 -60 20 -164
4 -164 -5 0 -7 -4 -4 -10 3 -5 -3 -10 -14 -10 -12 0 -21 -3 -21 -7 1 -14 27
-43 39 -43 6 0 14 -7 17 -15 4 -8 17 -15 30 -15 13 0 24 -4 24 -10 0 -14 2097
-14 2102 0 2 6 95 11 242 12 179 2 242 5 252 15 15 15 28 17 19 3 -3 -5 1 -10
9 -10 10 0 16 9 16 24 0 20 -4 22 -26 18 -17 -3 -25 -1 -21 5 9 14 -26 23 -92
23 -30 0 -51 3 -48 6 3 4 33 6 66 5 63 -1 75 8 64 48 -6 23 -24 27 -54 10 -17
-8 -23 -7 -34 8 -11 14 -16 16 -26 6 -19 -19 -31 -16 -24 6 3 11 1 22 -4 26
-7 3 -8 0 -5 -9 8 -20 -6 -20 -35 0 -18 13 -28 14 -47 5 -14 -6 -38 -11 -54
-11 -25 0 -30 -4 -30 -23 0 -20 4 -23 36 -19 26 3 38 11 44 28 6 14 17 24 27
23 11 0 13 -3 5 -6 -6 -2 -10 -9 -6 -14 3 -5 0 -9 -5 -9 -6 0 -11 -6 -11 -14
0 -9 -12 -16 -27 -18 -16 -2 -27 -7 -25 -13 2 -5 12 -9 22 -7 11 2 28 -1 37
-7 14 -8 9 -10 -25 -9 -24 1 -47 -3 -50 -8 -9 -12 -52 -11 -51 1 0 6 10 9 22
8 l22 -3 -22 10 c-19 8 -22 14 -17 42 10 51 10 52 -7 55 -12 3 -15 -5 -12 -47
3 -40 1 -50 -12 -50 -8 0 -15 -5 -15 -11 0 -5 -4 -8 -9 -4 -5 3 -12 1 -16 -5
-3 -5 -18 -10 -33 -10 -26 0 -28 3 -30 46 -1 26 -6 52 -12 59 -12 15 -11 123
2 131 5 3 3 13 -5 22 -18 21 -28 62 -16 62 5 0 9 5 9 12 0 9 -3 9 -12 0 -15
-15 -102 -16 -129 -1 -17 9 -19 17 -13 57 3 26 10 51 15 57 5 5 9 25 9 45 0
28 6 38 30 52 25 14 36 15 58 6 37 -15 72 -19 72 -8 0 6 -11 12 -25 16 -27 7
-33 31 -15 65 14 24 30 25 30 0 0 -11 9 -21 23 -25 34 -9 37 -8 37 14 0 13 5
18 15 14 9 -4 14 -14 13 -23 -2 -10 3 -15 12 -13 8 2 21 -5 28 -15 13 -16 14
-16 9 0 -5 12 -1 17 11 18 9 0 3 5 -14 10 -34 10 -55 39 -27 39 12 0 13 3 3
15 -9 10 -24 13 -55 8 -24 -3 -45 -1 -49 5 -3 6 9 9 32 8 34 -1 37 1 40 30 3
29 1 32 -37 38 -28 4 -41 11 -41 22 0 14 2 14 16 0 26 -26 50 -20 48 12 -1 15
-3 29 -4 32 -1 3 -2 8 -1 13 2 11 -17 9 -21 -3 -1 -5 -12 -7 -24 -4 -18 5 -20
12 -16 60 3 45 1 54 -12 54 -24 0 -33 -31 -13 -42 22 -12 22 -32 0 -24 -9 4
-20 1 -25 -6 -6 -10 -8 -8 -8 5 0 12 -8 17 -30 17 -16 0 -30 5 -30 10 0 6 -7
10 -15 10 -20 0 30 57 56 65 11 4 19 13 19 20 0 8 8 22 18 32 42 41 113 167
127 224 4 18 1 32 -10 43 -24 23 -39 15 -43 -22 -2 -18 -7 -32 -13 -32 -5 0
-9 -9 -9 -20 0 -11 -18 -39 -40 -61 -22 -23 -40 -50 -40 -60 0 -11 -4 -19 -9
-19 -4 0 -21 -12 -36 -26 -16 -15 -25 -19 -22 -10 4 10 1 16 -8 16 -8 0 -15 5
-15 11 0 5 6 7 13 3 6 -4 4 2 -6 13 -17 20 -17 20 8 16 15 -3 25 -1 25 6 0 6
-7 11 -15 11 -17 0 -20 16 -5 25 6 4 7 12 1 23 -6 11 -4 20 7 30 15 12 15 13
-5 9 -27 -6 -22 9 24 77 18 26 33 56 33 67 0 10 5 21 10 24 13 8 13 52 0 60
-16 10 -50 -14 -50 -36 0 -12 -5 -19 -12 -17 -7 3 -13 15 -13 29 0 17 -6 25
-21 27 -18 3 -21 -1 -17 -22z m-12 -316 c3 -5 2 -10 -4 -10 -5 0 -13 5 -16 10
-3 6 -2 10 4 10 5 0 13 -4 16 -10z m-115 -109 c0 -12 -26 -32 -33 -25 -6 7 14
33 26 34 4 0 7 -4 7 -9z m76 -38 c-4 -4 -23 -6 -42 -4 -22 1 -34 -2 -34 -10 0
-9 17 -10 65 -5 42 4 65 3 65 -4 0 -5 -7 -10 -15 -10 -10 0 -15 -10 -15 -30 0
-46 -44 -36 -45 10 0 10 -10 15 -30 14 -26 -1 -31 3 -33 22 -2 22 2 24 45 24
25 0 43 -3 39 -7z m-96 -53 c0 -5 -4 -10 -10 -10 -5 0 -10 5 -10 10 0 6 5 10
10 10 6 0 10 -4 10 -10z m-365 -10 c3 -5 1 -10 -4 -10 -6 0 -11 5 -11 10 0 6
2 10 4 10 3 0 8 -4 11 -10z m524 -33 c-5 -17 -9 -32 -9 -33 0 -1 9 -4 20 -7
11 -3 20 -11 20 -19 0 -10 -2 -10 -9 1 -8 12 -13 12 -34 -2 -27 -18 -39 -14
-30 11 4 10 2 13 -5 8 -7 -4 -12 -1 -12 8 0 9 -5 16 -12 16 -6 0 -8 3 -5 6 4
4 13 1 21 -5 20 -17 33 -7 41 29 4 17 10 28 15 25 5 -3 4 -20 -1 -38z m81 -7
c0 -11 7 -20 15 -20 8 0 15 -4 15 -10 0 -5 -9 -10 -20 -10 -23 0 -26 -10 -8
-28 14 -14 11 -17 -22 -27 -21 -7 -23 -5 -13 6 15 19 19 51 8 68 -5 10 -4 16
3 19 7 2 10 8 6 13 -3 5 0 9 5 9 6 0 11 -9 11 -20z m-45 -10 c3 -5 -1 -10 -10
-10 -9 0 -13 5 -10 10 3 6 8 10 10 10 2 0 7 -4 10 -10z m-31 -75 c3 -8 1 -15
-4 -15 -6 0 -10 7 -10 15 0 8 2 15 4 15 2 0 6 -7 10 -15z m124 -38 c2 -52 -10
-61 -115 -92 -18 -5 -22 -3 -17 9 3 9 13 16 21 16 9 0 13 6 9 15 -3 8 -1 15 4
15 6 0 10 10 10 23 1 21 1 21 15 3 15 -20 29 -15 46 16 8 15 8 19 0 14 -13 -8
-14 -4 -5 18 10 26 31 1 32 -37z m-148 26 c0 -10 -4 -14 -8 -8 -4 6 -11 13
-16 18 -5 4 -2 7 7 7 10 0 17 -8 17 -17z m219 -42 c-6 -2 -15 3 -20 10 -15 24
-10 29 11 11 12 -10 16 -18 9 -21z m-4 -71 c3 -5 1 -10 -4 -10 -6 0 -11 5 -11
10 0 6 2 10 4 10 3 0 8 -4 11 -10z m195 -540 c0 -5 -11 -10 -25 -10 -14 0 -25
5 -25 10 0 6 11 10 25 10 14 0 25 -4 25 -10z m100 -10 c0 -5 -4 -10 -10 -10
-5 0 -10 5 -10 10 0 6 5 10 10 10 6 0 10 -4 10 -10z m10 -40 c0 -5 -7 -7 -15
-4 -8 4 -12 10 -9 15 6 11 24 2 24 -11z m110 8 c0 -6 -7 -8 -15 -4 -8 3 -15 1
-15 -3 0 -11 -38 -2 -45 10 -3 4 13 8 35 7 22 0 40 -5 40 -10z m-2515 -63
c-32 -26 -55 -32 -55 -14 0 5 4 8 8 5 4 -2 19 4 32 15 37 28 50 22 15 -6z"/>
<path d="M3280 1493 c0 -14 2 -15 9 -4 7 11 11 10 20 -5 11 -18 12 -18 9 1 -4
26 -38 33 -38 8z"/>
<path d="M3852 1485 c-11 -13 -9 -15 8 -15 11 0 20 7 20 15 0 19 -11 19 -28 0z"/>
<path d="M10671 1458 c0 -9 -4 -25 -7 -35 -5 -14 -4 -15 5 -7 7 7 11 22 8 35
-2 13 -5 16 -6 7z"/>
<path d="M6028 1403 c7 -3 16 -2 19 1 4 3 -2 6 -13 5 -11 0 -14 -3 -6 -6z"/>
<path d="M3823 1324 c-6 -14 -7 -26 -2 -30 5 -3 9 1 9 9 0 8 9 17 20 20 20 5
28 27 10 27 -5 0 -10 -6 -10 -12 0 -10 -2 -10 -8 -1 -5 8 -11 3 -19 -13z"/>
<path d="M3791 1304 c0 -11 3 -14 6 -6 3 7 2 16 -1 19 -3 4 -6 -2 -5 -13z"/>
<path d="M10740 1269 c0 -5 5 -7 10 -4 6 3 10 8 10 11 0 2 -4 4 -10 4 -5 0
-10 -5 -10 -11z"/>
<path d="M3980 1246 c0 -2 7 -7 16 -10 8 -3 12 -2 9 4 -6 10 -25 14 -25 6z"/>
<path d="M10870 1221 c0 -5 5 -13 10 -16 6 -3 10 -2 10 4 0 5 -4 13 -10 16 -5
3 -10 2 -10 -4z"/>
<path d="M3865 1210 c-3 -5 1 -10 9 -10 9 0 16 5 16 10 0 6 -4 10 -9 10 -6 0
-13 -4 -16 -10z"/>
<path d="M3912 1208 c5 -15 28 -23 28 -10 0 5 -7 13 -16 16 -10 4 -14 1 -12
-6z"/>
<path d="M10830 1190 c0 -5 7 -10 16 -10 8 0 12 5 9 10 -3 6 -10 10 -16 10 -5
0 -9 -4 -9 -10z"/>
<path d="M10427 1168 c-7 -24 8 -58 24 -58 6 0 8 7 5 16 -3 9 -6 27 -6 40 0
30 -16 32 -23 2z"/>
<path d="M10461 1174 c0 -11 3 -14 6 -6 3 7 2 16 -1 19 -3 4 -6 -2 -5 -13z"/>
<path d="M3890 1171 c0 -6 4 -12 9 -15 5 -4 8 -21 7 -39 -3 -31 -1 -33 23 -29
25 5 25 5 3 13 -12 5 -22 13 -22 19 0 6 4 9 8 6 4 -2 9 7 10 22 1 21 0 24 -8
12 -8 -13 -10 -12 -10 3 0 9 -4 17 -10 17 -5 0 -10 -4 -10 -9z"/>
<path d="M10910 1170 c0 -5 5 -10 11 -10 5 0 7 5 4 10 -3 6 -8 10 -11 10 -2 0
-4 -4 -4 -10z"/>
<path d="M9571 1144 c0 -11 3 -14 6 -6 3 7 2 16 -1 19 -3 4 -6 -2 -5 -13z"/>
<path d="M10018 1153 c7 -3 16 -2 19 1 4 3 -2 6 -13 5 -11 0 -14 -3 -6 -6z"/>
<path d="M10087 1140 c-3 -11 -1 -20 4 -20 5 0 9 9 9 20 0 11 -2 20 -4 20 -2
0 -6 -9 -9 -20z"/>
<path d="M10838 1153 c7 -3 16 -2 19 1 4 3 -2 6 -13 5 -11 0 -14 -3 -6 -6z"/>
<path d="M11397 1133 c-5 -29 12 -65 28 -60 5 2 9 14 7 27 -2 14 0 20 7 16 7
-5 11 3 11 18 0 21 -5 26 -24 26 -18 0 -25 -7 -29 -27z"/>
<path d="M9520 1134 c0 -10 -3 -55 -6 -99 -4 -74 -4 -78 11 -60 12 15 14 35 9
95 -5 70 -14 107 -14 64z"/>
<path d="M10586 1132 c-4 -13 -5 -26 -2 -29 10 -11 18 4 14 29 l-4 23 -8 -23z"/>
<path d="M10980 1140 c0 -14 15 -19 38 -13 32 8 27 20 -8 21 -16 0 -30 -3 -30
-8z"/>
<path d="M10792 1131 c-11 -7 -11 -9 2 -14 10 -4 16 -1 16 8 0 17 -1 17 -18 6z"/>
<path d="M3865 1120 c-3 -5 -1 -10 4 -10 6 0 11 5 11 10 0 6 -2 10 -4 10 -3 0
-8 -4 -11 -10z"/>
<path d="M10046 1122 c-4 -7 -16 -12 -28 -12 -18 0 -19 -2 -7 -17 12 -14 12
-16 -2 -11 -9 3 -22 2 -30 -4 -11 -8 -10 -9 4 -4 9 3 17 0 17 -6 0 -9 3 -9 11
-1 7 7 24 9 39 6 16 -3 31 0 35 6 5 8 -2 10 -22 5 -25 -7 -27 -6 -15 9 8 9 12
22 10 29 -3 9 -6 9 -12 0z"/>
<path d="M10170 1109 c0 -5 5 -7 10 -4 6 3 10 8 10 11 0 2 -4 4 -10 4 -5 0
-10 -5 -10 -11z"/>
<path d="M10711 1104 c0 -11 3 -14 6 -6 3 7 2 16 -1 19 -3 4 -6 -2 -5 -13z"/>
<path d="M10840 1110 c0 -5 4 -10 9 -10 6 0 13 5 16 10 3 6 -1 10 -9 10 -9 0
-16 -4 -16 -10z"/>
<path d="M10100 1100 c0 -5 5 -10 10 -10 6 0 10 5 10 10 0 6 -4 10 -10 10 -5
0 -10 -4 -10 -10z"/>
<path d="M3968 1093 c7 -3 16 -2 19 1 4 3 -2 6 -13 5 -11 0 -14 -3 -6 -6z"/>
<path d="M10367 1094 c-8 -8 1 -24 14 -24 5 0 9 7 9 15 0 15 -12 20 -23 9z"/>
<path d="M10612 1085 c-11 -12 -10 -15 3 -15 8 0 15 7 15 15 0 18 -2 18 -18 0z"/>
<path d="M4001 1074 c0 -11 3 -14 6 -6 3 7 2 16 -1 19 -3 4 -6 -2 -5 -13z"/>
<path d="M10647 1083 c-4 -3 -7 -13 -7 -21 0 -12 3 -12 15 -2 8 7 15 16 15 21
0 11 -14 12 -23 2z"/>
<path d="M3913 1040 c0 -20 3 -26 9 -18 10 17 10 48 0 48 -5 0 -9 -14 -9 -30z"/>
<path d="M3970 1055 c0 -8 5 -15 10 -15 6 0 10 7 10 15 0 8 -4 15 -10 15 -5 0
-10 -7 -10 -15z"/>
<path d="M4080 1066 c0 -2 7 -6 15 -10 8 -3 15 -1 15 4 0 6 -7 10 -15 10 -8 0
-15 -2 -15 -4z"/>
<path d="M10705 1060 c-4 -6 3 -10 14 -10 25 0 27 6 6 13 -8 4 -17 2 -20 -3z"/>
<path d="M11330 1030 c0 -5 5 -10 11 -10 5 0 7 5 4 10 -3 6 -8 10 -11 10 -2 0
-4 -4 -4 -10z"/>
<path d="M3592 990 c-7 -11 -8 -20 -3 -20 9 0 24 30 18 36 -1 2 -8 -6 -15 -16z"/>
<path d="M3960 1000 c-8 -5 -12 -12 -9 -15 4 -3 12 1 19 10 14 17 11 19 -10 5z"/>
<path d="M9759 986 c16 -19 44 -21 39 -3 -3 6 -15 14 -28 15 -21 3 -22 2 -11
-12z"/>
<path d="M10820 984 c0 -9 -6 -14 -13 -11 -8 3 -13 -2 -12 -12 1 -21 45 -67
46 -48 0 6 5 1 11 -13 10 -23 11 -23 16 -5 2 11 9 23 16 28 8 5 7 10 -4 17
-12 7 -12 12 -2 22 18 18 15 30 -7 23 -11 -3 -22 -1 -26 5 -10 15 -25 12 -25
-6z"/>
<path d="M11318 993 c7 -3 16 -2 19 1 4 3 -2 6 -13 5 -11 0 -14 -3 -6 -6z"/>
<path d="M4040 980 c0 -5 5 -10 10 -10 6 0 10 5 10 10 0 6 -4 10 -10 10 -5 0
-10 -4 -10 -10z"/>
<path d="M11620 975 c-7 -8 -28 -15 -46 -15 -26 0 -32 -4 -28 -15 13 -32 113
1 114 38 0 13 -27 8 -40 -8z"/>
<path d="M10740 960 c0 -5 4 -10 9 -10 6 0 13 5 16 10 3 6 -1 10 -9 10 -9 0
-16 -4 -16 -10z"/>
<path d="M11294 946 c-22 -17 -11 -35 13 -20 19 12 29 34 16 34 -5 0 -18 -6
-29 -14z"/>
<path d="M3940 945 c0 -13 24 -55 32 -55 5 0 6 6 1 13 -4 6 -6 20 -5 30 2 10
-3 17 -12 17 -9 0 -16 -2 -16 -5z"/>
<path d="M11666 935 c-3 -8 -1 -15 4 -15 6 0 10 7 10 15 0 8 -2 15 -4 15 -2 0
-6 -7 -10 -15z"/>
<path d="M3986 915 c7 -17 20 -20 28 -6 3 5 -1 12 -10 15 -22 9 -24 8 -18 -9z"/>
<path d="M4050 926 c0 -2 8 -12 17 -22 13 -13 14 -19 5 -22 -6 -2 -12 -10 -12
-18 0 -9 5 -12 10 -9 6 3 10 2 10 -4 0 -5 -5 -11 -11 -13 -7 -2 -6 -8 4 -16
13 -11 15 -5 13 45 -1 46 -4 58 -18 61 -10 2 -18 1 -18 -2z"/>
<path d="M3785 911 c3 -6 -3 -14 -12 -20 -16 -9 -16 -10 5 -11 15 0 22 6 22
20 0 11 -5 20 -11 20 -5 0 -8 -4 -4 -9z"/>
<path d="M10886 913 c-12 -12 -5 -23 14 -23 11 0 20 4 20 9 0 11 -26 22 -34
14z"/>
<path d="M10966 905 c4 -8 10 -12 15 -9 14 8 10 24 -6 24 -9 0 -12 -6 -9 -15z"/>
<path d="M11515 910 c-3 -5 -1 -10 4 -10 6 0 11 5 11 10 0 6 -2 10 -4 10 -3 0
-8 -4 -11 -10z"/>
<path d="M3850 902 c0 -4 9 -8 20 -9 11 -1 20 2 20 5 0 4 -9 8 -20 9 -11 1
-20 -2 -20 -5z"/>
<path d="M10942 888 c-17 -17 -15 -31 3 -24 8 3 15 1 15 -4 0 -19 -22 -21 -47
-5 -29 19 -50 8 -39 -22 6 -14 9 -15 16 -4 7 12 11 12 24 -2 12 -11 13 -17 3
-20 -6 -2 -9 -7 -6 -11 6 -7 52 7 49 14 -1 3 2 13 5 22 4 10 3 29 -2 43 -6 20
-11 23 -21 13z"/>
<path d="M11460 880 c0 -5 5 -10 11 -10 5 0 7 5 4 10 -3 6 -8 10 -11 10 -2 0
-4 -4 -4 -10z"/>
<path d="M3580 872 c0 -5 7 -9 15 -9 8 0 15 4 15 9 0 4 -7 8 -15 8 -8 0 -15
-4 -15 -8z"/>
<path d="M3986 871 c-3 -5 -16 -7 -29 -4 -22 5 -22 5 -2 -10 20 -16 55 -7 55
13 0 13 -17 13 -24 1z"/>
<path d="M3620 860 c0 -6 7 -10 15 -10 8 0 15 2 15 4 0 2 -7 6 -15 10 -8 3
-15 1 -15 -4z"/>
<path d="M3771 854 c0 -11 3 -14 6 -6 3 7 2 16 -1 19 -3 4 -6 -2 -5 -13z"/>
<path d="M3836 854 c-8 -20 -8 -24 2 -24 4 0 8 9 9 20 2 24 -3 26 -11 4z"/>
<path d="M10839 855 c-1 -11 -1 -24 0 -29 1 -5 -4 -13 -11 -17 -10 -6 -10 -11
-1 -20 7 -7 15 -10 18 -7 10 10 13 65 4 79 -7 11 -9 10 -10 -6z"/>
<path d="M11720 863 c0 -5 7 -18 15 -29 14 -18 15 -18 11 5 -3 23 -26 44 -26
24z"/>
<path d="M11458 853 c6 -2 18 -2 25 0 6 3 1 5 -13 5 -14 0 -19 -2 -12 -5z"/>
<path d="M3750 830 c6 -11 12 -20 14 -20 2 0 2 9 -1 20 -3 11 -9 20 -15 20 -5
0 -4 -9 2 -20z"/>
<path d="M3544 808 c-12 -23 -12 -31 1 -61 8 -20 20 -39 25 -42 6 -4 10 -17 9
-28 -3 -28 10 -67 22 -67 5 0 9 -7 9 -16 0 -14 -2 -14 -15 0 -16 15 -45 12
-45 -5 0 -5 -11 -7 -25 -5 -26 5 -31 -5 -26 -64 1 -20 -1 -22 -9 -10 -7 11
-12 12 -18 3 -9 -15 -26 -4 -30 20 -2 14 2 18 20 15 17 -2 23 2 23 17 0 11 10
24 23 30 35 16 26 25 -26 25 -59 0 -72 -12 -72 -65 0 -49 22 -75 63 -75 15 0
27 -6 27 -12 0 -10 2 -10 8 -1 4 6 19 9 34 6 28 -5 31 -10 52 -107 6 -24 9
-26 19 -13 7 9 23 17 36 19 30 4 41 28 13 28 -11 0 -22 -6 -25 -12 -2 -7 -8
-9 -13 -5 -5 5 -1 15 10 23 18 13 18 14 1 20 -14 6 -16 15 -11 55 5 34 3 48
-6 52 -10 4 -11 7 0 18 6 7 12 21 12 31 0 17 21 23 70 19 23 -2 43 15 35 29
-5 8 -10 9 -18 1 -15 -15 -24 -14 -30 3 -4 10 0 12 14 9 12 -3 19 0 19 8 0 10
3 10 12 1 16 -16 28 -15 28 3 0 8 6 15 13 15 25 0 -18 20 -45 20 -21 0 -25 4
-21 20 3 11 9 20 14 20 5 0 9 5 9 10 0 6 -28 10 -64 10 -64 0 -65 0 -63 27 2
20 -4 28 -23 35 -25 7 -25 8 3 4 15 -2 27 2 27 8 0 6 5 3 11 -6 7 -12 6 -24
-1 -38 -6 -11 -7 -20 -3 -20 13 0 46 60 38 68 -4 4 -27 7 -52 7 -39 0 -47 -4
-59 -27z m106 12 c0 -5 -4 -10 -10 -10 -5 0 -10 5 -10 10 0 6 5 10 10 10 6 0
10 -4 10 -10z m40 -90 c0 -5 -5 -10 -11 -10 -5 0 -7 5 -4 10 3 6 8 10 11 10 2
0 4 -4 4 -10z m-166 -175 c3 -8 1 -15 -4 -15 -6 0 -10 7 -10 15 0 8 2 15 4 15
2 0 6 -7 10 -15z m61 5 c3 -5 -1 -10 -9 -10 -9 0 -16 5 -16 10 0 6 4 10 9 10
6 0 13 -4 16 -10z m-20 -29 c3 -5 1 -12 -5 -16 -5 -3 -10 1 -10 9 0 18 6 21
15 7z m-40 -31 c3 -5 1 -10 -4 -10 -6 0 -11 5 -11 10 0 6 2 10 4 10 3 0 8 -4
11 -10z m83 -55 c-3 -3 -9 2 -12 12 -6 14 -5 15 5 6 7 -7 10 -15 7 -18z"/>
<path d="M3921 824 c0 -11 3 -14 6 -6 3 7 2 16 -1 19 -3 4 -6 -2 -5 -13z"/>
<path d="M9383 825 c-7 -19 1 -28 27 -32 21 -3 24 5 14 31 -8 20 -33 21 -41 1z"/>
<path d="M10792 826 c7 -8 15 -12 17 -11 5 6 -10 25 -20 25 -5 0 -4 -6 3 -14z"/>
<path d="M11448 822 c-7 -11 -20 -21 -28 -25 -13 -5 -13 -6 1 -6 14 -1 59 33
59 44 0 12 -20 3 -32 -13z"/>
<path d="M3880 816 c0 -8 5 -18 10 -21 6 -3 10 1 10 9 0 8 -4 18 -10 21 -5 3
-10 -1 -10 -9z"/>
<path d="M4023 793 c-7 -15 -11 -29 -8 -31 9 -9 35 20 35 39 0 27 -13 23 -27
-8z"/>
<path d="M11685 789 c-12 -19 5 -23 22 -6 16 16 16 17 1 17 -9 0 -20 -5 -23
-11z"/>
<path d="M3741 774 c0 -11 3 -14 6 -6 3 7 2 16 -1 19 -3 4 -6 -2 -5 -13z"/>
<path d="M3920 770 c0 -19 3 -21 12 -12 9 9 9 15 0 24 -9 9 -12 7 -12 -12z"/>
<path d="M11511 774 c0 -11 3 -14 6 -6 3 7 2 16 -1 19 -3 4 -6 -2 -5 -13z"/>
<path d="M3850 749 c0 -5 5 -7 10 -4 6 3 10 8 10 11 0 2 -4 4 -10 4 -5 0 -10
-5 -10 -11z"/>
<path d="M4184 749 c-3 -6 -1 -16 5 -22 8 -8 11 -5 11 11 0 24 -5 28 -16 11z"/>
<path d="M11468 748 c9 -9 15 -9 24 0 9 9 7 12 -12 12 -19 0 -21 -3 -12 -12z"/>
<path d="M4117 742 c-8 -12 4 -62 15 -62 5 0 6 -4 3 -10 -9 -15 4 -30 21 -23
11 4 12 9 3 19 -7 9 -8 14 -1 14 5 0 8 9 5 20 -3 11 -9 20 -14 20 -5 0 -9 7
-9 15 0 16 -15 21 -23 7z"/>
<path d="M11410 731 c0 -9 30 -24 36 -18 2 1 -6 8 -16 15 -11 7 -20 8 -20 3z"/>
<path d="M3735 710 c3 -5 10 -10 16 -10 5 0 9 5 9 10 0 6 -7 10 -16 10 -8 0
-12 -4 -9 -10z"/>
<path d="M4038 713 c7 -3 16 -2 19 1 4 3 -2 6 -13 5 -11 0 -14 -3 -6 -6z"/>
<path d="M11460 706 c0 -9 30 -14 35 -6 4 6 -3 10 -14 10 -12 0 -21 -2 -21 -4z"/>
<path d="M3795 680 c-3 -5 -1 -10 4 -10 6 0 11 5 11 10 0 6 -2 10 -4 10 -3 0
-8 -4 -11 -10z"/>
<path d="M11431 666 c-9 -10 -8 -15 4 -20 10 -4 15 1 15 14 0 24 -4 25 -19 6z"/>
<path d="M11525 670 c4 -6 11 -8 16 -5 14 9 11 15 -7 15 -8 0 -12 -5 -9 -10z"/>
<path d="M11500 660 c0 -5 5 -10 11 -10 5 0 7 5 4 10 -3 6 -8 10 -11 10 -2 0
-4 -4 -4 -10z"/>
<path d="M11302 638 c2 -13 10 -23 18 -23 8 0 16 10 18 23 3 17 -2 22 -18 22
-16 0 -21 -5 -18 -22z"/>
<path d="M11360 631 c0 -5 7 -14 15 -21 8 -7 15 -16 15 -21 0 -5 -7 -9 -15 -9
-8 0 -15 -4 -15 -10 0 -18 32 -10 37 9 3 11 10 22 17 24 6 2 3 3 -6 2 -10 -2
-20 5 -23 16 -6 19 -25 27 -25 10z"/>
<path d="M11480 626 c0 -9 5 -16 10 -16 6 0 10 4 10 9 0 6 -4 13 -10 16 -5 3
-10 -1 -10 -9z"/>
<path d="M11510 610 c-6 -11 -7 -20 -2 -20 5 0 14 -10 21 -22 11 -23 11 -23 5
2 -3 14 -6 33 -7 43 -2 22 -4 21 -17 -3z"/>
<path d="M3670 585 c-7 -9 -8 -15 -2 -15 5 0 12 7 16 15 3 8 4 15 2 15 -2 0
-9 -7 -16 -15z"/>
<path d="M4264 586 c-4 -10 -2 -22 4 -28 8 -8 13 -7 18 6 4 10 2 22 -4 28 -8
8 -13 7 -18 -6z"/>
<path d="M11230 589 c0 -6 7 -9 15 -5 9 3 15 0 15 -9 0 -16 9 -18 50 -15 29 2
17 -15 -15 -23 -11 -3 -1 -5 23 -6 35 -1 42 -4 42 -21 0 -11 -5 -20 -11 -20
-6 0 -9 7 -5 15 7 19 -30 21 -38 3 -5 -10 -7 -10 -12 0 -8 18 -25 15 -22 -4 2
-10 -3 -19 -10 -21 -9 -4 -11 2 -7 20 6 22 4 25 -14 20 -12 -3 -21 -11 -21
-17 0 -25 26 -36 82 -36 34 0 58 -4 58 -11 0 -5 4 -8 9 -4 6 3 14 -3 20 -12 9
-16 10 -16 11 -1 0 9 -7 23 -15 32 -8 8 -15 25 -15 38 0 14 -9 34 -20 46 -24
26 -25 29 -2 35 9 3 -13 5 -50 6 -44 1 -68 -3 -68 -10z m90 -3 c0 -11 -19 -15
-25 -6 -3 5 1 10 9 10 9 0 16 -2 16 -4z"/>
<path d="M3760 576 c0 -9 5 -16 10 -16 6 0 10 4 10 9 0 6 -4 13 -10 16 -5 3
-10 -1 -10 -9z"/>
<path d="M11441 574 c0 -11 3 -14 6 -6 3 7 2 16 -1 19 -3 4 -6 -2 -5 -13z"/>
<path d="M3895 569 c-19 -9 -19 -9 2 -5 15 2 23 -2 26 -15 3 -11 11 -19 19
-18 10 0 10 2 1 6 -7 2 -13 13 -13 24 0 21 -5 22 -35 8z"/>
<path d="M11421 564 c0 -11 3 -14 6 -6 3 7 2 16 -1 19 -3 4 -6 -2 -5 -13z"/>
<path d="M11220 550 c0 -5 9 -10 20 -10 11 0 20 5 20 10 0 6 -9 10 -20 10 -11
0 -20 -4 -20 -10z"/>
<path d="M11487 540 c-7 -28 -6 -32 9 -22 6 4 8 16 4 26 -6 18 -7 18 -13 -4z"/>
<path d="M1321 534 c0 -11 3 -14 6 -6 3 7 2 16 -1 19 -3 4 -6 -2 -5 -13z"/>
<path d="M11433 536 c-9 -11 -8 -15 6 -19 11 -3 17 2 18 14 2 22 -7 24 -24 5z"/>
<path d="M3697 519 c7 -7 15 -10 18 -7 3 3 -2 9 -12 12 -14 6 -15 5 -6 -5z"/>
<path d="M3755 520 c-3 -5 -2 -10 4 -10 5 0 13 5 16 10 3 6 2 10 -4 10 -5 0
-13 -4 -16 -10z"/>
<path d="M3651 504 c0 -11 3 -14 6 -6 3 7 2 16 -1 19 -3 4 -6 -2 -5 -13z"/>
<path d="M3795 510 c3 -5 8 -10 11 -10 2 0 4 5 4 10 0 6 -5 10 -11 10 -5 0 -7
-4 -4 -10z"/>
<path d="M3852 508 c-19 -19 -14 -33 6 -16 9 9 24 18 32 21 11 4 9 6 -5 6 -12
1 -26 -4 -33 -11z"/>
<path d="M3921 504 c0 -11 3 -14 6 -6 3 7 2 16 -1 19 -3 4 -6 -2 -5 -13z"/>
<path d="M3953 468 c2 -21 -1 -38 -5 -38 -4 0 -8 -4 -8 -10 0 -5 7 -10 15 -10
17 0 19 42 4 75 -7 16 -8 12 -6 -17z"/>
<path d="M11421 484 c0 -11 3 -14 6 -6 3 7 2 16 -1 19 -3 4 -6 -2 -5 -13z"/>
<path d="M3745 480 c3 -5 8 -10 11 -10 2 0 4 5 4 10 0 6 -5 10 -11 10 -5 0 -7
-4 -4 -10z"/>
<path d="M3795 481 c-3 -5 -1 -12 5 -16 5 -3 10 1 10 9 0 18 -6 21 -15 7z"/>
<path d="M3882 471 c2 -7 7 -12 11 -12 12 1 9 15 -3 20 -7 2 -11 -2 -8 -8z"/>
<path d="M11465 466 c-5 -12 -3 -21 6 -27 8 -4 14 -14 14 -20 0 -7 5 -14 12
-16 7 -3 11 4 10 16 -1 12 -7 21 -13 21 -7 0 -14 10 -17 23 -3 20 -4 20 -12 3z"/>
<path d="M11568 458 c12 -12 25 -19 28 -15 4 4 -1 14 -12 22 -29 22 -41 18
-16 -7z"/>
<path d="M3663 448 c1 -16 5 -28 9 -28 10 0 9 9 -2 35 -8 17 -8 16 -7 -7z"/>
<path d="M3700 460 c0 -5 5 -10 11 -10 5 0 7 5 4 10 -3 6 -8 10 -11 10 -2 0
-4 -4 -4 -10z"/>
<path d="M11680 460 c0 -6 -10 -15 -22 -20 -21 -8 -21 -9 -3 -9 15 -1 16 -4 7
-13 -18 -18 -15 -41 4 -34 12 5 14 3 8 -6 -5 -7 -9 -20 -8 -28 1 -8 2 -21 3
-27 1 -18 26 -16 42 3 11 13 10 23 -5 62 -10 26 -18 55 -18 65 0 9 -1 17 -4
17 -2 0 -4 -5 -4 -10z"/>
<path d="M3630 450 c0 -5 5 -10 10 -10 6 0 10 5 10 10 0 6 -4 10 -10 10 -5 0
-10 -4 -10 -10z"/>
<path d="M11298 453 c-23 -4 -28 -9 -27 -31 2 -24 2 -24 6 -4 5 23 38 31 45
10 6 -17 36 -18 42 -1 4 11 2 13 -9 9 -8 -3 -14 0 -12 6 3 13 -10 16 -45 11z"/>
<path d="M3910 415 c0 -14 4 -25 9 -25 5 0 8 11 7 25 -1 33 -16 33 -16 0z"/>
<path d="M11370 406 c0 -25 12 -46 25 -46 7 0 15 -5 17 -11 2 -6 3 8 3 30 0
44 -11 55 -18 19 l-4 -23 -2 23 c-1 24 -21 31 -21 8z"/>
<path d="M11438 413 c7 -3 16 -2 19 1 4 3 -2 6 -13 5 -11 0 -14 -3 -6 -6z"/>
<path d="M11610 410 c0 -5 4 -10 9 -10 6 0 13 5 16 10 3 6 -1 10 -9 10 -9 0
-16 -4 -16 -10z"/>
<path d="M3881 378 c-1 -9 -10 -20 -22 -23 -29 -10 -18 -16 13 -7 20 6 24 11
17 27 -6 16 -8 17 -8 3z"/>
<path d="M9205 380 c3 -5 11 -10 16 -10 6 0 7 5 4 10 -3 6 -11 10 -16 10 -6 0
-7 -4 -4 -10z"/>
<path d="M11455 380 c-3 -5 1 -10 10 -10 9 0 13 5 10 10 -3 6 -8 10 -10 10 -2
0 -7 -4 -10 -10z"/>
<path d="M11497 383 c-3 -5 1 -13 8 -20 10 -10 14 -9 19 3 3 9 6 18 6 20 0 7
-29 4 -33 -3z"/>
<path d="M11600 386 c0 -9 34 -46 42 -46 5 0 8 9 8 20 0 11 -4 20 -9 20 -5 0
-16 3 -25 6 -9 3 -16 3 -16 0z"/>
<path d="M12006 375 c-8 -8 -30 -15 -48 -15 -29 0 -33 -3 -33 -25 0 -14 5 -25
10 -25 10 0 15 -19 15 -67 0 -37 18 -36 64 3 59 49 74 77 52 99 -9 9 -16 23
-16 31 0 18 -25 18 -44 -1z m-26 -45 c0 -5 -2 -10 -4 -10 -3 0 -8 5 -11 10 -3
6 -1 10 4 10 6 0 11 -4 11 -10z"/>
<path d="M3677 366 c-4 -10 0 -12 14 -9 22 6 26 23 5 23 -8 0 -16 -6 -19 -14z"/>
<path d="M3780 365 c0 -9 5 -15 11 -13 6 2 11 8 11 13 0 5 -5 11 -11 13 -6 2
-11 -4 -11 -13z"/>
<path d="M11560 360 c-23 -7 -23 -8 -3 -9 12 -1 25 4 28 9 3 6 5 10 3 9 -2 -1
-14 -5 -28 -9z"/>
<path d="M3753 325 c0 -22 2 -30 4 -17 2 12 2 30 0 40 -3 9 -5 -1 -4 -23z"/>
<path d="M3885 330 c-3 -5 -1 -10 4 -10 6 0 11 5 11 10 0 6 -2 10 -4 10 -3 0
-8 -4 -11 -10z"/>
<path d="M11840 330 c0 -12 17 -12 45 0 17 7 15 9 -12 9 -18 1 -33 -3 -33 -9z"/>
<path d="M3827 300 c-3 -11 -1 -20 4 -20 4 0 7 -6 5 -12 -1 -7 -1 -10 1 -6 2
4 11 4 19 1 8 -3 14 -1 14 5 0 5 -7 13 -16 16 -9 4 -14 13 -10 21 3 8 2 15 -3
15 -5 0 -11 -9 -14 -20z"/>
<path d="M11740 300 c0 -5 5 -10 10 -10 6 0 10 5 10 10 0 6 -4 10 -10 10 -5 0
-10 -4 -10 -10z"/>
<path d="M11420 286 c0 -9 5 -16 10 -16 6 0 10 4 10 9 0 6 -4 13 -10 16 -5 3
-10 -1 -10 -9z"/>
<path d="M11620 290 c0 -5 7 -10 15 -10 8 0 15 5 15 10 0 6 -7 10 -15 10 -8 0
-15 -4 -15 -10z"/>
<path d="M11680 285 c-14 -16 -3 -20 19 -6 8 5 9 11 3 15 -5 3 -15 -1 -22 -9z"/>
<path d="M11510 280 c0 -6 4 -8 10 -5 6 3 7 -1 4 -9 -3 -9 -15 -16 -25 -16
-10 0 -19 -4 -19 -10 0 -5 9 -10 20 -10 11 0 20 5 20 11 0 6 9 8 20 4 17 -5
19 -3 11 17 -9 24 -41 38 -41 18z"/>
<path d="M11584 277 c3 -10 6 -23 6 -28 0 -5 5 -9 10 -9 14 0 12 13 -6 36 -14
17 -15 17 -10 1z"/>
<path d="M3750 270 c0 -6 7 -10 15 -10 8 0 15 2 15 4 0 2 -7 6 -15 10 -8 3
-15 1 -15 -4z"/>
<path d="M3915 270 c3 -5 8 -10 11 -10 2 0 4 5 4 10 0 6 -5 10 -11 10 -5 0 -7
-4 -4 -10z"/>
<path d="M11320 254 c0 -8 5 -12 10 -9 6 3 10 10 10 16 0 5 -4 9 -10 9 -5 0
-10 -7 -10 -16z"/>
<path d="M3600 227 c0 -15 4 -27 10 -27 5 0 9 9 7 20 -5 31 -17 36 -17 7z"/>
<path d="M11436 235 c4 -8 11 -15 16 -15 6 0 5 6 -2 15 -7 8 -14 15 -16 15 -2
0 -1 -7 2 -15z"/>
<path d="M12272 213 c2 -19 10 -29 23 -31 16 -2 20 3 21 28 1 25 -3 30 -23 30
-21 0 -24 -4 -21 -27z"/>
<path d="M11663 223 c-7 -3 -13 -11 -13 -18 0 -14 33 -26 47 -16 14 8 -19 39
-34 34z"/>
<path d="M3494 181 c3 -5 15 -7 26 -4 28 7 25 13 -6 13 -14 0 -23 -4 -20 -9z"/>
<path d="M12254 155 c-10 -8 -14 -15 -8 -15 5 0 19 7 30 15 10 8 14 15 8 15
-5 0 -19 -7 -30 -15z"/>
<path d="M12177 140 c-16 -19 -16 -20 3 -20 11 0 20 -4 20 -9 0 -6 -28 -8 -62
-6 -35 1 -55 1 -45 -2 9 -2 17 -8 17 -13 0 -13 -39 -16 -85 -9 -22 4 -48 3
-57 -2 -12 -6 -25 -6 -37 1 -26 13 -31 13 -31 -4 0 -8 -8 -17 -17 -19 -10 -3
-2 -3 18 -2 19 1 49 -3 65 -10 16 -7 42 -11 57 -9 15 1 29 -2 32 -7 4 -5 11
-9 16 -9 6 0 7 6 3 13 -6 9 -4 9 7 1 15 -12 83 -13 95 -1 4 3 18 4 32 0 17 -4
23 -2 18 6 -5 8 0 8 20 1 22 -9 29 -8 36 5 8 13 11 13 23 2 19 -19 75 -10 75
13 0 14 -10 16 -74 15 -71 -2 -74 -1 -90 26 -15 26 -16 30 -2 35 9 3 16 10 16
15 0 17 -35 9 -53 -11z"/>
<path d="M3397 128 c-7 -25 0 -41 14 -33 12 8 12 55 0 55 -5 0 -11 -10 -14
-22z"/>
<path d="M3695 140 c3 -5 10 -10 16 -10 5 0 9 5 9 10 0 6 -7 10 -16 10 -8 0
-12 -4 -9 -10z"/>
<path d="M3511 85 c0 -6 -13 -11 -28 -10 -28 1 -43 -10 -43 -30 0 -5 5 -3 10
5 5 8 10 10 10 5 0 -6 18 -11 40 -12 22 -1 40 3 40 8 0 6 -4 8 -9 4 -5 -3 -12
5 -14 17 -2 13 -5 18 -6 13z"/>
<path d="M8910 80 c0 -5 -7 -7 -15 -4 -10 4 -15 0 -15 -10 0 -14 -4 -15 -21
-6 -11 7 -24 9 -27 5 -12 -11 22 -24 58 -21 27 2 36 7 38 24 2 12 -1 22 -7 22
-6 0 -11 -4 -11 -10z"/>
<path d="M8940 66 c0 -14 5 -26 10 -26 6 0 10 9 10 19 0 11 -4 23 -10 26 -6 4
-10 -5 -10 -19z"/>
<path d="M8990 70 c0 -5 12 -10 28 -10 21 0 24 2 12 10 -20 13 -40 13 -40 0z"/>
<path d="M3641 54 c0 -11 3 -14 6 -6 3 7 2 16 -1 19 -3 4 -6 -2 -5 -13z"/>
<path d="M11868 33 c7 -3 16 -2 19 1 4 3 -2 6 -13 5 -11 0 -14 -3 -6 -6z"/>
<path d="M11923 33 c9 -2 25 -2 35 0 9 3 1 5 -18 5 -19 0 -27 -2 -17 -5z"/>
</g>
</svg>
