<?xml version="1.0" standalone="no"?>
<!DOCTYPE svg PUBLIC "-//W3C//DTD SVG 20010904//EN"
 "http://www.w3.org/TR/2001/REC-SVG-20010904/DTD/svg10.dtd">
<svg version="1.0" xmlns="http://www.w3.org/2000/svg"
 width="728.000000pt" height="1060.000000pt" viewBox="0 0 728.000000 1060.000000"
 preserveAspectRatio="xMidYMid meet">
<metadata>
Created by potrace 1.16, written by Peter Selinger 2001-2019
</metadata>
<g transform="translate(0.000000,1060.000000) scale(0.100000,-0.100000)"
fill="#000000" stroke="none">
<path d="M7007 10520 c-56 -118 -205 -397 -245 -460 -173 -273 -308 -451 -477
-628 -108 -113 -315 -302 -331 -302 -4 0 -4 44 -1 98 13 217 -27 572 -85 750
-31 94 -101 218 -117 208 -5 -3 -19 -32 -32 -63 -33 -84 -156 -331 -179 -361
-11 -13 -20 -29 -20 -33 0 -8 -28 -51 -130 -205 -19 -29 -49 -67 -65 -86 -17
-18 -52 -61 -79 -96 -55 -72 -297 -316 -371 -374 -142 -111 -258 -194 -325
-235 -41 -25 -88 -55 -104 -66 -26 -17 -39 -19 -115 -13 -171 12 -286 65 -330
149 -96 188 53 439 336 568 48 22 97 44 108 49 11 6 51 19 89 31 73 22 116 55
116 89 0 37 -71 192 -129 280 -119 181 -290 329 -519 447 -137 70 -301 137
-415 168 -51 14 -102 30 -114 35 -17 7 -39 0 -100 -30 -312 -157 -651 -461
-885 -794 -65 -92 -189 -307 -237 -411 -82 -176 -166 -437 -217 -673 -33 -153
-30 -150 -151 -178 -90 -21 -208 -12 -280 21 -89 41 -176 147 -219 268 -12 35
-11 49 11 141 32 138 88 329 132 451 59 168 214 462 285 543 15 18 26 37 24
41 -10 16 -283 -29 -397 -64 -285 -90 -493 -217 -747 -456 -156 -146 -236
-245 -260 -319 -171 -524 -32 -1272 401 -2143 l88 -179 -38 -42 c-185 -204
-409 -571 -518 -846 -49 -125 -109 -310 -102 -317 3 -3 43 26 89 64 102 86
267 211 373 284 99 69 265 172 269 168 7 -9 26 -190 26 -248 0 -77 -22 -165
-60 -247 -65 -136 -214 -226 -451 -274 -58 -11 -140 -58 -196 -112 -44 -43
-80 -128 -109 -264 -15 -72 -35 -135 -51 -162 l-26 -45 34 7 c19 3 52 20 75
36 l41 29 274 6 c151 3 299 8 329 11 90 9 281 43 453 81 89 19 173 38 187 40
24 4 27 0 39 -46 7 -28 25 -68 39 -88 23 -33 26 -48 26 -116 0 -71 -4 -84 -43
-162 -27 -53 -65 -107 -103 -147 -55 -57 -61 -68 -65 -114 -3 -28 0 -60 6 -72
6 -11 39 -39 73 -63 72 -48 168 -128 168 -139 0 -3 -21 -22 -47 -40 -27 -19
-79 -59 -118 -90 -38 -31 -117 -93 -175 -138 -58 -45 -109 -85 -115 -90 -48
-39 -264 -207 -377 -293 -76 -59 -155 -120 -176 -137 -20 -17 -59 -48 -87 -68
-59 -44 -169 -129 -206 -158 -125 -101 -172 -138 -273 -214 l-88 -67 5 -56 c5
-63 42 -141 84 -182 17 -15 53 -36 80 -47 l51 -19 87 67 c48 37 108 83 135
102 66 49 459 347 684 519 54 42 122 94 152 116 29 22 97 74 151 116 196 151
340 259 345 259 3 0 -3 -46 -12 -102 -16 -95 -35 -257 -60 -516 -5 -56 -10
-132 -10 -169 0 -71 5 -62 -139 -289 l-53 -85 11 -59 12 -59 -64 -133 c-76
-157 -164 -312 -218 -385 -22 -29 -39 -56 -39 -62 0 -5 -4 -11 -9 -13 -15 -5
-95 -139 -149 -246 -44 -88 -52 -112 -52 -160 0 -90 -26 -227 -54 -286 -35
-73 -35 -140 -1 -190 24 -36 24 -36 6 -68 -87 -151 -54 -372 68 -460 90 -64
319 -133 558 -168 254 -36 377 -41 943 -38 473 3 555 6 620 21 91 21 178 63
202 97 27 38 48 136 48 222 0 85 -36 259 -70 335 -16 37 -19 64 -17 172 l2
128 -37 55 c-20 30 -66 82 -102 114 -38 34 -66 67 -66 78 0 32 -49 106 -140
211 -48 55 -102 129 -121 165 -20 40 -61 92 -105 135 -48 48 -86 98 -120 160
-75 135 -74 133 -67 240 7 117 -11 195 -69 291 l-40 66 11 141 c16 229 71 446
162 649 39 87 47 98 70 98 23 0 27 6 40 63 l14 62 45 5 c37 4 48 11 68 40 20
29 33 37 90 51 86 20 233 84 275 119 36 30 91 70 96 70 3 0 47 -16 96 -36 50
-19 98 -38 108 -41 15 -5 13 -10 -17 -43 -23 -26 -38 -56 -46 -92 -13 -57 -13
-60 15 -256 17 -116 17 -133 2 -268 -10 -91 -21 -154 -31 -169 -22 -33 -21
-146 0 -191 22 -45 84 -96 165 -133 171 -80 496 -78 604 4 14 12 19 27 18 58
-2 74 -22 166 -48 217 -25 49 -33 90 -17 90 14 0 136 -143 192 -224 56 -81 68
-87 193 -102 51 -6 65 -14 169 -96 137 -109 154 -118 216 -118 38 0 68 10 138
46 102 52 129 54 264 15 144 -40 173 -31 317 96 117 103 206 246 236 379 l15
62 -39 103 c-42 109 -126 268 -192 359 -52 72 -347 365 -462 461 -49 41 -94
79 -100 85 -17 19 -190 166 -272 230 -107 84 -336 237 -450 300 -44 25 -52 34
-57 66 -7 41 -28 58 -72 58 -28 0 -53 24 -54 51 0 29 -36 50 -94 56 -76 8 -88
23 -84 107 l3 66 57 -40 57 -41 60 21 c70 23 82 24 151 8 46 -11 56 -18 84
-60 40 -61 70 -72 179 -63 65 5 92 3 127 -10 84 -31 83 -31 127 27 51 67 86
137 108 212 12 40 23 60 38 65 73 28 516 62 540 43 7 -6 55 -25 106 -42 113
-37 193 -39 307 -9 60 16 98 20 159 16 80 -4 174 -30 187 -51 5 -8 15 -8 37 1
29 11 33 9 64 -29 l34 -41 52 29 c29 15 56 36 61 45 5 9 12 54 15 100 7 101
12 119 30 119 7 0 23 12 34 26 27 35 28 102 1 154 -25 49 -55 70 -100 70 l-35
0 -1 133 c-2 122 -4 139 -33 215 -65 174 -179 286 -361 354 -57 21 -118 22
-213 4 -110 -21 -237 -92 -350 -195 l-57 -53 -47 38 c-57 49 -169 136 -294
230 l-97 73 -3 74 c-4 60 -11 87 -43 153 -21 43 -47 89 -58 100 -47 52 -46
270 2 364 53 103 174 185 320 216 103 22 128 18 272 -40 216 -88 422 -198 601
-319 88 -60 103 -67 147 -67 41 0 52 4 69 26 12 15 21 36 21 47 0 11 22 68 49
126 111 240 151 421 158 706 3 122 -1 214 -10 285 -8 58 -14 106 -13 107 2 2
49 15 107 29 202 50 318 93 351 130 9 10 44 69 77 129 72 128 119 265 156 455
37 186 46 530 21 783 -33 323 -173 1009 -207 1014 -9 1 -28 -28 -52 -77z m89
-212 c84 -490 117 -807 118 -1143 1 -356 -31 -565 -110 -724 -25 -51 -48 -90
-51 -87 -3 3 -1 18 6 33 20 51 79 356 95 494 20 175 21 486 2 649 -16 138 -73
397 -104 475 -19 48 -20 49 -30 25 -49 -126 -239 -517 -267 -550 -7 -8 -20
-30 -30 -49 -26 -51 -182 -288 -195 -296 -7 -4 -6 4 3 21 41 81 27 76 -74 -25
-298 -298 -625 -555 -1039 -818 -144 -91 -230 -143 -230 -139 0 3 62 48 138
100 146 102 244 176 388 295 125 104 146 124 344 321 177 176 254 259 247 266
-2 2 -35 -18 -73 -46 -38 -28 -100 -73 -139 -100 -38 -28 -77 -56 -85 -63 -62
-51 -300 -202 -565 -359 -129 -77 -414 -217 -571 -282 l-112 -45 -113 60
c-106 57 -285 165 -354 214 -50 36 -96 49 -170 50 -59 0 -77 -4 -117 -27 -42
-26 -50 -27 -97 -18 -122 23 -262 -46 -401 -197 -65 -71 -71 -68 -13 5 45 55
154 142 220 176 63 31 143 42 200 27 39 -11 46 -9 100 20 32 18 60 34 61 35 2
1 -15 19 -38 40 -23 21 -48 50 -55 65 -18 34 -35 109 -25 109 4 0 10 -13 13
-30 4 -16 28 -51 54 -78 68 -70 150 -97 296 -97 105 0 107 0 86 -18 -12 -9
-41 -22 -65 -28 -48 -12 -53 -19 -26 -35 218 -141 396 -244 422 -244 18 0 230
110 327 169 26 17 68 41 93 55 49 26 388 251 489 325 185 135 431 328 511 402
107 98 246 239 287 289 15 20 39 47 51 60 34 36 181 233 234 315 94 143 293
511 312 575 l7 25 9 -22 c5 -13 21 -91 36 -175z m-2866 -236 c138 -117 243
-247 319 -395 28 -53 51 -103 51 -110 0 -15 -97 -79 -214 -142 -49 -26 -110
-59 -135 -74 -25 -15 -66 -35 -91 -46 -192 -83 -424 -237 -596 -397 -130 -121
-337 -379 -442 -553 -65 -107 -157 -283 -152 -288 3 -3 91 -2 196 1 l192 5 12
41 c13 43 47 116 55 116 2 0 -4 -19 -15 -42 -10 -24 -26 -70 -35 -103 l-16
-60 -152 3 c-236 6 -563 -42 -758 -109 -33 -12 -63 -19 -65 -16 -7 7 153 64
256 91 47 13 131 31 187 41 l101 18 26 104 c15 57 44 147 66 199 37 92 149
297 180 332 8 9 41 51 72 92 187 247 581 595 914 808 101 65 146 123 152 198
6 76 -54 198 -146 296 -77 83 -68 80 38 -10z m1565 -49 c77 -167 107 -351 110
-663 1 -129 1 -203 -1 -165 -9 161 -37 406 -55 485 -21 87 -52 155 -75 164 -7
3 -29 -22 -54 -62 -194 -313 -547 -698 -795 -868 -16 -11 -52 -36 -80 -55 -45
-32 -157 -100 -258 -157 -21 -12 -36 -18 -32 -13 3 6 30 24 60 41 58 33 229
159 330 243 138 114 311 291 419 427 37 47 73 92 79 100 63 77 232 373 289
502 18 43 34 78 35 78 1 0 13 -26 28 -57z m-2962 -6 c-4 -7 -26 -39 -48 -71
-229 -332 -398 -656 -543 -1041 -86 -230 -177 -613 -202 -855 -23 -215 -34
-530 -19 -530 6 0 36 21 67 46 31 26 64 49 72 52 8 3 35 20 60 37 56 40 210
121 310 163 101 42 258 102 267 102 5 0 -44 -27 -107 -59 -63 -32 -132 -68
-152 -82 -20 -13 -56 -35 -79 -49 -23 -14 -47 -30 -53 -36 -6 -5 -40 -30 -76
-54 -71 -47 -159 -119 -230 -187 -42 -39 -53 -45 -130 -58 -47 -8 -87 -15 -89
-15 -2 0 15 20 38 45 l41 45 0 88 c0 254 75 843 141 1107 132 525 327 902 672
1298 56 63 78 84 60 54z m-1109 -244 c-15 -27 -35 -59 -44 -73 -26 -39 -124
-236 -163 -330 -267 -633 -302 -1297 -106 -2020 22 -80 41 -150 44 -157 2 -7
-15 -26 -38 -43 l-42 -31 -31 103 c-115 372 -155 627 -158 983 -3 468 95 899
305 1341 22 45 39 87 39 93 0 11 -78 -37 -117 -72 -13 -11 -25 -18 -28 -16 -2
3 26 38 64 77 38 39 66 74 62 76 -25 16 -425 -162 -605 -268 -42 -25 -76 -43
-76 -41 0 9 209 140 322 202 65 36 155 80 200 100 83 35 336 114 391 122 4 0
-4 -20 -19 -46z m2791 -1425 c14 -6 25 -15 25 -20 0 -13 -10 -10 -37 12 -29
23 -25 25 12 8z m174 -76 c-11 -4 -118 36 -133 49 -5 5 25 -4 67 -19 42 -15
72 -29 66 -30z m-39 -85 c0 -3 -22 18 -50 47 -27 29 -50 56 -50 59 0 3 23 -18
50 -47 28 -29 50 -56 50 -59z m35 -27 c10 -11 16 -20 13 -20 -3 0 -13 9 -23
20 -10 11 -16 20 -13 20 3 0 13 -9 23 -20z m-499 -6 c28 -5 33 -11 44 -52 32
-130 42 -163 69 -232 16 -41 27 -79 24 -83 -3 -5 -22 30 -42 79 -20 49 -40 87
-46 85 -5 -2 -9 -6 -8 -9 1 -4 9 -26 18 -49 8 -23 18 -61 21 -84 10 -63 -12
-46 -47 36 -29 67 -61 117 -55 84 1 -8 12 -45 24 -83 12 -37 22 -77 22 -87 0
-24 -19 -25 -26 -1 -9 28 -57 136 -68 150 -19 27 -15 2 14 -79 16 -46 30 -91
30 -99 0 -8 -15 -23 -33 -34 -18 -10 -27 -21 -20 -23 7 -3 23 3 35 11 28 20
38 20 38 1 0 -8 7 -15 15 -15 8 0 15 -6 15 -14 0 -7 6 -19 14 -25 28 -23 68
17 45 45 -9 12 -3 14 35 14 25 0 49 0 54 0 4 0 7 -8 7 -17 0 -29 -82 -67 -144
-67 -40 0 -48 -3 -33 -9 14 -6 23 -23 27 -51 11 -62 24 -79 26 -31 2 63 3 68
16 72 11 4 33 -53 33 -84 0 -6 5 -15 11 -19 9 -5 10 9 5 55 -6 56 -6 61 13 61
22 0 27 -11 37 -82 3 -27 11 -48 16 -48 7 0 8 30 3 85 -4 52 -3 85 3 85 10 0
42 -76 42 -99 0 -29 -57 -151 -105 -226 -109 -169 -217 -219 -344 -159 -149
71 -272 187 -330 315 -49 109 -47 132 5 44 26 -43 60 -93 75 -110 16 -16 34
-42 40 -57 6 -15 15 -25 20 -22 5 3 7 10 3 15 -3 5 1 21 10 34 22 34 20 38
-12 32 -26 -5 -30 -2 -55 51 -42 93 -47 111 -62 217 -18 127 -18 176 1 70 9
-53 28 -107 54 -160 41 -80 95 -154 105 -143 3 3 -3 29 -15 57 -11 28 -20 54
-20 56 0 3 17 5 38 5 21 0 47 7 58 15 17 14 15 15 -36 10 -30 -3 -60 -2 -66 2
-15 10 -35 83 -24 83 5 0 16 3 25 6 13 5 15 2 10 -17 -3 -13 -1 -31 5 -39 13
-21 45 0 44 29 -1 25 5 26 53 6 49 -20 63 -18 33 5 -21 16 -114 56 -172 74
-21 6 -30 65 -26 166 l3 75 37 -71 c21 -40 60 -98 88 -130 56 -65 158 -153
178 -154 18 0 15 14 -7 27 -33 20 -125 144 -163 218 -38 75 -63 147 -72 208
-5 38 -4 39 42 59 76 34 223 43 348 22z m612 -106 c7 -16 -5 -7 -48 39 l-45
47 45 -39 c25 -21 47 -42 48 -47z m-103 16 c11 -5 13 -9 6 -14 -7 -4 7 -31 39
-73 28 -37 47 -67 42 -67 -18 0 -112 127 -112 153 0 9 4 9 25 1z m1785 -47 c0
-22 -6 -24 -77 -34 -130 -18 -480 -72 -616 -94 -132 -22 -186 -22 -74 -1 34 7
132 25 217 42 85 16 198 39 250 50 133 29 273 58 288 59 6 1 12 -9 12 -22z
m-1670 -23 c0 -2 -13 2 -30 11 -16 9 -30 18 -30 21 0 2 14 -2 30 -11 17 -9 30
-18 30 -21z m-1450 1 c0 -8 -12 -18 -27 -21 -73 -18 -134 -67 -168 -133 -19
-38 -31 -169 -21 -224 4 -20 19 -51 34 -69 l27 -32 -40 23 c-22 13 -47 32 -56
42 -20 22 -43 130 -35 163 9 37 -14 33 -40 -7 -54 -83 -84 -175 -100 -300 -5
-44 -8 -48 -27 -43 -12 3 -62 11 -112 17 -49 6 -109 14 -132 17 l-43 7 42 50
c116 139 287 283 406 344 36 18 48 33 75 89 l32 67 75 11 c104 16 110 16 110
-1z m1520 -25 c0 -5 -2 -10 -4 -10 -3 0 -8 5 -11 10 -3 6 -1 10 4 10 6 0 11
-4 11 -10z m-65 -128 c-2 -2 -30 11 -64 27 l-61 31 -1 -42 c-1 -51 -6 -41 -12
23 l-4 45 72 -40 c40 -23 71 -42 70 -44z m0 38 c10 -11 16 -20 13 -20 -3 0
-13 9 -23 20 -10 11 -16 20 -13 20 3 0 13 -9 23 -20z m-1495 -107 l-42 -87 50
-43 c28 -24 72 -72 97 -106 110 -148 486 -515 517 -505 6 2 -25 34 -68 70 -75
63 -192 178 -283 278 -49 53 -41 73 16 40 21 -13 43 -29 49 -37 6 -7 80 -84
163 -170 l152 -156 28 27 c23 22 43 29 94 36 36 4 74 14 85 21 69 49 157 149
191 217 27 54 54 55 136 3 l60 -38 26 -94 c24 -87 85 -221 125 -277 12 -16 0
-11 -47 20 -35 23 -66 45 -69 49 -3 3 -48 35 -100 70 -52 35 -99 67 -104 71
-6 4 1 22 16 45 14 21 29 48 32 59 9 28 42 58 58 51 14 -5 36 -44 64 -112 9
-23 18 -34 21 -26 3 7 -7 43 -21 80 -32 82 -60 103 -100 77 -14 -9 -33 -31
-42 -49 -50 -95 -126 -162 -196 -174 -37 -5 -38 -6 -38 -50 0 -47 23 -102 64
-151 l26 -30 -25 -16 c-13 -9 -27 -16 -31 -16 -3 0 -38 20 -78 43 -145 89
-265 157 -408 232 -125 64 -154 84 -190 128 -23 29 -55 66 -70 82 -26 30 -47
54 -163 196 -33 41 -68 82 -77 93 -19 21 -17 29 34 136 33 68 80 129 86 110 2
-5 -15 -49 -38 -97z m2303 90 c-7 -2 -19 -2 -25 0 -7 3 -2 5 12 5 14 0 19 -2
13 -5z m-66 -9 c-3 -3 -12 -4 -19 -1 -8 3 -5 6 6 6 11 1 17 -2 13 -5z m-50
-10 c-3 -3 -12 -4 -19 -1 -8 3 -5 6 6 6 11 1 17 -2 13 -5z m-832 -209 c8 -37
14 -49 14 -31 1 34 1 35 161 -24 63 -24 147 -52 185 -63 39 -11 99 -31 135
-44 63 -23 64 -23 20 -18 -25 3 -94 17 -154 32 -132 31 -233 29 -291 -7 -38
-24 -112 -103 -128 -137 -6 -13 -13 -23 -17 -23 -13 0 -42 121 -47 199 l-6 76
30 -40 c51 -69 126 -123 108 -77 -34 82 -78 271 -74 316 2 22 52 -101 64 -159z
m22 98 c-3 -10 -5 -2 -5 17 0 19 2 27 5 18 2 -10 2 -26 0 -35z m-349 -8 c-3
-3 -9 2 -12 12 -6 14 -5 15 5 6 7 -7 10 -15 7 -18z m-58 5 c0 -5 -4 -10 -10
-10 -5 0 -10 5 -10 10 0 6 5 10 10 10 6 0 10 -4 10 -10z m-65 -20 c3 -5 1 -10
-4 -10 -6 0 -11 5 -11 10 0 6 2 10 4 10 3 0 8 -4 11 -10z m-665 -41 c20 -17
21 -19 5 -14 -41 15 -63 17 -70 5 -4 -7 -3 -15 2 -19 5 -3 16 -28 23 -56 10
-36 27 -63 62 -98 26 -26 48 -50 48 -53 0 -14 -61 35 -99 79 -71 83 -85 125
-54 159 21 24 52 23 83 -3z m-910 7 c0 -2 -26 -17 -57 -32 -52 -26 -155 -118
-211 -186 -15 -19 -31 -28 -52 -28 -16 0 -30 3 -30 8 0 4 32 38 72 75 73 69
145 116 227 148 53 21 51 20 51 15z m2575 -15 c142 -11 279 -38 430 -84 115
-36 219 -77 211 -84 -2 -2 -62 12 -132 31 -219 60 -363 78 -649 81 -224 2
-255 5 -300 23 l-50 20 45 6 c109 15 295 18 445 7z m-757 -115 c14 -41 17 -67
12 -82 -10 -24 -38 -44 -64 -44 -13 0 -13 5 2 45 11 31 21 44 30 40 11 -4 13
1 8 21 -25 100 -18 110 12 20z m45 -103 c3 -10 16 -34 29 -53 l23 -35 -40 24
c-57 34 -58 36 -43 60 16 26 24 27 31 4z m760 0 c-7 -2 -19 -2 -25 0 -7 3 -2
5 12 5 14 0 19 -2 13 -5z m-2289 -104 c28 -6 60 -16 71 -22 20 -10 239 -171
261 -192 6 -5 26 -22 45 -37 19 -14 44 -35 55 -45 12 -10 43 -36 70 -58 115
-95 306 -280 279 -270 -11 4 -47 16 -80 27 -49 17 -148 78 -209 129 -21 18
-181 134 -226 164 -25 16 -77 54 -117 82 -40 29 -75 53 -79 53 -3 0 -23 13
-43 28 -20 16 -76 54 -126 85 -154 97 -153 96 -44 81 51 -7 115 -18 143 -25z
m1859 16 c225 -51 445 -112 412 -114 -6 -1 -66 14 -135 33 -69 19 -181 46
-250 61 -69 14 -138 30 -155 35 -71 20 21 9 128 -15z m-2399 -93 c202 -104
352 -186 536 -294 91 -54 93 -52 -41 -29 -96 16 -329 23 -431 13 l-97 -11 -43
42 c-113 108 -264 206 -426 278 -56 24 -102 47 -102 50 0 14 246 56 344 58 43
1 72 -11 260 -107z m-605 16 c54 -33 245 -172 288 -210 76 -67 153 -141 153
-148 0 -3 -26 -14 -57 -24 -84 -26 -185 -70 -254 -111 -55 -32 -63 -34 -102
-26 -79 18 -298 24 -412 12 -111 -12 -355 -57 -365 -68 -3 -3 33 -1 80 3 134
14 453 11 559 -5 l94 -14 -43 -37 -44 -38 -155 -11 c-163 -13 -242 -21 -426
-47 -165 -23 -238 -34 -259 -40 -25 -8 -18 3 85 133 232 292 472 495 714 607
55 25 102 46 104 46 2 0 20 -10 40 -22z m1766 -159 c6 -5 58 -32 115 -62 219
-113 410 -220 522 -293 37 -24 69 -44 71 -44 2 0 46 -28 98 -61 359 -235 393
-263 480 -390 21 -31 44 -63 51 -71 13 -14 47 -62 62 -86 10 -17 -11 -7 -89
43 -27 18 -81 49 -120 70 -38 21 -77 43 -85 50 -22 19 -511 265 -526 265 -6 0
-63 49 -125 108 -142 135 -362 330 -599 531 -18 15 -2 11 55 -16 44 -20 85
-40 90 -44z m1470 50 c-74 -39 -182 -130 -221 -185 -77 -108 -64 -104 -111
-27 -49 81 -55 73 104 149 110 53 194 82 243 83 21 1 19 -2 -15 -20z m-666
-43 l32 -24 -40 -33 c-23 -18 -41 -36 -41 -40 0 -22 212 -195 272 -221 35 -16
35 -24 2 -32 -14 -4 -51 -32 -81 -62 l-55 -55 -52 33 c-28 18 -85 55 -127 83
l-77 50 39 30 c44 33 47 40 20 54 -33 18 -81 101 -81 141 0 36 2 38 38 44 21
3 54 17 73 30 43 31 39 30 78 2z m-3613 -71 c20 -38 70 -121 112 -183 74 -114
75 -114 55 -134 -20 -20 -20 -20 -50 34 -34 60 -173 354 -173 365 0 15 20 -14
56 -82z m3883 -120 c26 -19 52 -35 57 -35 5 0 17 -7 27 -14 17 -13 17 -17 3
-67 -20 -66 -20 -116 -1 -162 31 -75 12 -127 -48 -127 -25 0 -124 57 -186 107
-12 9 78 85 135 114 35 17 64 33 64 34 0 1 -30 22 -67 45 -38 24 -79 52 -91
61 l-24 18 33 31 c19 16 37 30 41 30 4 0 30 -16 57 -35z m-3068 -462 c-12 -16
-41 -57 -64 -93 -24 -36 -50 -70 -58 -76 -8 -6 -61 -28 -119 -49 -174 -63
-408 -185 -610 -319 -114 -75 -289 -202 -305 -221 -16 -20 -85 -68 -85 -60 0
13 102 210 159 305 31 52 60 104 64 115 4 11 25 44 45 74 41 59 49 64 279 156
116 47 305 109 443 146 42 11 228 46 258 48 9 1 7 -8 -7 -26z m641 -86 c214
-65 584 -102 955 -96 133 3 240 3 238 1 -2 -2 -68 -10 -147 -18 -286 -27 -700
-12 -983 36 -137 23 -345 72 -345 81 0 11 95 27 145 25 28 -1 89 -14 137 -29z
m-463 -100 c29 -61 83 -142 117 -175 31 -29 31 -39 1 -15 -103 81 -219 205
-205 218 4 5 51 24 58 24 3 0 16 -23 29 -52z m3382 -169 c359 -279 329 -251
254 -243 -33 4 -83 18 -112 31 -52 25 -62 36 -164 179 -28 39 -60 81 -72 95
-22 24 -22 24 -1 10 12 -8 55 -41 95 -72z m-3646 -83 c39 -33 72 -62 75 -66
12 -14 222 -165 282 -202 65 -40 81 -57 56 -57 -6 0 -19 -7 -29 -16 -17 -15
-20 -14 -51 7 -212 149 -548 461 -517 480 10 6 29 -6 64 -39 28 -27 82 -75
120 -107z m2245 144 c-63 -40 -149 -87 -266 -143 l-137 -65 -28 22 c-36 29
-36 34 4 42 61 14 323 103 373 128 49 25 83 35 54 16z m460 -59 c227 -89 460
-187 460 -194 0 -3 -18 -15 -40 -26 l-39 -20 -55 35 c-30 19 -58 35 -62 35 -4
0 -15 6 -23 14 -28 26 -396 206 -399 197 -10 -31 119 -242 193 -316 55 -55
127 -102 178 -116 46 -12 42 -22 -19 -39 -58 -17 -141 -5 -317 45 -134 37
-231 78 -312 130 -55 36 -101 73 -94 78 2 2 40 24 84 50 44 26 123 80 175 120
l95 74 65 -25 c36 -13 85 -32 110 -42z m1915 10 c166 -84 279 -233 310 -407
16 -93 20 -233 7 -233 -4 0 -8 10 -9 21 -1 12 -11 31 -21 43 -11 11 -30 61
-42 110 -31 124 -69 201 -133 272 -63 68 -122 102 -237 133 -125 35 -140 25
-45 -29 58 -33 93 -65 163 -145 56 -66 95 -181 95 -280 -1 -77 -32 -164 -71
-199 -21 -18 -22 -17 -81 19 -34 20 -67 42 -74 48 -6 7 -28 24 -47 39 -82 63
-111 97 -149 179 -62 130 -115 176 -196 167 -34 -4 -46 0 -75 24 -21 17 -31
32 -25 36 6 4 56 41 112 83 91 69 191 126 263 150 14 5 63 7 110 4 69 -4 96
-10 145 -35z m-3383 -55 c128 -61 322 -268 457 -489 136 -221 281 -560 281
-654 0 -35 -5 -43 -33 -61 -42 -26 -104 -36 -148 -24 -27 8 -48 5 -99 -13
-129 -44 -208 -82 -320 -153 -27 -17 -47 -22 -275 -69 -203 -42 -358 -56 -540
-49 -82 4 -163 9 -180 12 -24 5 -21 2 10 -10 76 -30 181 -47 321 -52 158 -6
281 5 444 42 111 26 162 23 168 -7 4 -20 -143 -82 -378 -161 -240 -81 -317
-100 -366 -93 -78 10 -145 49 -223 128 -40 42 -77 81 -80 87 -10 16 -36 4 -49
-22 -30 -62 -19 -345 16 -417 25 -51 47 -49 139 14 132 91 295 156 391 156 74
0 316 61 502 126 52 18 124 40 160 49 121 30 273 94 362 153 21 13 41 22 44
19 16 -16 -53 -152 -107 -212 -18 -20 -17 -24 7 -115 20 -73 26 -120 27 -206
1 -127 -6 -145 -90 -225 -90 -87 -170 -135 -288 -174 -88 -28 -113 -32 -98
-12 14 17 63 149 63 169 0 25 -92 111 -157 146 -33 17 -87 39 -120 47 -32 8
-77 24 -98 35 -103 53 -273 9 -491 -126 -39 -24 -81 -44 -93 -44 -94 0 -192
135 -244 335 -28 109 -23 156 29 288 l36 89 -20 21 c-20 21 -42 68 -42 88 0 5
13 0 29 -12 26 -19 34 -20 58 -10 96 40 153 172 138 321 -9 89 -29 115 -87
113 -47 -2 -74 -25 -84 -72 -11 -48 -75 -171 -90 -171 -8 0 -34 18 -57 40
l-42 40 65 63 c36 34 93 75 127 92 47 23 65 38 77 65 22 50 36 109 36 152 0
36 0 37 34 31 63 -10 142 60 201 176 23 45 27 69 29 139 1 55 -3 86 -10 89 -7
2 -26 -10 -43 -27 -29 -29 -31 -37 -31 -101 0 -81 -15 -122 -70 -195 -42 -55
-69 -69 -96 -49 -23 16 -31 122 -14 183 15 56 70 117 126 138 28 11 50 27 59
43 18 36 177 194 243 243 60 44 178 107 225 119 18 5 71 7 118 4 66 -3 98 -9
141 -30z m3363 -81 c54 -31 133 -116 169 -180 14 -26 26 -48 26 -49 0 -1 -11
-2 -24 -2 -18 0 -26 6 -31 26 -11 43 -108 163 -170 208 -41 30 -23 29 30 -3z
m-2973 -86 c49 -38 122 -144 169 -243 39 -85 92 -236 103 -295 l6 -35 -20 40
c-11 22 -41 83 -66 135 -71 149 -136 256 -264 433 -14 19 -14 20 10 7 14 -7
42 -26 62 -42z m551 -16 c112 -76 308 -165 427 -195 104 -25 169 -37 203 -37
l32 0 -40 -21 c-74 -39 -245 -152 -245 -162 0 -5 19 3 43 17 72 45 299 155
348 167 51 14 97 6 106 -17 8 -21 3 -24 -71 -39 -171 -36 -292 -136 -382 -319
-30 -61 -57 -129 -60 -151 -5 -33 0 -26 29 42 69 162 153 269 270 342 48 30
124 61 151 61 16 0 16 -3 -4 -30 -12 -16 -29 -30 -39 -30 -10 0 -34 -15 -53
-32 -52 -49 -169 -250 -154 -265 5 -5 11 4 75 115 45 77 96 142 113 142 5 0
-4 -24 -20 -52 -59 -105 -121 -293 -122 -366 0 -18 14 -59 30 -92 l30 -60 -23
0 c-13 0 -72 15 -130 34 -115 36 -139 34 -56 -4 l51 -24 -41 -14 c-39 -13 -42
-12 -78 15 -95 70 -239 240 -359 425 -83 127 -116 193 -143 281 -12 38 -38
106 -60 152 l-39 83 77 30 c42 16 80 30 84 31 5 0 27 -12 50 -27z m-282 -19
c74 -67 121 -164 164 -337 31 -123 31 -143 0 -262 -14 -53 -25 -109 -25 -125
0 -15 -4 -31 -10 -34 -5 -3 -10 3 -10 15 0 56 -91 461 -135 600 -36 116 -46
160 -40 170 9 15 11 14 56 -27z m1445 -23 c158 -71 472 -225 485 -239 4 -3 2
-34 -4 -68 -8 -49 -15 -63 -31 -68 -43 -12 -191 -24 -232 -18 -35 5 -43 10
-47 32 -3 15 -24 55 -47 89 l-42 62 -53 0 c-30 0 -65 -4 -80 -10 -20 -8 -35
-6 -66 10 -21 11 -39 24 -39 28 0 4 -12 15 -25 25 -25 18 -25 18 -48 -9 l-23
-26 -17 26 c-13 20 -26 26 -52 26 -24 0 -35 5 -39 18 -4 10 -23 24 -44 31 -40
15 -125 61 -120 67 2 1 21 -1 43 -6 58 -14 211 -12 276 3 42 10 119 42 136 56
0 0 31 -13 69 -29z m836 -37 c43 -41 71 -110 64 -156 -14 -87 -97 -207 -143
-207 -22 0 -63 39 -63 60 0 9 9 25 21 36 29 26 48 66 59 123 12 63 2 151 -16
151 -8 0 -14 7 -14 16 0 24 58 10 92 -23z m641 -101 c8 -15 17 -40 21 -56 6
-24 4 -27 -9 -22 -9 3 -30 6 -46 6 -28 0 -29 2 -29 48 0 44 2 48 25 50 18 1
28 -6 38 -26z m-1639 -81 l38 -24 -38 -20 c-22 -11 -34 -22 -27 -24 7 -2 20 0
30 5 10 6 58 17 107 27 126 23 151 10 171 -92 6 -29 4 -33 -14 -33 -11 0 -25
9 -31 20 -14 27 -62 50 -101 50 -24 0 -40 -9 -61 -32 -51 -56 -148 -276 -148
-333 0 -13 7 -40 16 -61 26 -64 121 -218 153 -248 l30 -29 20 24 c22 25 61
119 61 144 0 8 9 15 20 15 24 0 24 5 1 -63 -23 -67 -59 -130 -101 -177 l-30
-34 -37 18 c-20 9 -58 20 -85 23 -44 5 -51 10 -84 56 -35 49 -57 85 -98 162
-17 33 -21 56 -20 130 1 55 8 109 19 138 9 27 14 51 12 54 -6 5 -39 -82 -57
-147 -26 -96 10 -215 101 -337 21 -29 39 -55 39 -58 0 -3 -24 -5 -54 -5 l-54
0 -40 63 c-83 131 -118 225 -102 275 31 101 158 355 212 426 42 54 101 117
108 113 3 -1 22 -13 44 -26z m1653 -47 c37 -23 36 -52 -1 -164 -43 -131 -53
-190 -34 -190 10 0 19 22 28 68 16 81 49 194 61 206 5 5 12 -1 18 -17 7 -19 5
-43 -10 -94 -22 -78 -38 -234 -21 -218 5 6 17 56 26 112 8 55 21 113 27 127
15 33 42 35 34 4 -12 -54 -24 -158 -26 -223 -2 -62 -5 -73 -30 -96 -16 -15
-45 -34 -66 -44 -35 -17 -39 -17 -82 0 -26 10 -62 21 -81 25 -28 6 -30 8 -10
9 33 1 85 34 106 66 26 39 11 40 -44 2 -28 -19 -62 -37 -76 -41 -14 -3 -26
-11 -26 -16 0 -6 -19 -10 -42 -9 l-43 0 25 17 c14 9 43 34 66 54 75 69 133
235 134 381 0 66 1 68 23 62 12 -4 32 -13 44 -21z m-897 -31 c63 -35 68 -40
62 -63 -4 -14 -7 -96 -7 -182 l0 -158 -26 28 c-30 32 -72 124 -94 207 -14 55
-21 205 -10 205 3 0 37 -17 75 -37z m-1797 -138 c18 -31 21 -45 13 -45 -8 0
-18 6 -23 13 -10 12 -26 77 -19 77 3 0 16 -20 29 -45z m2924 19 c20 -12 43
-67 43 -103 0 -7 -9 -29 -21 -47 -22 -35 -68 -52 -108 -39 -24 7 -23 33 7 135
8 30 14 61 13 68 -3 16 30 9 66 -14z m-1243 4 c2 -7 8 -35 15 -63 6 -27 26
-80 45 -116 l33 -67 -156 -21 c-86 -12 -242 -24 -347 -28 l-191 -6 -11 33
c-17 47 -15 183 2 225 l15 35 173 1 c95 1 214 4 263 8 142 12 155 12 159 -1z
m261 -19 c16 -3 24 -25 46 -125 15 -67 38 -145 52 -175 23 -50 23 -54 6 -57
-33 -6 -58 17 -88 81 -37 77 -61 173 -61 246 0 41 3 51 13 43 6 -5 21 -11 32
-13z m-1835 -177 c0 -6 -138 -42 -162 -42 -5 0 -8 6 -8 14 0 8 17 18 38 24 45
12 132 15 132 4z m-3058 -27 c85 -48 338 -75 704 -76 291 -1 321 -19 59 -34
-49 -3 -99 -8 -110 -10 -62 -13 -389 -16 -489 -5 -270 30 -499 -30 -605 -157
l-31 -38 6 30 c17 78 87 182 150 224 67 44 183 85 255 90 9 1 36 -10 61 -24z
m5825 -88 c1 -78 0 -83 -30 -114 -37 -40 -56 -41 -88 -7 l-24 25 43 39 c39 37
42 43 42 93 0 53 0 53 28 49 l28 -4 1 -81z m-2708 22 l23 -30 -29 14 c-50 26
-88 29 -147 12 -31 -9 -58 -20 -61 -25 -3 -5 16 -12 42 -15 53 -8 189 -40 227
-54 22 -9 89 -72 82 -78 -2 -2 -30 10 -62 26 -96 48 -181 71 -256 71 -65 0
-68 1 -68 23 0 48 74 86 166 87 56 0 62 -2 83 -31z m-1978 -119 c21 0 41 -64
36 -112 -10 -84 -76 -201 -130 -230 -18 -9 -24 -7 -44 16 -70 81 27 359 115
330 8 -2 18 -4 23 -4z m2043 -82 c82 -37 81 -36 74 -43 -3 -3 -27 5 -54 18
-27 13 -65 31 -84 40 -19 9 -29 16 -21 16 8 1 46 -13 85 -31z m-218 -4 c44 -9
127 -31 185 -50 l107 -35 7 -45 c9 -64 33 -84 99 -84 47 0 57 -4 75 -26 12
-15 21 -31 21 -37 0 -23 34 -47 66 -47 36 0 64 -29 64 -67 0 -17 21 -34 90
-78 71 -43 281 -188 345 -237 58 -44 271 -213 275 -217 3 -4 37 -33 75 -66
183 -156 464 -443 574 -587 65 -85 143 -234 170 -321 l21 -68 -24 -62 c-69
-183 -183 -339 -314 -429 -41 -28 -47 -30 -100 -22 l-57 8 56 6 c36 3 68 14
90 29 37 25 153 160 145 168 -3 3 -37 0 -76 -7 -132 -22 -321 16 -407 83 -23
17 -59 45 -80 62 -21 16 -63 50 -93 75 -87 73 -396 304 -505 377 -33 22 -82
55 -110 73 -27 19 -68 46 -90 61 -22 14 -74 47 -115 71 -41 25 -140 85 -220
133 -80 49 -174 103 -210 122 -78 40 -53 36 125 -22 199 -65 533 -215 689
-310 80 -48 83 -38 4 12 -146 94 -354 204 -488 260 -47 19 -98 41 -115 48 -86
38 -436 149 -536 169 -23 5 -27 12 -33 57 -4 28 -5 53 -3 55 2 3 40 -6 83 -20
43 -13 120 -36 169 -50 166 -46 632 -208 697 -242 34 -18 53 -9 23 11 -11 8
-38 27 -60 43 -62 45 -227 129 -360 182 -130 53 -314 106 -467 136 -78 15 -98
22 -98 36 0 9 -2 23 -5 30 -5 12 25 17 167 26 189 13 290 33 443 85 129 45
265 108 265 124 0 9 -9 8 -36 -3 -117 -49 -514 -99 -614 -78 l-45 9 127 69
c70 39 126 72 123 74 -2 2 -52 -11 -112 -29 -85 -26 -126 -33 -195 -33 -47 -1
-89 2 -93 5 -3 4 11 34 32 68 l38 61 52 0 c80 0 285 37 423 76 213 60 232 74
69 48 -104 -16 -461 -25 -474 -13 -3 4 8 34 25 68 l30 61 43 -7 c60 -11 297
-7 327 5 22 9 17 11 -35 12 -95 3 -168 14 -172 27 -2 6 19 19 49 28 62 20 89
40 43 32 -105 -19 -232 -15 -255 9 -4 5 -11 33 -15 62 -8 61 -13 59 101 36z
m-1216 -1099 c87 -31 117 -57 206 -174 l64 -84 -30 -34 c-17 -18 -30 -40 -30
-48 0 -24 -13 -18 -55 26 -76 78 -201 149 -300 169 -69 14 -198 7 -276 -16
-28 -9 -53 -13 -56 -10 -18 18 72 180 110 196 12 6 81 8 157 6 115 -4 146 -8
210 -31z m-753 -71 c-3 -42 -1 -65 7 -68 12 -5 -59 -75 -140 -136 -28 -21 -59
-47 -69 -57 -10 -10 -44 -38 -75 -63 -90 -71 -305 -244 -310 -250 -19 -19
-364 -280 -741 -559 -221 -164 -267 -196 -281 -196 -13 0 -70 93 -65 107 2 6
93 82 162 135 6 5 30 24 55 43 25 19 47 37 50 40 3 3 23 19 45 35 22 16 76 59
121 95 145 116 565 447 816 642 40 31 150 118 243 191 190 151 191 151 182 41z
m2027 -173 c167 -88 282 -162 446 -286 315 -239 646 -459 808 -536 84 -40 74
-48 -11 -9 -37 16 -69 30 -73 30 -3 0 11 -23 31 -50 21 -28 35 -54 31 -57 -11
-11 -132 28 -176 57 -70 46 -130 110 -160 171 -24 46 -43 66 -115 117 -48 34
-90 60 -95 57 -10 -6 10 -83 39 -150 21 -47 21 -48 2 -31 -29 26 -70 116 -77
170 -6 38 -14 53 -43 76 -43 36 -51 37 -51 7 0 -34 49 -277 61 -298 17 -33 9
-41 -14 -12 -61 72 -99 139 -115 198 -14 56 -15 72 -3 127 l13 63 -44 37 c-23
21 -46 38 -49 38 -7 0 -39 -113 -39 -140 0 -26 -9 -25 -51 6 -93 70 -214 106
-342 103 -75 -1 -82 0 -79 17 6 49 -11 103 -47 152 -50 66 -58 108 -32 167 12
28 26 45 37 45 9 0 76 -31 148 -69z m-1454 51 c0 -4 -7 -39 -15 -77 -45 -210
-90 -675 -65 -675 6 0 10 19 10 43 1 109 84 522 128 632 17 43 24 50 46 48 14
-1 45 -15 70 -32 47 -33 156 -148 156 -165 0 -6 -20 -59 -45 -117 -91 -217
-163 -528 -180 -779 -3 -52 -8 -110 -11 -127 -5 -44 13 -42 22 2 3 19 10 35
14 35 13 0 69 -133 85 -204 13 -57 14 -81 5 -136 l-11 -66 50 -97 c28 -53 51
-99 51 -101 0 -2 -41 12 -92 31 -50 19 -139 46 -197 61 -94 23 -126 26 -281
27 -184 0 -263 -13 -406 -66 -30 -12 -57 -19 -59 -17 -8 8 126 192 185 252 58
60 155 131 203 149 9 3 17 12 17 18 0 8 -21 10 -73 7 -84 -5 -173 -43 -255
-108 -47 -38 -51 -39 -57 -20 -7 22 0 68 16 111 11 29 49 51 117 69 28 7 57
26 83 52 45 46 45 51 29 234 -13 143 1 360 35 541 28 154 35 181 78 317 30 96
31 99 72 117 23 10 66 25 96 33 57 16 179 21 179 8z m1718 -525 c40 -14 76
-27 79 -31 17 -16 -13 -16 -99 3 -52 11 -142 21 -205 23 -117 3 -129 9 -53 27
69 16 195 6 278 -22z m-287 -168 c19 -10 19 -11 -11 -39 -16 -15 -30 -35 -30
-44 0 -22 5 -20 34 9 25 25 56 34 56 16 0 -5 3 -16 6 -24 3 -10 -3 -17 -20
-21 -26 -6 -64 -52 -53 -63 3 -3 20 6 37 21 44 36 73 34 99 -8 12 -18 21 -36
21 -40 0 -3 -22 -6 -49 -6 -58 0 -88 -21 -97 -67 -9 -44 23 -60 91 -45 52 11
75 7 75 -13 0 -16 -32 -25 -88 -25 -37 0 -49 5 -75 33 -80 85 -89 99 -85 129
6 37 -9 48 -18 13 -5 -20 -9 -23 -20 -14 -38 31 -20 163 26 186 31 16 75 17
101 2z m398 -63 c36 -23 80 -176 56 -196 -15 -12 -25 16 -25 72 0 24 -8 46
-24 65 -28 32 -46 25 -22 -9 9 -12 16 -40 16 -61 0 -21 5 -48 11 -59 9 -16 8
-24 -5 -36 -14 -15 -17 -14 -31 3 -8 11 -15 37 -15 58 0 44 -20 96 -43 116
-15 11 -17 11 -17 -1 0 -8 5 -19 12 -26 7 -7 15 -38 19 -70 4 -31 9 -66 11
-77 2 -14 -3 -21 -19 -23 -29 -4 -43 29 -43 101 0 55 -20 97 -46 97 -18 0 -18
-14 1 -30 9 -8 15 -30 15 -58 0 -25 5 -61 12 -79 15 -40 3 -53 -48 -53 -37 0
-44 12 -44 75 0 24 -5 56 -10 71 -15 38 -5 60 45 94 65 44 146 55 194 26z
m-253 -192 c3 -19 -3 -22 -58 -28 -71 -7 -85 0 -62 32 13 20 23 23 66 20 43
-3 52 -6 54 -24z m1264 11 c14 -8 21 -14 15 -14 -5 0 -21 6 -35 14 -14 8 -20
14 -15 14 6 0 21 -6 35 -14z m-2690 -997 c114 -39 224 -87 217 -95 -3 -2 -34
5 -69 15 -36 11 -87 23 -114 27 -27 4 -57 9 -66 11 -10 1 -71 6 -135 9 -260
15 -622 -59 -892 -182 -41 -18 -76 -31 -78 -29 -4 4 147 88 247 137 95 47 222
95 300 112 41 10 93 21 115 27 22 5 114 8 205 6 160 -2 168 -4 270 -38z m-310
-392 c30 -9 83 -30 118 -48 67 -34 161 -113 148 -125 -4 -4 -12 0 -17 10 -12
21 -52 22 -69 2 -16 -19 -17 -18 44 -33 33 -9 68 -29 105 -61 31 -26 83 -68
116 -93 34 -25 67 -53 74 -61 7 -9 17 -62 22 -118 5 -56 19 -129 31 -163 11
-33 23 -91 25 -127 l5 -65 -60 -27 c-136 -61 -221 -73 -285 -41 -58 29 -66 41
-56 82 5 20 9 55 10 77 l1 40 7 -35 c9 -43 38 -99 54 -106 7 -2 46 2 86 11 40
8 92 15 117 15 42 0 46 2 60 35 19 46 18 74 -6 137 -31 81 -29 79 -109 79 -75
0 -122 -10 -178 -39 -28 -14 -33 -22 -34 -52 -1 -37 -53 177 -64 261 -4 36
-11 48 -34 62 -16 9 -64 55 -106 102 -80 87 -106 101 -131 68 -20 -27 -17 -32
19 -27 29 5 35 1 71 -45 21 -28 62 -72 91 -99 49 -45 53 -52 74 -137 37 -157
57 -278 51 -319 -5 -38 -9 -43 -65 -71 -51 -26 -71 -30 -135 -29 -96 1 -175
32 -165 65 13 41 6 117 -19 181 -15 42 -29 109 -37 184 l-12 119 -105 103
c-107 105 -129 117 -168 87 -21 -16 -16 -18 36 -15 32 1 39 -4 70 -47 35 -49
117 -133 130 -133 4 0 10 -39 14 -86 8 -104 21 -167 46 -214 23 -44 33 -116
22 -154 -19 -67 -205 -90 -321 -40 -57 25 -74 45 -51 59 23 14 10 93 -31 185
-34 76 -42 107 -46 174 -5 73 -8 84 -35 113 -28 29 -78 50 -78 32 0 -5 18 -25
40 -46 38 -36 40 -41 45 -113 7 -104 13 -126 51 -198 38 -71 41 -90 19 -132
-49 -95 -251 -120 -353 -44 -53 41 -64 74 -60 175 3 78 1 90 -16 102 -19 14
-46 84 -46 122 0 33 108 185 184 257 126 120 277 182 541 222 64 9 311 -3 365
-18z m812 -31 c76 -37 95 -52 178 -139 l45 -47 -44 16 c-55 19 -143 19 -206 0
-27 -8 -51 -13 -52 -11 -7 6 58 56 73 56 8 0 14 5 14 10 0 14 -64 3 -105 -17
-16 -9 -43 -27 -58 -42 -30 -27 -62 -79 -54 -87 2 -3 40 5 83 17 131 35 263
36 377 3 9 -3 29 -29 44 -57 24 -47 27 -64 29 -168 1 -63 6 -124 12 -136 22
-41 42 -110 49 -166 7 -65 5 -68 -81 -113 -81 -42 -127 -55 -200 -55 -87 0
-165 16 -237 48 l-57 25 -5 66 c-2 37 -16 117 -31 177 -14 61 -26 139 -26 174
0 59 -2 65 -35 98 -34 34 -35 37 -24 71 7 23 10 69 6 128 -6 106 -2 115 70
164 43 29 54 31 103 27 36 -3 82 -18 132 -42z m-331 -635 c27 -32 44 -117 29
-145 -11 -20 -22 -23 -103 -28 -51 -3 -101 -7 -112 -9 -28 -4 -56 54 -53 111
3 40 7 46 41 64 80 41 167 44 198 7z"/>
<path d="M3966 7611 c-3 -5 1 -28 10 -52 8 -24 19 -66 23 -94 l9 -50 1 53 c2
82 -25 172 -43 143z"/>
<path d="M4092 7571 c2 -10 15 -17 36 -19 43 -4 41 10 -3 24 -31 10 -36 9 -33
-5z"/>
<path d="M3895 7556 c-19 -8 -25 -15 -17 -20 13 -8 52 10 52 24 0 12 2 12 -35
-4z"/>
<path d="M4260 7433 c-52 -27 -59 -33 -32 -29 17 3 32 3 32 1 0 -13 -113 -55
-175 -66 -65 -11 -203 -7 -241 8 -11 4 -15 2 -11 -4 9 -14 140 -50 207 -58 70
-7 132 11 207 61 31 21 64 38 72 39 9 0 17 4 19 8 5 16 1 77 -5 76 -5 -1 -37
-17 -73 -36z m-45 -87 c-52 -36 -175 -55 -235 -36 -18 6 -3 8 50 10 42 1 99 9
130 20 68 22 80 24 55 6z"/>
<path d="M3984 7398 c-6 -9 30 -28 53 -28 18 0 43 17 43 30 0 8 -91 6 -96 -2z"/>
<path d="M3850 7381 c23 -16 83 -23 110 -12 24 9 23 10 -10 10 -19 1 -53 4
-75 7 -29 4 -36 3 -25 -5z"/>
<path d="M4110 7264 c-36 -7 -92 -13 -125 -14 -86 -1 -49 -18 56 -26 71 -5 89
-3 118 14 36 20 53 43 29 41 -7 -1 -42 -7 -78 -15z"/>
<path d="M2155 5260 c-27 -16 -92 -43 -142 -60 -51 -17 -93 -33 -93 -35 0 -2
11 -26 25 -54 29 -56 49 -152 41 -187 -3 -12 -2 -25 3 -28 12 -8 104 93 136
149 26 44 105 222 105 237 0 14 -24 7 -75 -22z"/>
<path d="M2905 4234 c-11 -3 -60 -11 -110 -20 -119 -20 -265 -56 -260 -64 2
-3 23 -7 47 -8 59 -4 319 -68 398 -99 36 -14 91 -39 124 -55 32 -16 61 -27 64
-23 19 18 -5 180 -31 213 -18 23 0 23 37 1 20 -12 40 -18 44 -14 13 13 -47 53
-98 64 -49 11 -173 13 -215 5z"/>
<path d="M6525 5387 c-13 -10 -16 -21 -11 -41 5 -22 11 -27 34 -24 21 2 28 9
30 32 5 41 -20 56 -53 33z"/>
<path d="M4650 3341 c0 -12 39 -35 46 -28 3 2 -7 12 -21 21 -14 9 -25 12 -25
7z"/>
<path d="M3712 3517 c-34 -36 -28 -69 18 -106 32 -25 39 -37 34 -53 -4 -15 -2
-19 7 -16 8 3 15 17 17 32 3 22 -5 35 -34 60 -37 32 -38 34 -24 62 8 16 16 32
18 37 8 16 -16 6 -36 -16z"/>
<path d="M2000 963 c-32 -12 -71 -46 -63 -54 5 -5 26 -4 48 2 22 7 70 9 108 6
37 -3 67 -4 67 -2 0 2 -20 15 -44 29 -42 25 -83 31 -116 19z"/>
<path d="M1625 950 c-23 -9 -71 -58 -64 -64 3 -3 28 2 57 10 29 9 75 14 103
12 27 -1 49 0 49 4 0 12 -77 48 -102 47 -13 0 -32 -4 -43 -9z"/>
<path d="M2395 943 c-23 -6 -65 -33 -65 -42 0 -3 47 -6 105 -6 58 0 105 3 105
6 0 9 -95 49 -112 48 -7 -1 -22 -4 -33 -6z"/>
<path d="M1203 915 c-53 -24 -75 -54 -30 -40 71 22 144 35 164 30 39 -9 25 13
-14 24 -53 15 -61 14 -120 -14z"/>
<path d="M1250 699 c-13 -6 -39 -21 -57 -35 -29 -22 -33 -30 -33 -74 0 -40 5
-56 28 -81 26 -29 31 -30 98 -30 43 0 90 7 119 18 44 17 50 22 57 57 6 28 4
53 -7 86 -14 41 -21 49 -54 59 -46 13 -117 13 -151 0z m123 -28 c41 -16 67
-51 67 -91 0 -33 -3 -37 -42 -51 -24 -9 -73 -17 -110 -18 -76 -3 -88 8 -88 78
0 32 5 43 28 59 15 10 34 22 42 25 24 9 77 8 103 -2z"/>
<path d="M1623 674 c-39 -14 -42 -19 -52 -65 -28 -128 2 -159 156 -159 118 0
146 22 144 111 -1 68 -16 98 -56 114 -43 19 -137 18 -192 -1z m162 -25 c50
-14 55 -21 55 -90 0 -54 -1 -57 -32 -70 -43 -18 -135 -18 -173 1 -34 17 -47
64 -33 117 7 27 14 33 46 38 20 4 42 8 47 10 20 7 51 5 90 -6z"/>
<path d="M2030 683 c-36 -7 -46 -19 -59 -68 -12 -46 1 -139 20 -151 35 -21
205 -25 238 -4 7 4 17 37 24 73 10 62 9 70 -11 112 l-22 45 -82 -1 c-46 -1
-94 -4 -108 -6z m178 -41 c17 -22 19 -137 3 -155 -4 -4 -47 -8 -95 -8 -108 -1
-121 8 -120 82 1 60 15 77 81 95 56 15 113 10 131 -14z"/>
<path d="M2970 823 c-8 -3 -41 -17 -72 -31 l-58 -25 0 -84 c0 -125 34 -192 88
-172 51 20 227 50 277 48 l50 -3 -1 54 c-3 74 -56 178 -104 202 -34 17 -144
24 -180 11z m196 -44 c13 -11 37 -85 49 -150 l7 -36 -99 -12 c-54 -7 -125 -21
-158 -32 -57 -18 -61 -19 -73 -2 -27 37 -42 146 -26 188 8 20 54 44 107 55 51
11 176 4 193 -11z"/>
</g>
</svg>
