<?xml version="1.0" standalone="no"?>
<!DOCTYPE svg PUBLIC "-//W3C//DTD SVG 20010904//EN"
 "http://www.w3.org/TR/2001/REC-SVG-20010904/DTD/svg10.dtd">
<svg version="1.0" xmlns="http://www.w3.org/2000/svg"
 width="768.000000pt" height="1024.000000pt" viewBox="0 0 768.000000 1024.000000"
 preserveAspectRatio="xMidYMid meet">
<metadata>
Created by potrace 1.16, written by Peter Selinger 2001-2019
</metadata>
<g transform="translate(0.000000,1024.000000) scale(0.100000,-0.100000)"
fill="#000000" stroke="none">
<path d="M4794 10193 c11 -84 9 -244 -3 -381 -13 -149 -8 -205 18 -200 13 3
15 14 13 56 l-4 53 27 -7 c26 -6 27 -5 21 23 -6 26 -1 35 37 70 56 52 67 57
154 77 98 22 113 21 110 -6 -3 -29 27 -35 39 -8 9 20 9 20 62 -7 54 -27 70
-50 29 -39 -88 22 -288 -68 -405 -183 -41 -39 -52 -57 -52 -81 0 -36 -7 -39
-145 -75 -49 -13 -98 -26 -107 -30 -20 -8 -169 61 -214 98 -53 44 -136 80
-184 80 -153 -2 -215 -13 -261 -44 -25 -17 -169 -283 -169 -312 0 -17 -29 -94
-75 -197 -44 -99 -69 -178 -104 -334 l-29 -129 -99 -96 c-85 -84 -202 -232
-203 -258 -1 -4 -20 -32 -43 -62 -55 -71 -91 -83 -255 -81 -161 1 -308 39
-325 85 -4 8 -18 15 -32 15 -14 0 -30 9 -37 20 -17 26 -44 26 -58 -1 -35 -64
232 -335 460 -469 136 -80 341 -154 521 -189 116 -23 278 -28 311 -10 22 12
32 5 42 -27 6 -18 2 -22 -27 -27 -54 -8 -118 -42 -209 -107 -46 -33 -128 -82
-183 -110 -129 -65 -290 -183 -435 -318 -64 -59 -139 -127 -168 -152 -30 -25
-65 -60 -79 -78 -22 -29 -24 -36 -13 -62 9 -21 24 -33 58 -44 25 -9 56 -16 69
-16 12 0 44 -10 70 -22 75 -33 167 -80 181 -91 30 -24 173 -210 170 -222 -4
-17 -109 -107 -188 -161 -123 -84 -165 -113 -215 -152 -27 -22 -94 -69 -147
-105 -53 -35 -114 -78 -135 -95 -21 -16 -62 -44 -92 -61 -29 -18 -75 -50 -100
-72 -26 -21 -52 -39 -58 -39 -19 0 -273 -176 -476 -330 -37 -28 -89 -61 -115
-72 -26 -11 -59 -29 -74 -40 -16 -11 -40 -18 -55 -16 -23 2 -29 8 -31 36 -2
18 4 55 13 82 18 55 14 70 -19 70 -68 0 -211 -150 -249 -262 -20 -58 -13 -150
14 -195 17 -27 52 -59 98 -90 2 -1 -4 -18 -13 -38 -26 -55 -46 -126 -46 -168
0 -37 40 -117 59 -117 5 0 18 -15 28 -33 17 -27 33 -37 100 -59 107 -36 177
-30 289 23 81 38 160 107 151 132 -2 6 -21 15 -42 19 -50 11 -65 24 -65 58 0
21 13 40 53 76 29 27 56 57 60 66 3 10 34 31 69 49 35 17 99 57 143 89 112 80
182 117 238 125 53 8 55 6 31 -57 -51 -133 -126 -274 -303 -571 -58 -98 -129
-217 -158 -265 -96 -162 -172 -278 -211 -323 -54 -61 -75 -107 -106 -230 -28
-115 -31 -164 -16 -249 27 -151 47 -200 137 -336 46 -71 64 -90 100 -106 89
-39 177 -28 336 42 27 12 51 19 54 16 16 -16 -143 -394 -199 -473 l-33 -45 24
-19 c13 -10 33 -19 45 -19 12 0 53 -20 91 -45 38 -25 79 -48 91 -51 48 -12 43
-40 -73 -409 -37 -116 -84 -253 -101 -295 -6 -14 -29 -79 -52 -145 -35 -100
-109 -284 -165 -410 -7 -16 -25 -61 -40 -100 -14 -38 -39 -97 -55 -130 -15
-33 -38 -82 -50 -110 -12 -27 -40 -87 -61 -133 -21 -45 -39 -86 -39 -90 0 -4
-6 -18 -13 -32 -7 -14 -33 -74 -57 -135 -24 -60 -47 -115 -51 -121 -10 -12
-69 -156 -69 -166 0 -5 202 -8 449 -8 l449 0 -8 32 c-16 58 -38 332 -30 378 4
25 17 69 29 98 28 70 27 87 -9 112 -30 21 -30 23 -30 113 0 68 4 99 16 115 9
13 13 31 9 42 -4 11 -2 20 3 20 6 0 30 39 54 87 49 96 62 127 78 189 9 39 13
42 52 47 28 4 50 14 63 30 11 13 65 46 120 72 55 27 118 59 140 73 47 30 207
112 217 112 4 0 7 -10 5 -23 -3 -32 25 -28 38 6 8 24 6 31 -9 42 -16 12 -27
11 -80 -9 -33 -13 -77 -32 -96 -43 -138 -77 -178 -97 -279 -142 -63 -28 -122
-58 -132 -67 -23 -21 -23 -25 2 92 24 107 24 108 136 185 32 22 74 52 94 67
115 86 155 117 167 129 7 7 17 13 22 13 5 0 12 10 16 22 7 23 64 76 73 68 3
-3 6 -16 6 -30 0 -14 25 -75 55 -135 l55 -109 0 -106 c0 -60 -8 -146 -18 -200
-10 -52 -20 -131 -22 -175 -3 -79 -4 -80 -34 -92 -45 -19 -199 -64 -246 -73
-57 -10 -194 -58 -234 -81 -18 -11 -36 -17 -39 -15 -15 16 85 86 199 141 74
35 119 67 119 84 0 13 -27 15 -35 2 -3 -5 -57 -37 -120 -70 -138 -72 -208
-127 -201 -156 4 -15 -4 -25 -34 -43 -38 -22 -53 -53 -31 -67 14 -8 80 26 86
45 10 31 136 83 315 130 47 12 94 25 105 30 73 27 114 37 143 32 39 -5 41 -25
7 -55 -22 -20 -44 -57 -163 -277 -38 -71 -74 -133 -147 -255 -27 -44 -59 -101
-73 -127 -23 -45 -24 -78 -2 -78 16 0 90 71 90 86 0 18 -14 18 -30 -1 -32 -39
-16 1 33 81 58 97 147 256 255 454 43 81 50 89 61 71 6 -9 16 -11 27 -6 11 4
38 9 61 11 60 6 69 -13 82 -166 7 -89 16 -141 32 -180 19 -46 23 -74 23 -170
0 -63 -3 -142 -6 -175 -22 -198 -22 -185 -1 -185 18 0 21 12 33 118 7 64 16
152 19 194 3 42 9 79 13 83 10 10 28 -4 28 -22 0 -16 97 -270 110 -288 4 -5
13 -27 19 -47 10 -31 17 -38 37 -38 20 0 24 4 20 18 -3 9 -15 53 -26 97 -12
44 -33 110 -47 147 -26 71 -27 112 -2 69 8 -13 57 -92 110 -175 72 -114 102
-152 119 -154 l23 -4 -20 34 c-130 215 -297 463 -340 503 l-33 30 76 59 c75
59 86 78 46 84 -12 2 -29 16 -37 31 -16 31 -35 136 -35 193 l0 37 78 -40 c78
-40 140 -63 377 -138 142 -46 225 -80 225 -93 0 -4 9 -8 21 -8 14 0 19 5 17
18 -5 25 -97 67 -321 143 -110 38 -211 75 -225 82 -111 58 -181 100 -186 112
-3 9 -18 15 -35 15 -23 0 -40 12 -76 52 l-47 52 6 176 c10 265 16 379 26 429
9 49 -3 77 -28 62 -14 -9 -18 -46 -27 -281 -3 -91 -8 -218 -11 -282 l-4 -116
56 -61 c39 -42 64 -61 80 -61 30 0 29 2 42 -142 7 -77 18 -134 31 -164 12 -26
21 -48 21 -49 0 -2 -25 -19 -55 -39 -30 -20 -57 -41 -60 -46 -16 -26 -22 1
-32 133 -6 78 -14 150 -18 160 -10 23 -71 49 -108 45 -28 -3 -31 1 -48 52 -11
30 -19 80 -20 110 -1 59 25 234 42 276 12 33 10 177 -3 224 -6 19 -24 65 -41
103 -16 37 -28 69 -26 70 70 52 169 98 272 127 43 12 106 34 141 49 34 16 86
34 115 40 60 13 137 54 151 81 6 10 10 28 10 39 0 15 6 21 23 21 12 0 54 7 92
15 143 31 165 34 289 36 81 2 130 -1 137 -8 11 -11 -5 -14 -178 -29 -80 -7
-107 -24 -81 -50 14 -14 18 -14 39 -1 30 19 212 30 228 14 7 -7 18 -7 36 1 14
7 43 12 65 12 41 0 56 13 52 42 -5 31 39 65 98 77 114 22 268 20 273 -4 1 -6
-53 -12 -138 -16 -152 -6 -185 -13 -185 -35 0 -13 20 -14 138 -9 75 3 157 9
182 15 25 5 51 9 58 10 17 0 15 -30 -4 -51 -23 -25 -9 -41 30 -34 20 4 55 -1
96 -15 117 -40 127 -47 144 -100 20 -60 20 -60 1 -60 -8 0 -15 9 -15 20 0 22
-19 27 -37 9 -14 -14 -57 5 -158 70 -44 28 -86 51 -92 51 -7 0 -22 8 -33 17
-23 20 -93 43 -131 43 -14 0 -34 -7 -45 -15 -19 -15 -19 -15 2 -32 12 -10 26
-27 32 -39 14 -27 32 -231 32 -365 0 -127 13 -153 83 -164 23 -4 47 -11 52
-15 19 -16 168 -30 311 -30 136 0 144 1 144 19 0 19 -9 20 -175 20 -148 0
-186 3 -252 21 -126 35 -121 28 -128 182 -3 73 -7 180 -8 238 -1 58 -6 108
-12 112 -21 15 7 20 41 7 46 -17 54 -36 21 -48 -22 -9 -25 -17 -29 -68 -5 -92
8 -216 27 -253 33 -66 64 -90 114 -90 25 0 84 -4 131 -10 47 -5 123 -11 170
-13 l85 -3 22 -44 c11 -25 31 -70 43 -100 13 -30 38 -93 57 -140 19 -47 38
-94 43 -105 4 -11 10 -29 13 -40 3 -11 24 -72 46 -135 23 -63 55 -151 70 -196
16 -44 43 -112 61 -150 34 -74 73 -167 124 -304 18 -47 53 -139 79 -205 25
-66 48 -132 52 -147 l5 -28 735 0 735 0 -63 127 c-35 71 -81 166 -102 213 -20
47 -60 135 -87 195 -114 249 -227 526 -308 750 -27 75 -100 266 -115 300 -8
17 -23 54 -35 84 -11 30 -29 73 -40 95 -10 23 -33 77 -50 121 -17 44 -40 98
-50 120 -10 22 -30 68 -44 102 -14 35 -37 86 -50 115 -13 29 -47 107 -76 173
-70 160 -86 195 -132 295 -113 242 -205 488 -234 625 -40 192 -44 238 -31 365
12 114 48 302 81 420 8 30 23 87 31 125 9 39 20 86 25 105 5 19 21 91 35 160
26 123 49 220 79 331 22 84 117 367 171 509 147 394 192 588 182 799 -9 197
-69 366 -176 499 -28 34 -51 64 -51 67 0 3 13 5 29 5 51 0 135 47 236 133 74
64 101 84 118 90 9 4 17 12 17 20 0 7 30 36 68 65 37 28 90 68 117 89 28 22
79 59 115 83 36 24 88 62 116 85 126 100 256 197 342 255 52 34 96 69 99 76
11 30 -4 32 -42 6 -92 -62 -214 -149 -266 -189 -30 -24 -61 -43 -68 -43 -23 0
-131 35 -131 43 0 4 11 12 24 18 17 8 38 7 81 -4 57 -14 95 -13 95 4 0 6 -8
12 -17 15 -50 16 -73 27 -73 35 0 14 32 11 64 -6 15 -8 37 -15 47 -15 30 0 22
26 -11 40 -39 16 -38 33 4 59 31 20 35 20 65 5 33 -17 62 -16 68 2 2 6 -8 16
-22 22 -32 15 -32 25 2 47 21 14 30 15 45 6 34 -21 63 -10 38 15 -18 18 -1 40
50 65 37 18 49 30 50 47 l0 22 -37 -24 c-102 -64 -426 -280 -483 -321 -89 -64
-203 -135 -215 -134 -5 0 -4 3 3 6 6 2 12 13 12 24 0 22 -18 16 -55 -18 -41
-36 -101 -80 -150 -108 -27 -15 -54 -33 -58 -39 -5 -7 -12 -4 -20 9 -7 11 -37
45 -67 76 l-55 55 40 30 c54 39 52 39 60 4 8 -37 29 -48 53 -28 9 8 37 20 61
27 25 7 71 29 102 49 32 21 93 59 136 87 43 27 92 57 109 66 39 22 109 66 361
232 171 111 203 136 203 156 l0 24 -23 -21 c-28 -26 -47 -28 -41 -4 7 29 -11
44 -60 49 -55 7 -58 29 -3 25 46 -4 56 13 18 33 -38 19 -70 19 -77 0 -7 -16
-41 -20 -62 -6 -10 6 7 20 59 50 40 23 78 43 83 44 6 1 10 -13 11 -31 0 -39
33 -72 71 -72 21 0 24 5 24 36 0 20 -4 33 -10 29 -5 -3 -7 -12 -3 -20 6 -18
-6 -19 -29 -1 -26 20 -22 51 12 84 26 26 40 62 25 62 -6 0 -280 -141 -350
-180 -33 -19 -107 -63 -165 -99 -118 -73 -209 -116 -262 -126 -21 -4 -45 -13
-55 -20 -14 -11 -15 -15 -4 -29 7 -9 18 -13 24 -9 5 3 1 -8 -9 -26 -14 -23
-16 -36 -8 -48 13 -20 29 -18 29 5 0 27 28 20 39 -9 7 -21 5 -30 -13 -48 -13
-13 -21 -32 -19 -44 2 -18 9 -22 34 -20 19 2 37 -4 44 -12 7 -8 19 -15 26 -15
8 0 14 -4 14 -10 0 -5 -11 -10 -25 -10 -31 0 -132 -54 -156 -83 -16 -20 -18
-20 -24 -5 -4 9 1 32 10 52 13 27 14 39 5 55 -14 28 -28 26 -40 -4 -5 -14 -16
-25 -25 -25 -19 0 -19 7 1 61 26 68 23 219 -5 289 -12 30 -30 65 -40 77 -25
30 -90 73 -111 73 -16 0 -17 8 -13 64 5 53 2 71 -17 109 -23 46 -59 80 -105
97 -23 9 -35 30 -17 30 17 0 95 82 126 133 45 76 63 161 48 239 -22 118 -94
196 -191 206 l-48 4 5 48 c4 45 2 49 -37 87 -62 59 -140 78 -197 48 -28 -14
-29 -14 -32 8 -15 111 -131 275 -225 317 -71 33 -179 21 -215 -23 -11 -13 -18
-14 -37 -5 -72 32 -171 -55 -136 -121 15 -28 -10 -41 -58 -30 -20 5 -59 9 -86
9 -46 0 -55 -4 -90 -40 -44 -45 -55 -49 -55 -21 0 11 -4 22 -9 25 -4 3 -16 31
-26 62 -10 31 -26 65 -36 75 -10 10 -25 33 -35 51 -33 65 -78 128 -91 128 -8
0 -32 9 -54 21 -22 11 -50 19 -61 17 -80 -11 49 114 190 187 41 21 102 44 135
51 61 12 63 12 113 -17 29 -16 57 -36 64 -44 7 -8 18 -15 24 -15 12 0 59 -159
47 -161 -3 0 -37 -2 -76 -4 -95 -5 -235 -49 -235 -75 0 -29 19 -28 75 1 43 22
70 28 153 33 78 4 102 3 103 -7 1 -6 2 -21 3 -32 1 -29 40 -27 44 2 2 13 -8
60 -22 105 -13 46 -30 108 -36 138 -22 99 -52 224 -66 270 -13 45 -37 153 -49
223 -4 28 -11 37 -25 37 -17 0 -18 -5 -13 -52 3 -29 10 -61 14 -70 5 -9 9 -25
9 -34 0 -13 -11 -7 -39 23 -22 23 -57 47 -78 54 -21 7 -50 21 -65 32 -27 20
-48 16 -48 -8 0 -16 -60 -45 -94 -45 -51 0 -103 -24 -143 -66 l-42 -44 -3 103
c-3 99 -4 102 -27 105 -22 4 -23 2 -17 -45z m434 -72 c53 -27 162 -161 162
-198 0 -9 9 -47 21 -85 23 -80 21 -104 -7 -64 -73 106 -133 144 -241 152 -121
10 -216 -24 -302 -108 -17 -17 -34 -29 -37 -26 -2 3 0 25 5 49 6 24 11 63 11
87 0 35 7 52 37 89 38 46 96 82 135 84 13 0 46 9 73 19 65 24 98 24 143 1z
m630 -758 c98 -46 215 -214 215 -311 1 -71 -11 -121 -35 -155 -20 -28 -23 -29
-32 -13 -32 54 -70 98 -92 108 -33 15 -79 0 -79 -27 0 -16 7 -20 36 -20 44 0
61 -13 99 -80 41 -72 38 -116 -13 -156 -13 -10 -18 -23 -14 -33 6 -15 9 -15
37 -1 32 17 69 12 72 -8 0 -7 2 -19 3 -27 3 -30 -25 -71 -47 -68 -30 4 -47
-27 -26 -48 15 -16 19 -16 41 -1 37 24 69 82 69 124 0 29 -7 44 -31 65 -28 25
-31 33 -27 73 2 25 10 53 19 63 24 27 67 109 60 115 -9 10 18 67 38 77 29 16
87 11 128 -9 68 -35 83 -73 51 -133 -12 -22 -18 -44 -13 -49 4 -4 27 -4 50 0
93 18 180 -44 203 -145 35 -149 -31 -291 -178 -384 -39 -25 -71 -51 -71 -57
-1 -16 31 -17 47 -1 12 12 14 12 101 -30 41 -20 61 -50 72 -105 9 -50 -3 -104
-32 -141 -16 -20 -19 -30 -10 -39 8 -8 17 -5 34 11 20 19 28 20 58 12 78 -22
124 -96 135 -216 12 -136 -32 -261 -126 -354 -64 -64 -118 -94 -155 -84 -20 5
-25 3 -25 -14 0 -27 26 -35 66 -22 30 10 38 9 66 -11 77 -54 128 -154 128
-252 0 -40 -30 -135 -54 -172 -22 -33 -94 -84 -143 -102 -66 -22 -97 -17 -150
27 -62 52 -58 49 -129 97 -72 49 -183 103 -211 103 -11 0 -27 8 -36 18 -9 10
-47 25 -83 32 -36 8 -68 19 -71 26 -7 18 177 279 225 320 l25 21 -33 49 c-18
27 -44 61 -57 75 l-25 27 67 -6 c67 -5 67 -5 101 32 18 20 37 36 42 36 13 0
43 121 46 185 3 49 -43 233 -64 260 -4 6 -24 60 -45 120 -41 123 -51 149 -72
185 -7 14 -34 65 -58 113 -41 82 -138 213 -195 265 -14 12 -54 39 -90 59 -36
20 -87 50 -115 68 -62 39 -242 127 -310 150 -74 25 -155 37 -290 41 -221 7
-310 13 -335 23 -25 9 -25 9 13 25 28 12 42 14 57 6 11 -6 24 -9 29 -6 18 11
127 23 141 16 22 -12 220 -15 305 -6 65 8 73 11 116 53 l46 44 83 -15 c100
-19 144 -45 171 -98 20 -39 21 -62 4 -115 -5 -17 -3 -25 10 -29 26 -10 39 12
38 65 -1 72 -20 117 -66 156 -25 22 -35 35 -24 35 27 0 30 20 7 45 -17 18 -21
31 -16 50 13 50 97 59 115 12 11 -29 37 -51 51 -42 14 8 13 31 -2 56 -31 50
81 79 160 42z m-1536 -690 c12 -6 -12 -60 -52 -120 -38 -55 -182 -183 -207
-183 -7 0 -16 -6 -20 -12 -16 -25 -54 -39 -88 -32 -28 5 -35 3 -35 -9 0 -9 5
-19 10 -22 14 -9 12 -25 -3 -25 -14 0 -49 42 -60 73 -3 9 -13 17 -22 17 -28 0
-15 -39 29 -86 47 -48 78 -55 85 -19 4 23 19 35 44 35 24 0 93 47 183 124 102
87 113 96 122 96 10 0 42 37 61 69 12 22 11 26 -5 38 -15 11 -16 17 -7 31 6 9
17 15 25 13 7 -2 28 -6 46 -9 18 -2 32 -10 32 -18 0 -8 -5 -14 -11 -14 -22 0
-4 -45 21 -52 147 -42 143 -40 167 -100 13 -33 29 -108 38 -184 9 -71 20 -149
25 -174 5 -25 9 -66 10 -92 0 -56 -10 -60 -64 -23 -20 14 -42 25 -48 25 -6 0
-40 12 -76 26 -114 45 -130 1 -17 -48 77 -34 151 -89 160 -119 4 -11 1 -27 -6
-35 -10 -13 -9 -22 6 -50 18 -34 18 -35 -1 -49 -22 -18 -114 -65 -126 -65 -5
0 -21 -8 -36 -18 -179 -123 -286 -182 -327 -182 -15 0 -40 -9 -56 -21 l-29
-21 -15 36 c-16 38 -20 143 -6 164 5 9 25 13 52 12 93 -4 119 0 119 15 0 8 -6
15 -12 16 -139 12 -196 0 -262 -56 -28 -24 -37 -37 -32 -50 6 -16 8 -17 24 -1
37 32 45 21 38 -51 -11 -120 -20 -157 -38 -161 -28 -5 -57 32 -56 75 0 38 -40
151 -87 248 -32 65 -61 174 -69 253 -3 35 -10 71 -16 82 -7 13 -7 21 0 25 15
9 71 -18 66 -32 -3 -6 -10 -40 -16 -74 -12 -65 -7 -79 30 -79 8 0 36 -7 61
-16 26 -10 55 -14 65 -10 18 7 18 8 -1 22 -17 13 -18 16 -5 24 8 5 27 10 42
10 34 0 44 16 19 29 -23 13 -68 -1 -85 -25 -10 -13 -15 -13 -47 0 -46 19 -54
47 -30 111 10 28 27 76 36 107 l18 58 -26 26 c-14 14 -27 37 -29 52 -4 34 -26
40 -37 10 -19 -51 -67 -65 -123 -36 -29 15 -37 25 -33 37 4 9 11 27 15 41 27
90 76 140 185 191 60 28 192 106 220 129 59 51 216 82 267 53z m658 -338 c51
-54 64 -143 27 -191 -64 -84 -186 -191 -201 -177 -3 4 -6 17 -6 30 0 18 6 23
24 23 17 0 47 21 92 64 62 60 65 65 53 87 -7 13 -12 30 -11 37 2 7 -11 18 -27
25 -22 8 -31 18 -31 34 0 33 25 29 40 -6 12 -31 35 -47 45 -31 9 14 -44 110
-60 110 -36 0 -50 -33 -87 -212 -11 -57 -38 -82 -38 -35 1 41 40 200 56 224
30 47 89 55 124 18z m-1161 -159 c9 -11 6 -15 -15 -20 -14 -4 -37 -19 -51 -34
-24 -26 -25 -26 -39 -7 -20 27 -13 38 29 48 20 5 37 13 37 18 0 14 26 11 39
-5z m1092 -6 c25 -14 24 -28 -3 -57 -26 -28 -54 -31 -43 -5 4 9 10 29 13 45 5
30 6 31 33 17z m-1091 -70 c0 -5 -4 -10 -10 -10 -5 0 -10 5 -10 10 0 6 5 10
10 10 6 0 10 -4 10 -10z m3505 -120 c-4 -12 3 -36 19 -63 25 -42 25 -44 8 -60
-26 -24 -45 -22 -37 3 4 13 0 31 -10 46 -20 31 -38 27 -113 -23 -65 -44 -96
-85 -88 -117 7 -27 50 -40 79 -24 37 19 39 1 3 -33 -36 -34 -39 -35 -82 -25
-42 10 -44 13 -38 36 3 14 9 49 13 79 l6 55 120 73 c66 40 121 73 123 73 2 0
1 -9 -3 -20z m109 3 l23 -18 -23 -30 c-32 -43 -23 -75 22 -75 34 0 52 14 34
25 -5 3 -10 14 -9 23 0 14 3 13 16 -5 8 -13 24 -23 34 -23 25 0 24 -13 -1 -25
-34 -17 -361 -228 -366 -237 -7 -12 -34 -10 -34 2 0 6 8 14 18 17 28 11 125
111 117 122 -4 7 14 21 45 35 92 43 105 66 70 124 -25 40 -25 58 -2 71 24 14
30 14 56 -6z m-2464 -55 c27 -29 46 -55 42 -58 -4 -3 -50 -3 -102 0 -92 5 -95
6 -97 30 -2 20 6 31 40 52 23 15 48 28 55 28 8 0 36 -24 62 -52z m2594 26 c14
-5 24 -34 12 -34 -2 0 -11 -3 -19 -6 -15 -5 -31 21 -21 37 6 11 8 11 28 3z
m-284 -80 c0 -28 -19 -52 -64 -78 -92 -54 -103 -17 -16 51 59 45 80 52 80 27z
m-244 -78 c13 -35 -45 -156 -75 -156 -7 0 -11 6 -7 15 10 28 -15 77 -48 90
l-31 13 28 7 c15 4 38 4 52 1 21 -5 27 -2 35 19 10 27 37 34 46 11z m-2321
-124 c6 -45 4 -51 -43 -122 -27 -41 -72 -116 -100 -166 -28 -49 -60 -98 -72
-109 -25 -22 -26 -12 -2 23 10 15 33 56 52 92 18 36 52 97 76 135 57 95 79
143 70 152 -4 5 -17 -3 -28 -17 -11 -14 -28 -24 -38 -22 -13 2 -36 -31 -93
-130 -41 -73 -87 -153 -101 -178 -15 -25 -34 -61 -43 -80 -10 -19 -18 -36 -19
-38 -5 -10 -54 21 -54 35 0 15 2 15 16 -3 8 -10 17 -14 20 -9 2 6 15 28 29 50
13 22 42 74 64 116 22 41 60 106 85 142 25 37 46 74 46 82 0 8 10 21 23 30 56
40 93 63 99 64 3 1 9 -20 13 -47z m2380 -32 c11 -18 -6 -50 -35 -65 -38 -19
-37 -20 -43 13 -4 20 0 31 16 44 25 20 53 23 62 8z m-2485 -80 c-12 -23 -23
-40 -26 -37 -2 2 5 23 18 45 28 54 36 47 8 -8z m-85 21 c-3 -6 -11 -11 -17
-11 -6 0 -6 6 2 15 14 17 26 13 15 -4z m205 -29 c0 -4 -19 -39 -43 -77 -24
-39 -72 -124 -107 -189 -50 -94 -65 -116 -70 -100 -9 22 -12 14 32 89 154 261
188 311 188 277z m-182 -109 c-8 -10 -30 -46 -49 -80 -18 -34 -35 -60 -37 -58
-4 4 43 92 73 139 10 15 20 24 23 21 3 -3 -2 -13 -10 -22z m130 -116 c-29 -47
-65 -107 -80 -132 -16 -25 -32 -43 -38 -40 -11 7 8 45 58 117 17 26 32 54 32
63 0 9 11 33 25 53 14 20 25 41 25 47 0 6 6 17 13 24 10 10 13 7 15 -17 2 -20
-12 -53 -50 -115z m2082 125 c0 -4 -5 -13 -12 -20 -18 -18 -28 -15 -28 8 0 13
7 20 20 20 11 0 20 -4 20 -8z m-2882 -124 c-3 -49 -1 -53 25 -66 33 -16 34
-28 3 -36 -28 -7 -78 -97 -69 -124 8 -24 33 -42 49 -35 21 8 17 -14 -8 -47
l-21 -29 -16 32 c-21 43 -58 47 -100 11 -41 -34 -61 -81 -49 -113 7 -18 4 -29
-11 -45 -27 -30 -61 -93 -61 -116 0 -49 76 -67 124 -29 l26 20 0 -41 0 -41
-35 7 c-25 4 -43 1 -60 -10 -25 -17 -55 -74 -55 -107 0 -26 27 -49 59 -49 15
0 35 -8 44 -17 14 -16 14 -20 1 -38 -14 -19 -16 -19 -28 -2 -23 30 -38 21 -34
-20 2 -29 -1 -38 -12 -38 -8 0 -16 10 -18 23 -5 36 -27 19 -28 -22 0 -20 -8
-44 -17 -53 -16 -16 -17 -15 -17 21 0 30 -3 37 -17 34 -14 -3 -18 -14 -18 -53
0 -51 -10 -79 -25 -70 -4 3 -6 14 -3 24 5 20 -11 36 -27 26 -6 -3 -6 -15 0
-29 10 -26 3 -66 -11 -66 -5 0 -9 9 -9 20 0 28 -29 97 -62 150 l-29 45 28 23
c62 52 83 74 83 89 0 8 16 33 35 56 43 50 44 76 4 121 l-31 36 22 30 c21 29
21 32 6 49 -16 17 -15 21 9 56 14 21 25 41 25 46 0 14 -61 59 -81 59 -22 0
-23 6 -4 40 18 31 19 74 3 88 -7 5 -24 12 -38 14 -22 3 -17 7 32 31 32 16 60
32 63 38 11 17 25 9 25 -14 0 -27 26 -67 43 -67 7 0 25 -13 40 -30 25 -26 36
-30 79 -30 43 0 54 4 80 32 16 17 32 44 35 60 3 16 10 31 14 34 16 9 -1 24
-27 24 -21 0 -24 -5 -24 -33 0 -44 -31 -77 -73 -77 -18 0 -39 4 -47 10 -12 7
-9 13 13 30 52 41 19 80 -34 41 -40 -30 -59 -21 -59 25 l0 36 43 -5 c23 -3 56
-9 73 -12 21 -5 41 -1 65 13 31 17 34 23 32 60 -1 36 2 42 25 51 51 18 54 15
50 -41z m442 38 c0 -2 -7 -9 -15 -16 -13 -11 -14 -10 -9 4 5 14 24 23 24 12z
m2879 -16 c29 -5 55 -10 57 -10 2 0 4 -4 4 -10 0 -5 -14 -10 -32 -10 -43 0
-148 22 -148 31 0 10 31 17 50 13 8 -2 39 -8 69 -14z m-2959 -19 c-6 -12 -15
-21 -21 -21 -10 0 -5 13 14 38 15 19 20 7 7 -17z m452 -115 c-43 -85 -50 -94
-55 -70 -5 29 9 65 63 159 31 53 35 57 38 34 2 -15 -16 -64 -46 -123z m-929
112 c8 -29 -9 -48 -44 -48 -35 0 -38 21 -7 50 28 26 44 25 51 -2z m3425 -43
c15 -15 -30 -25 -118 -25 -52 0 -106 -3 -119 -7 -34 -9 -18 15 23 33 22 11 55
13 120 10 48 -3 91 -8 94 -11z m-2743 -31 c-8 -20 -15 -38 -15 -40 0 -2 -7 -4
-16 -4 -13 0 -12 5 5 29 12 16 21 34 21 40 0 6 5 11 10 11 6 0 4 -15 -5 -36z
m-330 -8 c13 -20 15 -42 9 -123 -3 -54 -8 -100 -11 -103 -2 -2 -17 3 -33 12
-27 15 -30 15 -70 -9 -37 -22 -41 -23 -32 -6 19 35 40 46 78 40 26 -4 37 -2
41 9 7 19 5 20 -39 28 -31 6 -41 2 -70 -23 -43 -38 -86 -125 -109 -221 -24
-100 -24 -141 2 -174 11 -14 18 -27 15 -27 -3 -1 -11 -2 -17 -3 -5 0 -19 -12
-29 -26 -31 -41 -44 -15 -43 88 2 105 34 205 93 292 49 73 114 130 140 123 13
-3 29 6 49 28 28 30 29 34 16 59 -16 32 -44 42 -71 27 -26 -14 -33 -27 -35
-62 -1 -23 -3 -25 -6 -8 -2 12 -11 27 -19 33 -22 19 -17 40 9 40 13 0 27 4 33
9 10 10 38 18 66 20 10 0 25 -10 33 -23z m136 -38 c21 -9 53 -20 73 -23 32 -6
35 -10 30 -31 -7 -28 11 -32 35 -9 28 26 79 65 85 65 17 0 0 -27 -49 -79 -50
-53 -55 -61 -46 -85 11 -27 25 -33 36 -16 3 6 12 10 18 10 7 0 -3 -14 -20 -30
-38 -35 -42 -50 -11 -50 21 0 21 -1 -5 -28 -18 -18 -27 -39 -27 -60 0 -21 -10
-43 -30 -65 -16 -19 -30 -45 -30 -58 0 -13 -32 -77 -70 -143 -39 -65 -70 -125
-70 -132 0 -28 30 -13 49 25 11 21 29 41 41 44 21 5 27 31 9 42 -7 5 -5 12 4
23 16 18 88 159 130 253 17 38 46 76 91 119 61 59 81 90 56 90 -6 0 -26 -17
-45 -37 -36 -39 -62 -39 -29 -1 60 71 80 88 103 88 22 0 23 -3 17 -37 -4 -21
-7 -42 -7 -48 1 -5 3 -49 5 -97 4 -82 14 -118 42 -145 13 -14 10 -40 -12 -89
-32 -73 -200 -194 -269 -194 -30 0 -38 -13 -45 -70 l-5 -45 -53 3 c-44 3 -60
-1 -91 -21 -24 -16 -47 -24 -60 -20 -26 7 -59 -14 -135 -86 -66 -63 -110 -126
-102 -147 10 -25 31 -14 48 24 18 39 157 187 166 177 3 -3 -12 -24 -35 -48
-55 -58 -93 -111 -93 -130 0 -30 24 -18 47 22 55 96 207 221 235 193 6 -6 4
-15 -7 -23 -67 -57 -149 -150 -210 -239 -66 -96 -123 -170 -144 -186 -19 -15
-7 -31 29 -39 47 -10 73 2 65 32 -5 20 1 32 32 62 21 21 43 40 49 42 5 2 31
34 58 71 26 37 67 89 92 116 24 28 44 54 44 59 0 6 10 18 22 29 21 19 21 19
14 -1 -8 -21 -17 -84 -62 -430 -15 -110 -30 -227 -35 -260 -17 -125 -29 -295
-32 -442 -1 -109 -5 -153 -14 -153 -13 0 -39 32 -66 81 -16 29 -20 31 -33 17
-14 -14 -12 -20 14 -59 23 -34 28 -48 20 -62 -8 -16 -12 -14 -35 20 -15 21
-34 58 -44 83 -9 25 -24 46 -33 48 -22 5 -21 -30 4 -78 17 -33 18 -40 6 -40
-18 0 -69 61 -76 92 -3 13 -12 23 -20 23 -22 0 -24 -32 -5 -61 29 -44 6 -40
-35 6 -22 25 -39 48 -40 53 0 4 -6 7 -14 7 -25 0 -24 -24 2 -52 31 -33 24 -45
-15 -25 -15 8 -40 17 -54 20 -15 4 -34 18 -43 32 -18 27 -46 34 -46 11 0 -8 9
-21 20 -29 11 -8 17 -17 13 -20 -14 -14 -38 -6 -59 21 -17 20 -25 24 -34 16
-9 -9 -9 -17 -1 -32 6 -10 7 -22 4 -26 -13 -13 -30 -5 -42 21 -11 23 -10 29 3
39 9 6 16 20 16 30 0 24 42 64 67 64 10 0 24 9 31 20 7 11 18 20 26 20 22 0
50 39 53 73 5 71 16 123 32 141 20 23 88 55 118 56 32 0 50 35 56 108 5 57 3
64 -20 81 -13 11 -38 26 -54 33 -35 16 -38 38 -5 38 33 0 62 58 40 80 -19 19
-44 5 -64 -39 l-16 -32 -29 23 c-25 19 -42 23 -104 23 -74 0 -74 0 -84 30 -6
17 -14 33 -20 36 -5 4 1 13 13 22 27 19 21 47 -10 47 -23 0 -22 -4 -24 72 l-2
57 40 -5 c23 -2 59 -7 81 -10 35 -6 38 -5 27 9 -7 8 -24 18 -37 21 -46 12 -26
26 33 24 45 -2 57 0 57 12 0 21 -118 35 -157 19 -45 -18 -44 -4 4 53 46 55
176 223 216 280 13 18 65 76 116 130 90 94 106 119 204 313 35 68 54 153 52
229 -3 92 -3 92 18 75 9 -8 33 -22 53 -31z m501 -3 c-5 -17 -16 -31 -25 -33
-21 -4 -21 10 -1 50 19 37 37 25 26 -17z m2358 16 c0 -5 -21 -12 -47 -15 -157
-18 -165 -18 -161 -4 7 19 208 38 208 19z m-3037 -18 c11 -10 -13 -32 -28 -27
-8 3 -11 12 -8 20 5 15 25 19 36 7z m-113 -49 c0 -12 -46 -54 -59 -54 -3 0
-12 4 -20 9 -14 9 -4 38 27 74 14 16 16 16 34 1 10 -10 18 -23 18 -30z m2897
40 c-3 -3 -12 -4 -19 -1 -8 3 -5 6 6 6 11 1 17 -2 13 -5z m149 -50 c-25 -22
-29 -23 -40 -9 -11 15 -14 15 -41 0 -24 -12 -47 -14 -112 -9 -72 6 -84 4 -89
-11 -5 -13 -9 -14 -15 -3 -12 19 47 48 81 38 15 -4 71 -2 126 5 54 7 104 13
109 14 6 0 -3 -11 -19 -25z m-2256 -26 c0 -59 -13 -100 -34 -108 -12 -4 -34
-24 -50 -44 -15 -20 -31 -36 -37 -36 -10 0 13 50 33 72 43 44 77 97 67 103
-12 8 -66 -40 -75 -67 -5 -17 -34 -26 -34 -10 0 14 36 61 65 87 38 32 65 33
65 3z m-1310 -25 c0 -22 -36 -82 -63 -105 -32 -28 -52 -4 -21 26 19 19 10 38
-14 29 -12 -5 -10 1 8 21 39 44 90 60 90 29z m1025 -3 c-3 -5 -10 -10 -16 -10
-5 0 -9 5 -9 10 0 6 7 10 16 10 8 0 12 -4 9 -10z m2470 2 c-17 -14 -87 -31
-152 -36 -66 -4 -75 -2 -66 20 4 11 20 13 72 8 37 -3 77 -1 91 4 31 13 68 15
55 4z m-3631 -27 c-6 -16 -34 -21 -34 -7 0 13 11 22 26 22 8 0 11 -6 8 -15z
m-50 -41 c4 -9 4 -19 2 -21 -8 -8 -26 8 -26 23 0 19 16 18 24 -2z m560 -20
c10 -27 7 -38 -7 -25 -18 14 -27 4 -27 -31 0 -23 -4 -28 -25 -28 -20 0 -25 5
-25 27 0 50 69 97 84 57z m3021 6 c-3 -5 -13 -10 -21 -10 -8 0 -14 5 -14 10 0
6 9 10 21 10 11 0 17 -4 14 -10z m-2796 -31 c-11 -6 -10 -9 4 -15 10 -4 23 -2
30 5 35 35 28 -1 -17 -91 -39 -79 -56 -103 -71 -103 -11 0 -21 -8 -23 -18 -2
-9 -12 -17 -24 -17 -19 0 -20 4 -15 56 3 31 18 80 32 110 28 57 86 116 93 94
3 -7 -2 -16 -9 -21z m2716 0 c7 -11 -31 -59 -47 -59 -8 0 -1 44 9 63 6 11 31
9 38 -4z m-3274 -14 c24 -13 28 -19 20 -34 -13 -24 -31 -37 -61 -44 -14 -3
-35 -8 -46 -12 -18 -6 -22 -2 -26 25 -4 26 1 35 26 55 36 29 47 30 87 10z
m-237 -28 c14 -19 21 -48 24 -93 4 -61 2 -67 -24 -95 -22 -23 -25 -32 -16 -41
31 -31 81 48 81 127 0 28 -6 68 -14 90 -18 49 -18 45 -2 45 23 0 37 -47 37
-121 0 -75 -7 -96 -50 -146 -15 -17 -30 -37 -33 -45 -4 -9 -13 -4 -29 17 -35
46 -99 104 -135 122 -36 17 -40 28 -20 66 13 25 73 97 81 97 2 0 19 -14 36
-30 23 -21 36 -28 43 -21 7 7 5 16 -6 29 -9 10 -17 22 -17 26 0 14 24 0 44
-27z m1418 -67 c-2 -22 -8 -37 -13 -34 -10 6 -12 57 -2 67 14 15 18 5 15 -33z
m-862 6 c0 -7 -6 -28 -14 -46 l-13 -33 -5 39 c-3 22 0 42 6 46 17 12 26 9 26
-6z m2229 3 c20 -7 43 -14 51 -17 8 -3 -25 -13 -75 -22 -96 -18 -106 -22 -172
-51 -24 -10 -45 -19 -48 -19 -20 0 -134 -88 -200 -154 -98 -99 -180 -232 -225
-366 -26 -80 -63 -140 -76 -127 -2 2 15 40 37 85 49 99 62 189 34 241 -13 27
-21 32 -41 28 -13 -2 -24 -3 -24 -2 0 8 33 66 41 70 5 4 9 -8 9 -25 0 -23 6
-33 26 -42 35 -16 69 4 108 62 17 25 41 53 53 63 31 25 29 33 -13 53 -33 16
-40 16 -63 3 -34 -19 -41 -58 -12 -66 27 -7 26 -16 -4 -50 -20 -23 -24 -25
-25 -10 0 9 -11 23 -25 29 -31 14 -31 17 4 64 44 61 77 87 101 81 11 -3 20 -1
20 4 0 5 5 9 10 9 6 0 10 -11 10 -25 0 -31 21 -41 52 -24 39 21 58 48 52 78
-6 26 -3 29 48 45 30 9 66 25 79 34 13 9 44 23 69 30 25 7 59 17 75 21 44 13
84 13 124 0z m-2296 -31 c2 -7 4 -26 3 -43 -1 -21 -7 -31 -21 -33 -11 -3 -24
-10 -28 -18 -12 -21 -27 -17 -27 9 0 24 45 97 59 97 5 0 11 -6 14 -12z m-253
-22 c0 -24 -25 -36 -73 -36 -41 0 -48 3 -43 16 3 9 6 19 6 24 0 10 54 17 88
11 12 -2 22 -9 22 -15z m2728 -28 c36 -13 45 -34 10 -24 -87 26 -234 11 -351
-35 -96 -38 -215 -151 -314 -299 -37 -56 -109 -248 -118 -315 -9 -68 -15 -86
-25 -80 -5 3 -11 1 -15 -5 -14 -22 -35 -10 -35 20 0 20 5 30 15 30 9 0 20 12
25 26 14 35 13 44 -5 44 -9 0 -18 6 -20 13 -9 23 51 162 114 264 130 213 329
350 536 370 33 3 62 8 65 10 7 6 78 -5 118 -19z m-2725 -84 c38 -38 39 -53 2
-84 -13 -11 -18 -10 -33 2 -38 34 -60 39 -92 23 -16 -9 -30 -22 -30 -30 0 -19
58 -55 88 -55 26 0 26 -17 -1 -34 -12 -8 -22 -7 -37 2 -11 6 -32 12 -48 12
-20 0 -35 9 -51 31 l-23 31 25 26 c13 15 36 45 50 68 23 37 29 41 69 42 38 2
49 -3 81 -34z m2742 25 c117 -21 203 -88 276 -214 75 -128 101 -228 101 -383
-1 -132 -27 -219 -96 -316 -42 -60 -161 -176 -189 -185 -7 -2 -23 -12 -37 -21
-66 -45 -141 -64 -260 -64 -122 -1 -196 16 -300 69 -99 50 -232 255 -250 387
-13 93 16 209 90 358 63 125 211 288 294 325 118 51 249 67 371 44z m-637 -17
c3 -9 -2 -13 -14 -10 -9 1 -19 9 -22 16 -3 9 2 13 14 10 9 -1 19 -9 22 -16z
m-1659 -21 c9 -6 10 -11 2 -15 -13 -8 -31 1 -31 15 0 11 11 11 29 0z m-180
-74 c13 -16 5 -28 -14 -21 -22 9 -28 -16 -10 -36 16 -17 16 -20 2 -26 -30 -11
-62 0 -65 24 -8 52 56 95 87 59z m-339 -7 c12 -8 11 -10 -7 -10 -13 0 -23 5
-23 10 0 13 11 13 30 0z m395 -50 c7 -11 -23 -60 -36 -60 -12 0 -11 13 1 44
10 27 24 33 35 16z m1595 -50 c0 -5 -4 -10 -10 -10 -5 0 -10 5 -10 10 0 6 5
10 10 10 6 0 10 -4 10 -10z m-79 -102 c17 -32 6 -136 -21 -188 -40 -78 -86
-138 -145 -185 -31 -26 -59 -45 -61 -42 -6 6 37 129 84 240 40 94 64 111 70
48 4 -39 -12 -82 -39 -107 -20 -18 -26 -64 -9 -64 15 0 68 87 80 130 16 58 12
89 -15 115 -26 23 -21 40 9 29 12 -5 16 0 16 20 0 32 15 34 31 4z m-1725 -136
c-8 -9 -19 -13 -22 -9 -10 9 16 38 28 31 6 -4 4 -13 -6 -22z m-286 -46 c0 -8
-15 -25 -34 -39 -21 -16 -43 -48 -57 -82 -12 -30 -29 -55 -36 -55 -8 0 -31
-16 -51 -36 -20 -20 -55 -49 -77 -64 -86 -59 -149 -78 -90 -28 17 15 26 31 24
43 -4 17 -9 15 -47 -20 -28 -25 -42 -45 -39 -56 6 -21 -45 -73 -64 -67 -7 2
-36 -13 -64 -34 -27 -21 -74 -51 -104 -65 -30 -15 -75 -44 -99 -66 -25 -21
-57 -46 -71 -55 -14 -9 -44 -30 -66 -48 -22 -17 -62 -44 -90 -59 -68 -37 -134
-82 -170 -116 -16 -15 -55 -40 -85 -55 -30 -15 -57 -30 -60 -34 -3 -4 -21 -15
-40 -25 -103 -53 -250 -166 -250 -192 0 -15 26 -18 35 -3 12 19 22 10 21 -17
0 -16 3 -44 7 -64 6 -32 5 -37 -18 -47 -15 -7 -25 -20 -25 -32 0 -32 42 -25
86 15 21 19 43 35 50 35 7 0 65 34 131 75 65 42 154 93 199 115 44 21 88 48
98 59 10 11 37 22 67 26 81 11 220 115 145 109 -9 -1 -16 3 -16 10 1 16 25 46
39 46 19 0 51 39 51 64 0 13 -7 29 -15 36 -18 15 -19 50 -3 85 15 34 38 32 38
-3 0 -15 6 -34 12 -40 10 -10 10 -17 0 -33 -7 -11 -10 -23 -8 -28 5 -8 -10
-170 -19 -217 -4 -20 -11 -22 -65 -21 -41 0 -65 -5 -77 -15 -10 -9 -80 -48
-156 -87 -77 -40 -206 -117 -288 -171 -83 -55 -156 -100 -162 -100 -7 0 -17
-4 -22 -9 -6 -5 -27 -14 -47 -20 -47 -16 -103 -96 -113 -164 -6 -41 -4 -53 18
-86 14 -21 42 -46 62 -55 43 -21 38 -31 -30 -65 -40 -20 -55 -22 -113 -16 -77
7 -164 46 -188 83 -31 48 7 196 58 223 36 19 40 -4 12 -56 -21 -37 -27 -60
-26 -103 1 -30 7 -61 13 -69 35 -42 125 -57 167 -27 29 20 29 46 0 42 -18 -2
-27 6 -43 35 -20 37 -20 38 -1 52 12 9 17 21 13 36 -4 15 5 32 34 64 43 46 47
55 24 55 -19 0 -19 14 -1 30 8 6 22 34 31 61 19 55 14 106 -13 147 -15 23 -20
24 -74 18 -47 -6 -58 -4 -58 7 0 8 -6 17 -13 20 -15 6 -37 71 -37 111 0 32
-13 33 -40 4 -32 -34 -46 -65 -64 -147 -20 -88 -11 -122 35 -141 24 -10 29
-18 29 -46 0 -19 -4 -34 -9 -34 -22 0 -108 97 -114 129 -16 77 -9 106 43 184
45 68 144 166 155 155 3 -2 -1 -29 -7 -60 -15 -73 -1 -109 53 -133 35 -16 41
-17 52 -3 6 8 32 22 57 32 25 9 79 44 120 76 41 33 111 85 155 115 79 53 114
78 227 162 32 24 84 57 115 75 32 17 76 46 98 63 22 17 60 44 84 59 24 15 80
54 125 87 44 32 99 71 120 86 22 16 79 57 127 93 49 36 151 109 227 162 76 54
149 109 162 123 23 25 40 25 40 1z m2020 -190 c0 -40 -3 -45 -32 -57 -40 -16
-169 -101 -187 -123 -12 -14 -41 -23 -41 -12 0 2 9 25 19 50 22 50 77 104 155
153 73 45 86 43 86 -11z m-1855 -41 c9 -64 38 -145 70 -195 l27 -43 -16 -56
c-30 -99 -30 -101 -8 -101 15 0 22 11 31 48 30 123 33 127 75 130 31 3 38 0
33 -12 -3 -8 -9 -42 -13 -75 -8 -72 7 -86 55 -52 16 12 38 21 48 21 10 0 24 5
31 12 15 15 15 4 -1 -50 -13 -43 -48 -72 -87 -72 -34 0 -80 -49 -80 -83 0 -18
-8 -61 -18 -96 -18 -63 -19 -64 -71 -83 -29 -11 -55 -17 -58 -14 -6 6 4 48 33
135 14 43 12 61 -7 61 -11 0 -92 -60 -97 -72 -2 -5 -10 -8 -18 -8 -12 0 -12
32 1 76 2 6 33 28 70 49 63 35 85 58 71 73 -4 3 -19 -2 -34 -11 -15 -10 -51
-29 -79 -44 -57 -27 -64 -41 -78 -148 l-6 -50 45 -14 c25 -7 50 -10 55 -6 17
10 13 -33 -5 -61 -16 -23 -15 -26 1 -44 10 -11 15 -23 12 -27 -4 -3 -2 -12 4
-19 8 -10 16 -11 30 -3 19 10 28 -4 10 -16 -16 -9 -25 -95 -12 -108 19 -19 13
-40 -21 -77 -26 -27 -34 -31 -36 -17 -4 19 -27 23 -38 6 -4 -7 0 -16 9 -21 14
-7 15 -12 4 -28 -6 -11 -18 -20 -25 -20 -7 0 -11 4 -8 9 3 4 -1 17 -9 27 -13
18 -14 18 -20 1 -4 -9 -5 -30 -2 -45 5 -28 -7 -62 -23 -62 -5 0 -13 18 -16 40
-6 39 -19 58 -31 46 -10 -9 -5 -78 6 -89 11 -11 -16 -60 -29 -52 -5 3 -12 30
-15 60 -5 37 -12 55 -21 55 -8 0 -14 -10 -15 -22 -2 -49 3 -94 13 -105 10 -13
3 -33 -13 -33 -5 0 -9 6 -9 14 0 7 -7 19 -15 26 -8 7 -21 33 -29 59 -7 26 -19
46 -27 46 -22 0 -22 -52 0 -95 19 -37 19 -39 2 -54 -27 -24 -42 0 -44 69 -1
44 -4 55 -17 53 -20 -4 -26 -102 -9 -135 15 -28 7 -38 -19 -24 -23 12 -37 82
-26 137 6 32 4 36 -12 32 -17 -3 -19 -13 -19 -91 0 -71 -4 -90 -16 -97 -14 -8
-16 0 -13 73 6 133 11 187 28 281 9 49 16 99 16 112 0 14 4 32 10 42 5 9 17
44 25 77 43 163 37 148 197 485 62 130 119 205 196 257 17 12 22 22 17 40 -4
18 -1 23 14 23 15 0 20 -10 26 -45z m1956 8 c4 -49 16 -82 66 -180 74 -146
140 -214 255 -261 88 -37 198 -62 266 -62 126 1 275 62 376 152 72 64 59 32
-17 -39 -69 -66 -146 -114 -223 -142 -48 -17 -83 -21 -172 -21 -61 0 -121 4
-134 9 -13 5 -41 14 -63 20 -92 28 -155 60 -232 119 -94 71 -178 204 -189 296
-7 55 -5 59 22 86 29 29 43 36 45 23z m-2291 -51 c0 -17 -27 -45 -34 -34 -3 6
1 18 10 26 17 18 24 20 24 8z m2190 -53 c0 -31 -4 -48 -10 -44 -5 3 -10 11
-10 17 0 6 -8 20 -17 30 -15 17 -15 19 3 33 30 23 34 18 34 -36z m-1793 9 c-3
-8 -6 -5 -6 6 -1 11 2 17 5 13 3 -3 4 -12 1 -19z m-477 -74 c-17 -87 -18 -90
-34 -69 -8 11 -20 16 -30 12 -12 -5 -16 0 -16 23 0 16 -4 32 -10 35 -18 11
-11 21 24 33 19 7 40 19 47 28 23 28 32 0 19 -62z m2212 29 c10 -9 18 -22 18
-29 0 -26 -46 -66 -115 -101 -38 -19 -85 -43 -103 -55 -18 -11 -35 -18 -38
-15 -16 15 25 50 103 89 49 24 91 48 95 53 13 18 8 25 -17 25 -29 0 -34 24 -7
39 25 15 43 13 64 -6z m1282 -87 c-62 -136 -279 -369 -439 -471 -66 -42 -115
-90 -175 -170 -39 -52 -45 -57 -48 -37 -6 38 -32 25 -54 -28 -22 -53 -48 -67
-48 -25 0 30 -20 33 -45 5 -24 -26 -50 -33 -75 -20 -26 14 -25 26 5 62 27 32
32 57 13 76 -16 16 -44 -1 -63 -38 -32 -61 -68 -16 -45 55 11 33 55 85 72 85
4 0 16 -9 27 -21 24 -26 43 -17 35 17 -4 16 -2 24 7 26 8 0 19 2 24 2 6 1 16
5 23 10 17 10 59 -17 67 -45 8 -26 -16 -49 -49 -49 -20 1 -20 2 -3 14 23 18
22 46 -2 46 -23 0 -62 -46 -55 -65 3 -7 18 -19 34 -25 40 -16 100 12 113 54
12 38 -12 86 -52 104 -22 10 -28 19 -29 47 -1 34 -1 34 31 28 41 -8 44 -10 29
-33 -6 -11 -9 -26 -6 -35 9 -22 41 -18 47 6 3 12 12 19 19 17 19 -7 21 -43 3
-58 -23 -19 -19 -43 6 -37 51 13 27 -56 -27 -79 -38 -16 -46 -44 -13 -44 24 0
78 41 96 74 17 29 16 61 -1 75 -10 9 -13 24 -9 49 3 20 7 38 8 39 1 2 33 10
71 19 166 38 253 84 352 186 60 61 122 150 153 218 12 25 23 40 25 34 3 -6 -7
-36 -22 -68z m-1389 34 c-10 -16 -97 -62 -103 -55 -4 4 13 24 38 46 33 28 47
35 57 27 7 -5 11 -14 8 -18z m-2225 -25 c0 -36 -89 -224 -118 -247 -9 -7 -13
-8 -10 -3 28 51 72 168 88 233 14 61 40 73 40 17z m2446 -52 c70 -121 161
-209 258 -251 l29 -13 -27 -28 c-33 -35 -48 -84 -35 -118 8 -21 5 -28 -15 -44
-26 -20 -66 -113 -66 -153 0 -27 42 -76 64 -76 9 0 22 -13 31 -30 18 -35 56
-48 98 -32 31 12 62 0 55 -19 -2 -5 -60 -66 -129 -136 -69 -71 -135 -141 -147
-157 -28 -36 -57 -29 -48 12 29 132 32 153 23 159 -6 3 -21 -7 -34 -23 -17
-22 -22 -36 -17 -58 7 -31 -18 -97 -50 -133 -21 -25 -58 -29 -100 -13 -33 12
-32 26 4 75 16 22 34 50 40 63 5 12 16 22 25 22 25 0 104 80 125 126 10 24 22
64 26 90 5 38 3 51 -15 75 -19 26 -21 35 -12 81 13 71 -7 112 -50 106 -16 -3
-29 -4 -29 -2 0 1 7 18 15 37 22 54 19 91 -12 127 -21 25 -32 31 -55 28 -32
-5 -34 -1 -13 26 35 47 0 156 -41 130 -23 -14 -40 -41 -31 -50 4 -4 13 -2 19
4 17 17 26 15 33 -8 6 -18 -19 -55 -90 -136 -5 -6 -23 -28 -39 -48 -15 -20
-36 -36 -45 -36 -23 1 -51 24 -51 44 0 33 50 117 78 128 39 17 82 59 82 80 0
10 10 23 23 28 12 5 35 20 51 33 24 19 30 32 30 63 0 22 -4 47 -8 57 -6 12 -4
17 7 17 8 0 28 -21 43 -47z m-2536 -24 c-8 -17 -20 -29 -31 -29 -21 0 -25 -20
-8 -37 18 -18 -102 -233 -130 -233 -15 0 -1 71 24 125 13 28 30 66 38 85 20
50 111 156 115 135 2 -9 -2 -30 -8 -46z m908 27 c3 -22 -3 -34 -20 -48 -34
-26 -36 -23 -25 32 7 38 14 50 26 48 9 -2 17 -15 19 -32z m-1007 -23 c-22 -27
-44 -60 -50 -75 -13 -34 -18 -34 -55 -3 l-29 23 35 15 c19 8 57 31 84 51 27
19 50 36 52 36 2 0 -15 -21 -37 -47z m249 17 c0 -55 -133 -305 -217 -408 -29
-35 -96 -82 -118 -82 -15 0 -2 30 21 45 14 9 23 19 20 23 -4 3 13 26 38 51 46
48 133 186 193 309 20 39 42 72 50 72 7 0 13 -5 13 -10z m2310 -16 c0 -44 -62
-91 -106 -80 -30 8 -46 -21 -21 -36 26 -14 20 -28 -18 -44 -36 -15 -92 -18
-119 -8 -38 15 -2 84 44 84 20 0 31 6 35 19 7 24 90 72 110 65 7 -3 22 -1 32
5 26 15 43 13 43 -5z m-1436 -103 c-1 -61 -9 -69 -101 -101 -36 -12 -64 -29
-67 -38 -3 -10 -12 -56 -22 -104 -16 -82 -25 -101 -38 -79 -8 12 30 189 44
206 6 7 36 21 67 31 70 22 80 32 88 94 9 68 30 61 29 -9z m1146 17 c0 -7 -7
-22 -15 -32 -24 -32 -19 -65 13 -78 15 -6 37 -10 50 -9 27 1 28 -14 3 -56 -11
-17 -23 -47 -26 -67 -6 -31 -3 -39 23 -66 17 -16 40 -30 53 -30 13 0 49 26 93
67 70 66 71 67 74 40 4 -33 18 -34 41 -5 l18 22 17 -26 c32 -49 0 -130 -75
-190 -45 -36 -108 -48 -129 -23 -12 14 -11 21 5 52 11 19 34 48 53 63 22 18
33 34 30 46 -3 15 -17 6 -71 -48 -67 -67 -78 -90 -57 -128 6 -11 27 -24 48
-30 31 -10 44 -8 84 9 26 11 56 29 68 41 12 12 27 19 33 17 7 -2 22 5 35 17
23 20 24 20 37 3 32 -44 -14 -160 -87 -218 -57 -45 -91 -50 -113 -15 -20 30
-6 72 30 86 14 5 25 14 25 19 0 15 -30 22 -50 11 -63 -34 -68 -141 -8 -163 9
-3 6 -12 -11 -31 -48 -51 -22 -136 41 -136 15 0 28 -3 28 -8 0 -4 -16 -31 -35
-59 -19 -29 -35 -61 -35 -72 0 -27 48 -59 95 -62 53 -3 80 7 100 37 12 18 20
23 27 16 14 -14 -10 -52 -63 -104 -21 -21 -55 -62 -75 -93 -21 -31 -41 -52
-46 -47 -10 10 30 112 43 112 5 0 9 7 9 15 0 8 -9 15 -19 15 -28 0 -66 -83
-66 -145 0 -57 -5 -65 -125 -215 -41 -52 -84 -108 -95 -125 -11 -18 -20 -24
-23 -17 -2 7 1 18 7 25 5 7 13 32 17 55 12 73 -39 115 -96 80 -16 -10 -25 -9
-49 5 -31 18 -56 17 -114 -5 -24 -9 -31 -7 -55 15 -42 40 -87 53 -117 33 -32
-21 -72 -75 -80 -107 -6 -25 -71 -98 -78 -88 -2 2 -14 19 -26 37 -12 17 -29
32 -36 32 -21 0 -26 16 -14 44 20 42 -3 97 -67 162 -30 31 -52 59 -49 62 2 3
13 -2 23 -11 37 -34 115 -20 138 24 11 23 21 29 47 29 54 0 75 10 87 43 7 18
21 54 31 81 18 45 18 51 4 73 -20 30 -12 44 24 37 26 -6 29 -3 51 56 13 34 31
78 41 98 19 35 19 36 -6 78 -14 23 -25 45 -25 48 0 2 20 8 45 12 25 3 64 19
87 34 48 32 121 113 158 175 54 91 12 204 -80 215 l-42 5 58 77 c33 42 79 104
104 137 44 60 60 73 60 49z m-2477 -67 c-3 -12 -17 -23 -34 -26 -16 -4 -31
-11 -34 -16 -4 -5 -11 -9 -17 -9 -15 0 12 30 47 52 38 23 44 23 38 -1z m-105
-98 c13 -11 13 -19 4 -52 -7 -21 -19 -44 -27 -51 -13 -11 -15 -8 -15 19 0 29
-3 32 -27 29 -25 -3 -28 -8 -31 -45 -2 -31 -11 -49 -34 -72 -34 -33 -43 -37
-53 -21 -3 5 10 17 29 27 37 17 44 27 26 38 -7 4 -6 13 1 26 5 11 9 32 7 47
-3 23 4 32 47 58 29 18 52 26 54 20 2 -6 10 -17 19 -23z m132 -3 c0 -23 -25
-33 -40 -15 -17 21 6 61 26 44 8 -6 14 -19 14 -29z m319 -96 c-23 -49 -50
-114 -61 -144 -11 -30 -23 -64 -28 -75 -5 -11 -14 -37 -21 -57 -14 -42 -28
-49 -36 -18 -4 16 -14 20 -44 20 -22 0 -39 4 -39 8 0 5 23 19 50 32 44 21 68
50 40 50 -26 0 -99 -47 -137 -88 -35 -38 -43 -42 -49 -28 -4 10 -2 27 4 39 5
12 13 30 16 40 3 9 14 17 25 17 72 0 181 87 243 194 83 143 100 147 37 10z
m2854 34 c14 -29 16 -41 7 -58 -9 -16 -15 -19 -25 -10 -9 8 -17 7 -28 -5 -21
-20 -34 -19 -47 5 -13 24 -7 49 22 85 27 34 49 29 71 -17z m-3238 22 c7 -11
-40 -113 -59 -130 -7 -5 -35 -13 -62 -16 l-49 -6 25 20 c13 11 28 19 31 16 15
-9 69 49 80 87 12 39 22 48 34 29z m-215 -17 c0 -5 -4 -14 -9 -22 -11 -17 -32
-5 -24 14 5 15 33 21 33 8z m1190 -13 c0 -5 -9 -14 -20 -20 -22 -12 -27 -1 -8
18 14 14 28 16 28 2z m-1264 -62 c8 -25 -25 -58 -57 -58 -28 0 -23 27 9 55 34
30 39 31 48 3z m464 -2 c0 -3 -4 -8 -10 -11 -5 -3 -10 -1 -10 4 0 6 5 11 10
11 6 0 10 -2 10 -4z m2153 -13 c-7 -2 -19 -2 -25 0 -7 3 -2 5 12 5 14 0 19 -2
13 -5z m51 -22 c25 -28 31 -83 12 -117 l-15 -29 -1 48 c0 26 -7 63 -14 82 -16
38 -8 45 18 16z m-114 -9 c0 -5 -11 -14 -25 -20 -26 -12 -33 -4 -13 16 14 14
38 16 38 4z m-2660 -22 c0 -12 -7 -32 -16 -45 -16 -25 -12 -45 9 -45 7 0 20
14 29 30 9 17 25 30 36 30 10 0 23 5 30 12 8 8 15 8 27 -2 9 -8 27 -10 47 -6
47 9 26 -7 -67 -54 -89 -44 -188 -103 -253 -150 -58 -42 -71 -34 -27 17 19 23
35 46 35 52 0 14 27 14 35 1 4 -6 17 -3 35 10 15 11 33 20 39 20 16 0 14 31
-3 44 -25 20 -28 51 -5 79 24 32 49 35 49 7z m1503 3 c10 -9 -74 -55 -90 -49
-23 9 -14 23 25 39 43 17 56 20 65 10z m1233 -29 c17 -69 -19 -150 -93 -208
-48 -38 -65 -46 -100 -46 -32 0 -46 5 -57 22 -11 15 -12 26 -6 32 6 6 10 24
10 41 0 19 11 42 31 63 28 31 32 33 48 18 20 -18 39 -20 61 -6 11 7 9 11 -13
19 -30 12 -34 23 -14 40 19 15 73 25 80 14 22 -35 -56 -138 -97 -127 -14 3
-27 -1 -36 -11 -19 -23 1 -39 40 -30 70 15 149 121 129 172 -11 30 -11 33 1
33 5 0 13 -11 16 -26z m-2836 -33 c0 -17 5 -33 10 -36 6 -4 8 -11 4 -16 -7
-12 -54 36 -54 55 0 16 10 26 27 26 8 0 13 -12 13 -29z m523 -13 c11 -9 14
-18 7 -28 -7 -12 -12 -12 -34 0 -14 7 -26 19 -26 27 0 16 31 17 53 1z m-590
-37 c-2 -12 -13 -35 -25 -51 -17 -23 -24 -27 -35 -18 -19 15 -8 55 20 79 27
23 43 19 40 -10z m2487 -66 c24 -25 34 -44 34 -67 1 -30 4 -33 33 -33 26 0 38
-7 59 -37 15 -21 31 -38 36 -38 4 0 8 -5 8 -11 0 -6 -10 -9 -22 -8 -33 4 -60
-14 -83 -56 l-19 -37 27 -24 c16 -14 41 -24 58 -24 19 0 29 -5 29 -15 0 -23
-25 -28 -57 -12 -50 26 -217 212 -244 272 -5 11 -14 27 -21 36 -9 13 -6 26 17
65 16 27 33 52 38 55 13 9 65 -23 107 -66z m-1990 50 c11 -13 7 -15 -24 -15
-34 0 -44 8 -29 23 11 12 40 8 53 -8z m-940 -19 c0 -29 -19 -44 -30 -25 -9 14
5 49 20 49 6 0 10 -11 10 -24z m851 -23 c19 -9 62 -19 97 -21 61 -4 78 -14 46
-26 -9 -3 -29 -6 -45 -6 -37 0 -106 -34 -184 -92 -63 -46 -178 -118 -189 -118
-3 0 -26 -10 -51 -21 -37 -17 -55 -20 -100 -14 -56 7 -75 27 -36 40 11 3 32
16 47 28 15 12 82 59 148 104 111 74 122 80 138 66 17 -15 30 -15 121 3 15 3
27 12 27 20 0 12 -11 14 -62 8 -66 -7 -70 2 -16 31 12 7 23 13 24 14 0 1 16
-7 35 -16z m-485 -77 c-21 -32 -31 -25 -34 24 l-3 45 25 -24 c23 -22 25 -27
12 -45z m-339 20 c9 -8 7 -22 -10 -58 -23 -51 -36 -58 -61 -32 -17 17 -19 35
-10 82 6 28 9 31 38 25 17 -3 36 -11 43 -17z m1143 18 c0 -3 -13 -22 -29 -42
-26 -32 -30 -45 -28 -92 2 -53 3 -55 31 -58 26 -3 28 -1 24 22 -4 22 -2 26 18
26 28 0 28 2 8 -60 -13 -41 -20 -49 -45 -52 -17 -3 -41 3 -59 14 -27 16 -30
23 -30 65 1 63 39 154 71 170 26 14 39 16 39 7z m2790 -33 c0 -37 -32 -121
-57 -151 -49 -59 -145 -89 -173 -55 -17 21 -5 61 25 82 86 61 171 128 178 140
10 17 27 7 27 -16z m-2725 -10 c9 -28 -12 -74 -31 -67 -9 3 -24 6 -35 6 -27 0
-24 19 8 52 31 33 49 36 58 9z m1066 -15 c52 -10 126 -27 166 -39 l71 -22 -20
-40 c-25 -50 -47 -75 -65 -75 -8 0 -41 -18 -73 -40 -32 -22 -63 -40 -69 -40
-6 0 -19 -9 -30 -21 -16 -17 -23 -19 -41 -9 -31 17 -74 9 -79 -15 -5 -28 -40
-75 -55 -75 -20 0 -36 70 -36 157 0 65 4 85 20 106 23 29 26 47 8 47 -40 -1
-58 -52 -61 -176 -1 -75 2 -105 12 -118 12 -15 11 -19 -7 -37 -12 -11 -22 -26
-22 -34 0 -12 -15 -15 -67 -15 -38 0 -93 -7 -123 -15 -30 -8 -68 -15 -84 -15
-39 0 -177 33 -173 42 1 3 29 27 62 53 94 72 148 121 282 250 120 116 126 121
191 137 37 9 74 15 83 14 8 -2 58 -11 110 -20z m-2121 -16 c13 -24 10 -72 -5
-76 -5 -2 -20 10 -33 26 -22 28 -22 30 -5 49 23 25 30 25 43 1z m-95 0 c-28
-12 -37 -12 -30 0 3 6 16 10 28 9 21 0 21 -1 2 -9z m2675 -8 c0 -14 -11 -21
-26 -15 -8 3 -11 9 -8 14 7 11 34 12 34 1z m-2668 -45 c-1 -8 7 -18 18 -22 25
-8 26 -31 2 -44 -41 -22 -83 44 -50 77 16 16 34 9 30 -11z m2540 6 c9 -10 19
-33 23 -51 12 -56 57 -83 68 -41 5 19 12 14 60 -43 46 -54 93 -98 140 -129 5
-4 -1 -21 -14 -38 -16 -22 -23 -45 -23 -78 l-1 -48 35 1 c19 1 46 5 58 9 24 8
24 8 8 -23 -17 -33 -33 -40 -85 -37 -27 1 -38 9 -61 46 -16 24 -54 69 -86 99
-127 121 -223 231 -217 248 11 33 58 102 69 102 6 0 18 -8 26 -17z m-1602 -48
c0 -8 -4 -15 -10 -15 -5 0 -10 7 -10 15 0 8 5 15 10 15 6 0 10 -7 10 -15z
m-877 -48 c-38 -43 -44 -47 -72 -47 -27 0 -71 36 -71 57 0 11 7 9 26 -6 35
-27 78 -27 104 1 11 12 20 26 20 30 0 5 5 6 11 2 7 -4 0 -18 -18 -37z m2964
-14 c7 -18 -21 -43 -47 -43 -9 0 -25 6 -35 14 -18 13 -18 14 8 40 23 22 30 25
47 16 12 -6 24 -18 27 -27z m-2087 -2 c0 -11 16 -32 35 -47 27 -20 42 -25 65
-20 40 8 40 -13 -1 -43 -37 -28 -87 -34 -113 -15 -20 14 -34 98 -23 129 9 22
37 19 37 -4z m1470 -45 c8 -1 78 -64 155 -139 l140 -137 -27 -21 c-16 -11 -28
-29 -28 -39 0 -10 -4 -22 -10 -25 -15 -9 -68 23 -75 46 -4 11 -27 43 -51 70
-26 29 -44 59 -44 74 0 34 -18 41 -44 16 l-22 -21 -81 42 c-45 23 -79 46 -77
52 9 22 119 96 134 90 8 -4 22 -7 30 -8z m421 -14 c15 -15 43 -39 63 -52 39
-27 44 -38 21 -46 -17 -7 -125 91 -125 113 0 20 13 16 41 -15z m-2549 2 c30
-5 37 -10 40 -35 3 -19 0 -29 -9 -29 -9 0 -100 39 -132 57 -1 1 0 7 4 13 4 6
19 9 33 6 15 -3 43 -8 64 -12z m-254 -21 c-9 -10 -19 -28 -22 -40 -11 -34 -38
-30 -34 5 2 18 8 26 19 24 9 -1 19 4 23 13 3 8 11 15 17 15 8 0 7 -6 -3 -17z
m838 -38 c-5 -27 -2 -35 19 -49 13 -9 32 -28 41 -41 16 -24 16 -28 -1 -65 -10
-22 -37 -56 -61 -75 -37 -31 -49 -35 -98 -35 -42 0 -56 4 -56 14 0 8 5 18 10
21 6 3 10 16 10 28 0 12 5 29 10 37 9 13 12 13 24 -3 11 -14 22 -17 45 -12 37
8 81 48 81 74 0 19 -47 61 -69 61 -6 0 -1 19 11 45 24 49 43 50 34 0z m-688
-4 c9 -5 36 -15 60 -22 23 -7 42 -18 42 -26 0 -17 -13 -16 -75 2 -74 22 -75
23 -69 40 7 17 17 19 42 6z m1392 -15 c0 -1 -27 -24 -60 -50 -33 -26 -60 -54
-60 -62 0 -18 -21 -18 -44 -1 -22 16 -11 27 56 52 25 9 57 28 69 41 20 21 39
31 39 20z m-1615 -71 c6 -60 8 -65 31 -65 15 0 24 -6 24 -15 0 -19 -9 -19 -47
0 -36 18 -46 48 -37 105 10 59 21 49 29 -25z m2185 53 c0 -7 -25 -37 -55 -66
-54 -54 -65 -89 -23 -79 18 5 53 -6 128 -40 19 -9 64 -27 99 -39 84 -30 103
-49 38 -39 -26 3 -63 13 -82 21 -19 8 -48 14 -66 14 -17 0 -62 16 -100 36 -61
32 -69 40 -69 65 0 20 9 35 31 51 16 13 39 37 50 55 20 33 49 45 49 21z
m-1084 -15 c-22 -77 -36 -151 -36 -187 0 -46 -18 -70 -77 -100 -40 -20 -53
-20 -53 -1 0 8 -9 20 -20 27 -21 13 -27 38 -11 38 14 0 74 60 95 94 10 15 18
48 19 72 0 33 4 44 16 44 9 0 25 7 35 15 26 20 38 19 32 -2z m1181 -25 c21
-12 59 -32 84 -44 29 -14 54 -36 68 -59 20 -35 20 -37 3 -56 -21 -22 -23 -21
-179 53 -80 37 -89 52 -56 95 14 18 29 33 34 33 5 0 25 -10 46 -22z m-2027
-15 c43 -7 60 -20 60 -44 0 -45 -128 9 -130 55 0 4 8 5 18 1 9 -4 33 -9 52
-12z m620 -37 c-17 -22 -40 -20 -40 2 0 30 21 45 39 28 12 -12 12 -18 1 -30z
m2068 23 c11 -17 10 -23 -10 -39 -47 -40 -78 -12 -42 38 19 27 35 28 52 1z
m-1608 -52 c0 -8 -12 -24 -26 -38 -32 -29 -97 -146 -142 -254 -52 -123 -56
-142 -37 -171 27 -41 58 -22 35 22 -11 20 -11 29 0 51 l14 28 4 -25 c2 -14 13
-35 25 -48 l22 -23 -25 -20 c-14 -10 -32 -21 -42 -24 -9 -3 -21 -19 -26 -34
-10 -28 -46 -50 -60 -36 -15 14 -5 230 12 288 24 78 54 146 80 179 12 14 32
45 45 67 21 35 30 41 65 44 23 2 44 4 49 5 4 1 7 -4 7 -11z m90 -7 c0 -5 -4
-10 -9 -10 -6 0 -13 5 -16 10 -3 6 1 10 9 10 9 0 16 -4 16 -10z m70 -29 c0 -4
-15 -14 -33 -23 -33 -16 -67 -68 -67 -101 0 -9 -5 -28 -10 -43 -8 -21 -14 -24
-22 -16 -20 20 -79 14 -105 -10 -13 -12 -25 -19 -28 -16 -11 10 64 133 105
173 35 35 43 38 60 27 28 -17 40 -15 40 6 0 15 6 18 30 14 17 -2 30 -7 30 -11z
m1010 -1 c0 -5 -7 -10 -15 -10 -8 0 -15 5 -15 10 0 6 7 10 15 10 8 0 15 -4 15
-10z m-2130 -39 c-52 -41 -137 -72 -211 -78 -78 -7 -97 10 -24 21 26 4 66 22
97 43 33 23 66 37 91 39 22 2 42 6 44 8 3 3 12 2 21 -1 12 -5 9 -12 -18 -32z
m1617 27 c44 -16 42 -28 -4 -28 -46 0 -195 -70 -241 -114 -59 -55 -85 -123
-63 -165 8 -13 3 -27 -17 -55 -21 -30 -26 -49 -27 -95 -1 -45 -6 -62 -23 -81
-12 -13 -27 -38 -33 -55 -10 -26 -16 -31 -38 -27 -36 5 -60 41 -37 54 27 15
20 39 -9 32 -27 -7 -32 4 -15 37 12 21 40 25 58 7 9 -9 15 -9 23 -1 18 18 -30
55 -61 48 -32 -7 -60 -40 -60 -71 0 -26 -4 -29 -46 -38 -29 -7 -32 -5 -37 26
-4 18 -9 42 -12 54 -6 18 -1 22 24 27 46 10 99 64 120 126 l19 54 75 24 c117
36 159 99 118 175 -11 22 -21 44 -21 49 0 5 24 9 53 9 28 0 59 5 67 10 21 14
147 12 187 -2z m-412 -7 c3 -5 -4 -12 -15 -16 -36 -12 -61 -84 -44 -129 8 -21
88 -22 127 -2 15 8 27 11 27 6 0 -17 -48 -41 -111 -56 -62 -14 -63 -14 -102
12 -37 24 -39 28 -34 64 6 46 41 100 65 100 9 1 28 7 42 15 30 17 37 18 45 6z
m85 -66 c0 -37 -36 -65 -83 -65 -33 0 -41 24 -21 62 15 28 16 29 34 13 32 -29
57 7 25 38 -8 8 -11 18 -7 22 10 10 52 -47 52 -70z m874 46 c7 -10 -54 -34
-63 -25 -7 7 28 34 45 34 7 0 15 -4 18 -9z m243 -17 c3 -11 -46 -48 -54 -40
-3 3 2 17 11 31 17 25 37 29 43 9z m-687 -13 c0 -4 -20 -16 -44 -25 -25 -10
-64 -32 -88 -50 l-43 -33 -1 43 c-2 48 8 54 83 54 23 0 45 5 48 10 8 12 45 13
45 1z m-1360 -26 c0 -9 -7 -30 -16 -47 -11 -21 -15 -50 -12 -99 3 -69 3 -70
-21 -64 -18 5 -31 -3 -61 -34 -46 -48 -58 -92 -36 -125 14 -23 14 -24 -14 -30
-18 -3 -53 -30 -90 -67 -49 -50 -60 -67 -56 -85 5 -17 -1 -28 -24 -44 -17 -12
-45 -52 -66 -94 -29 -60 -39 -73 -55 -69 -30 8 -24 -29 10 -62 33 -30 84 -131
78 -149 -3 -6 -8 -2 -12 9 -26 74 -74 135 -105 135 -25 0 -26 -26 -1 -39 23
-13 64 -82 85 -142 23 -65 21 -180 -4 -229 -20 -40 -15 -54 20 -55 17 0 15
-36 -2 -69 -10 -18 -11 -18 -29 5 -43 57 -44 64 -16 127 33 73 35 141 7 212
-28 71 -59 110 -87 110 -28 0 -27 -3 -4 88 19 71 24 81 66 129 11 13 31 43 45
66 14 24 50 82 81 129 31 47 60 94 63 104 3 11 39 70 78 132 40 61 93 148 117
192 42 77 61 97 61 65z m1493 -22 c23 -3 49 -9 58 -14 8 -4 39 -11 68 -15 35
-4 55 -12 59 -23 3 -9 32 -60 65 -114 57 -95 107 -147 141 -147 26 0 38 -48
34 -145 -2 -70 -8 -100 -26 -135 -29 -55 -71 -101 -92 -99 -31 3 -40 -2 -40
-21 0 -16 7 -20 32 -20 49 0 119 78 148 165 31 92 26 205 -13 285 -37 79 -52
94 -90 93 -30 -1 -34 3 -60 61 l-28 62 27 42 c35 53 72 57 104 11 12 -16 21
-31 19 -33 -2 -1 -17 -7 -32 -14 -32 -14 -45 -38 -28 -55 9 -9 16 -8 32 1 35
22 76 5 115 -46 40 -52 41 -84 4 -134 -33 -46 -25 -59 24 -37 31 14 49 3 72
-47 14 -30 14 -36 -1 -68 -11 -22 -27 -39 -41 -42 -26 -7 -34 -44 -9 -44 24 0
33 -29 20 -68 -17 -48 -58 -82 -98 -82 -43 0 -66 -15 -49 -32 18 -18 16 -68
-3 -68 -8 0 -24 -5 -34 -12 -14 -8 -38 -8 -97 0 -111 15 -144 23 -144 33 0 4
-19 8 -42 8 -38 1 -97 8 -313 40 -38 6 -64 16 -72 27 -11 15 -17 16 -32 7 -14
-9 -34 -8 -87 3 -38 8 -81 17 -96 21 -39 8 -23 25 16 18 23 -5 36 -2 46 10 21
25 -2 42 -35 25 -55 -29 -153 34 -140 90 11 44 48 72 99 75 l46 4 0 -37 c0
-62 66 -143 105 -128 23 8 18 25 -9 36 -42 16 -60 55 -60 129 0 57 6 79 37
147 60 125 97 180 148 219 58 44 156 85 187 79 13 -3 43 -7 65 -11z m-1386 -1
c20 -13 4 -46 -30 -62 -42 -20 -48 -55 -12 -72 21 -9 31 -9 47 1 28 17 33 7
16 -31 -8 -18 -27 -68 -43 -111 -29 -83 -49 -103 -72 -71 -11 16 -17 17 -34 6
-15 -10 -28 -10 -59 -1 -51 15 -53 45 -8 91 l32 33 6 -25 c4 -16 13 -25 25
-25 20 0 23 14 10 50 -4 11 2 5 14 -12 11 -18 25 -33 29 -33 18 0 21 14 7 39
-20 37 -35 90 -35 121 0 27 21 88 36 103 10 9 56 9 71 -1z m1943 -2 c0 -5 -5
-10 -11 -10 -5 0 -7 5 -4 10 3 6 8 10 11 10 2 0 4 -4 4 -10z m-1697 -27 c-3
-10 -9 -22 -13 -28 -4 -5 -16 -41 -25 -80 -24 -95 -25 -247 -2 -299 17 -39 16
-59 -3 -40 -15 15 -49 114 -45 127 3 7 0 19 -5 27 -9 13 -12 13 -24 -3 -12
-16 -12 -26 1 -70 8 -29 23 -67 34 -86 11 -18 18 -35 17 -37 -2 -2 -33 1 -68
6 -36 5 -91 10 -123 11 -32 1 -70 9 -85 17 -40 21 -168 21 -211 -1 -41 -21
-41 -21 -41 -3 0 14 51 58 97 83 26 15 160 16 169 2 3 -6 1 -16 -5 -23 -15
-18 -3 -46 20 -46 12 0 19 7 19 18 0 11 9 27 20 37 11 10 19 27 18 39 -2 28
45 163 81 235 23 44 38 61 68 75 21 9 49 26 63 36 32 25 51 26 43 3z m752 -15
c7 -16 18 -23 38 -23 27 1 35 -9 18 -20 -6 -3 -24 -31 -42 -63 -18 -31 -34
-59 -35 -61 -2 -2 -10 1 -18 8 -7 6 -29 10 -47 9 -32 -3 -34 -1 -37 29 -4 42
14 74 62 112 46 37 48 37 61 9z m-960 -28 c3 -6 -1 -13 -10 -16 -19 -8 -30 0
-20 15 8 14 22 14 30 1z m450 -21 c4 -6 -2 -17 -13 -25 -31 -21 -34 -63 -6
-91 45 -45 124 -18 124 43 0 16 5 24 13 21 18 -6 12 -62 -12 -101 -43 -69
-135 -83 -188 -27 -57 60 -51 119 19 164 47 30 54 32 63 16z m75 -9 c0 -5 -4
-10 -10 -10 -5 0 -10 5 -10 10 0 6 5 10 10 10 6 0 10 -4 10 -10z m-20 -56 c21
-21 22 -27 10 -34 -22 -14 -36 -12 -54 6 -19 19 -20 26 -4 42 17 17 21 15 48
-14z m1700 -61 c45 -31 56 -50 52 -88 -3 -27 -11 -39 -33 -50 -41 -22 -66 -51
-110 -132 l-40 -71 -27 14 c-15 8 -38 14 -50 14 -23 0 -24 2 -17 53 8 57 39
117 61 117 8 0 14 -6 14 -13 0 -7 9 -18 21 -25 18 -11 24 -11 40 4 25 22 24
33 -5 69 -23 28 -23 32 -9 60 34 67 59 78 103 48z m-480 -28 c20 -24 6 -28
-15 -5 -10 11 -13 20 -8 20 6 0 16 -7 23 -15z m687 -7 c4 -7 6 -23 5 -35 -6
-46 37 -39 59 10 16 37 44 47 53 19 4 -11 -1 -41 -10 -68 -15 -45 -15 -49 1
-60 16 -12 13 -18 -31 -72 -27 -33 -54 -68 -61 -78 -11 -17 -12 -16 -12 13 -1
25 3 31 14 27 15 -6 35 30 35 63 0 28 -65 82 -108 89 -37 6 -40 9 -45 43 -6
53 0 61 48 61 24 0 47 -6 52 -12z m-1497 -10 c0 -4 -6 -22 -14 -40 -8 -18 -17
-45 -20 -59 -5 -22 -11 -26 -38 -25 -39 1 -48 11 -48 52 0 50 32 82 80 80 22
0 40 -4 40 -8z m-491 -115 c21 -24 23 -34 18 -82 -5 -47 -11 -60 -39 -83 -39
-32 -68 -36 -75 -9 -3 11 -20 23 -43 30 -22 6 -46 21 -55 34 -14 20 -13 23 5
41 19 19 20 19 40 1 12 -10 38 -25 58 -32 35 -12 38 -11 59 14 13 14 23 34 23
44 0 23 -27 49 -51 49 -11 0 -19 7 -19 16 0 24 49 9 79 -23z m1970 -22 c20
-14 31 -31 31 -46 0 -27 -21 -46 -28 -26 -8 25 -42 51 -65 51 -31 0 -101 -40
-127 -72 -38 -49 -72 -137 -68 -174 4 -35 -2 -43 -20 -21 -27 33 -14 115 30
191 37 63 55 84 93 108 39 25 111 20 154 -11z m-2069 4 c0 -8 -6 -15 -14 -15
-17 0 -28 14 -19 24 12 12 33 6 33 -9z m48 -27 c-6 -18 -28 -21 -28 -4 0 9 7
16 16 16 9 0 14 -5 12 -12z m1965 -49 c29 -16 37 -28 37 -61 0 -14 5 -28 12
-30 8 -3 4 -15 -12 -36 -28 -34 -40 -40 -40 -17 0 9 -11 21 -25 27 -21 9 -28
8 -45 -7 -25 -23 -27 -80 -3 -89 13 -5 14 -9 3 -19 -10 -9 -13 -9 -17 1 -3 6
-20 12 -39 12 -33 0 -34 1 -34 43 0 53 48 140 93 167 37 23 41 24 70 9z
m-1770 -10 c12 -7 24 -13 26 -15 2 -2 -6 -15 -18 -30 -11 -15 -21 -33 -21 -41
0 -12 -8 -14 -37 -8 -67 12 -70 59 -8 93 26 14 32 14 58 1z m-700 -43 c48 -16
49 -17 27 -46 -16 -20 -20 -21 -20 -8 0 38 -80 49 -180 26 -51 -12 -93 -42
-126 -93 -23 -36 -4 -58 42 -49 35 6 47 -9 24 -32 -17 -17 -61 -146 -55 -164
8 -24 30 -31 60 -20 24 9 30 6 25 -15 -11 -41 -16 -113 -8 -127 12 -24 49 -23
81 2 31 25 37 25 37 1 0 -10 7 -24 15 -31 21 -17 19 -27 -7 -34 -33 -8 -83
-58 -98 -97 -7 -19 -22 -54 -33 -78 -21 -46 -25 -137 -7 -155 45 -45 -82 -14
-132 32 -23 21 -25 28 -16 46 50 93 65 346 27 459 -11 34 -32 77 -47 96 -14
19 -22 36 -16 38 51 18 72 49 32 47 -24 -1 -23 10 7 59 37 65 144 147 189 147
14 0 28 5 32 11 8 13 91 5 147 -15z m827 -23 c0 -20 38 -63 57 -63 7 0 13 -5
13 -11 0 -6 -8 -7 -22 -2 -13 4 -42 7 -65 7 -48 -2 -49 2 -29 51 15 36 46 48
46 18z m-80 -10 c0 -23 -17 -49 -26 -41 -9 10 4 58 16 58 6 0 10 -8 10 -17z
m-343 -43 c80 -64 94 -80 88 -90 -11 -17 -24 -11 -31 15 -11 44 -84 26 -84
-20 0 -4 17 -22 37 -41 33 -30 35 -36 25 -59 -15 -34 -45 -32 -75 5 -46 54
-76 24 -33 -33 29 -38 33 -59 12 -76 -20 -17 -96 22 -96 48 0 20 -21 33 -36
23 -5 -4 -10 -37 -11 -73 -1 -68 -22 -119 -48 -119 -26 0 -48 41 -53 96 -6 76
-30 66 -52 -23 -12 -50 -54 -103 -80 -103 -14 0 -21 10 -26 37 -6 31 -2 47 19
84 14 26 23 50 20 53 -16 16 -36 2 -54 -39 -11 -24 -31 -58 -45 -75 -26 -30
-64 -41 -64 -17 0 37 42 139 76 186 l38 54 13 -30 c35 -86 200 -72 301 26 44
43 106 146 97 161 -12 20 -45 11 -45 -12 -1 -61 -124 -170 -204 -182 -46 -7
-110 13 -119 37 -5 13 61 155 85 185 12 14 48 17 48 3 0 -5 -7 -14 -15 -21 -8
-7 -15 -20 -15 -29 -1 -9 -7 -27 -14 -41 -27 -47 14 -76 67 -49 53 28 127 107
127 136 0 22 -27 15 -44 -12 -17 -26 -92 -85 -108 -85 -14 0 2 42 25 68 11 12
31 22 44 22 16 0 23 6 23 19 0 16 8 18 75 17 74 -1 77 -2 132 -46z m173 26 c0
-14 -29 -31 -38 -21 -6 6 18 35 29 35 5 0 9 -6 9 -14z m-604 -14 l31 -17 -33
-72 c-26 -56 -37 -70 -51 -67 -13 3 -27 -9 -47 -39 -27 -41 -71 -78 -108 -93
-25 -9 -23 12 7 79 31 71 87 134 126 142 29 7 48 29 35 42 -3 4 -32 -2 -64
-12 -31 -10 -62 -20 -68 -21 -6 -1 -21 -5 -33 -9 -35 -11 -25 21 13 45 33 20
96 37 141 38 11 1 34 -7 51 -16z m2191 -15 c41 0 41 0 36 -32 -6 -39 16 -86
50 -104 21 -11 29 -10 57 4 20 10 36 13 42 7 6 -6 -18 -25 -62 -52 l-71 -43
-137 7 c-75 4 -137 8 -138 9 -1 1 0 23 3 50 4 35 10 47 22 47 9 0 23 6 30 13
11 10 15 8 25 -7 21 -36 54 -65 82 -72 23 -6 32 -2 51 22 23 28 28 69 8 69 -5
0 -16 -13 -23 -28 -17 -35 -50 -33 -71 4 -13 23 -12 31 5 72 14 35 23 45 34
40 8 -4 34 -7 57 -6z m277 -59 c-4 -6 -10 -5 -15 3 -14 22 -10 33 6 19 8 -7
12 -17 9 -22z m-1814 -14 c0 -28 3 -35 18 -32 12 3 16 12 14 36 -2 27 1 32 19
32 20 0 21 -4 16 -44 -4 -30 -2 -47 7 -55 17 -14 26 -4 26 30 0 36 10 60 21
53 14 -8 11 -161 -3 -170 -7 -4 -16 0 -22 11 -26 44 -68 82 -103 93 -33 10
-41 9 -63 -6 -36 -27 -55 -94 -43 -146 6 -22 14 -49 18 -59 7 -17 4 -18 -31
-11 -56 12 -99 7 -155 -17 -55 -24 -89 -60 -89 -94 0 -55 100 -126 190 -135
l55 -5 -50 -19 c-27 -11 -55 -25 -61 -33 -16 -19 -34 -16 -34 6 0 29 -48 81
-75 81 -14 0 -33 -11 -45 -27 -11 -15 -34 -35 -50 -44 -21 -13 -31 -29 -35
-56 -4 -21 -9 -45 -11 -54 -5 -17 -60 -46 -70 -36 -3 3 -1 30 5 61 8 43 7 66
-4 104 -16 53 -54 102 -80 102 -8 0 -15 5 -15 10 0 6 5 10 12 10 6 0 28 19 49
41 34 37 39 40 46 23 18 -49 80 -59 112 -18 11 14 27 48 36 75 9 28 20 49 23
47 57 -29 57 -29 94 -14 24 10 38 23 40 37 2 12 11 26 21 30 9 5 25 13 35 18
9 4 24 26 32 48 8 22 23 51 33 66 9 14 17 37 17 50 0 18 8 27 33 35 59 19 67
16 67 -24z m194 8 c2 -4 1 -14 -4 -22 -7 -11 -12 -12 -21 -3 -6 6 -8 16 -5 22
8 13 23 14 30 3z m139 -94 c3 -46 1 -80 -7 -93 -9 -17 -12 -5 -16 65 -6 87 -5
100 9 100 5 0 11 -33 14 -72z m-132 35 c0 -5 2 -23 5 -42 3 -23 -1 -40 -12
-52 -13 -15 -16 -33 -12 -94 5 -79 -3 -96 -21 -44 -15 45 -13 120 4 143 8 11
13 28 9 38 -7 22 4 58 17 58 5 0 9 -3 10 -7z m68 -40 c16 -58 13 -71 -9 -38
-21 31 -27 75 -10 75 5 0 14 -17 19 -37z m285 15 c13 -22 -2 -51 -29 -56 -14
-3 -17 1 -13 27 5 36 -6 48 -27 31 -12 -10 -15 -9 -15 4 0 24 69 18 84 -6z
m86 -8 c0 -5 -7 -10 -15 -10 -8 0 -15 5 -15 10 0 6 7 10 15 10 8 0 15 -4 15
-10z m-640 -15 c46 -24 100 -111 99 -160 l0 -40 -18 43 c-25 63 -67 112 -96
112 -19 0 -26 -8 -36 -39 -10 -32 -9 -44 5 -71 19 -38 19 -40 7 -40 -14 0 -41
88 -41 132 0 74 24 92 80 63z m708 -9 c3 -13 -1 -17 -14 -14 -11 2 -20 11 -22
22 -3 13 1 17 14 14 11 -2 20 -11 22 -22z m-310 -9 c2 -10 -3 -17 -12 -17 -10
0 -16 9 -16 21 0 24 23 21 28 -4z m387 -7 c0 -22 -29 -18 -33 3 -3 14 1 18 15
15 10 -2 18 -10 18 -18z m65 -6 c0 -8 -7 -14 -15 -14 -15 0 -21 21 -9 33 10 9
24 -2 24 -19z m-220 -49 c0 -27 -8 -35 -26 -28 -9 3 -14 20 -14 46 0 39 0 40
20 22 11 -10 20 -28 20 -40z m407 24 c36 -13 44 -28 30 -53 -12 -23 -35 -231
-29 -259 3 -10 10 -16 16 -14 10 3 19 57 30 177 6 63 18 109 32 121 8 6 14 10
14 8 1 -2 2 -47 4 -99 4 -94 3 -96 -39 -187 -24 -51 -46 -93 -49 -93 -3 0 -26
11 -51 25 -71 37 -157 65 -201 65 -23 0 -43 2 -45 5 -5 4 4 110 13 170 4 24
16 45 27 45 4 0 8 -44 7 -97 -1 -81 2 -98 14 -98 12 0 16 19 18 100 2 79 6
103 19 113 29 21 33 14 28 -40 -19 -202 -19 -198 -3 -198 17 0 23 29 34 158 6
74 24 126 38 112 2 -3 -2 -58 -11 -123 -13 -90 -14 -120 -5 -129 6 -6 14 -9
17 -6 3 3 12 63 20 134 22 190 19 183 72 163z m-802 -38 c-4 -17 -1 -38 6 -49
12 -20 7 -52 -9 -52 -10 0 -24 109 -16 122 12 20 25 6 19 -21z m480 -2 c0 -8
-10 -15 -22 -17 -19 -3 -23 1 -23 22 0 22 3 24 23 17 12 -5 22 -15 22 -22z
m-305 -3 c0 -18 -7 -25 -31 -30 -22 -4 -30 -11 -27 -23 2 -13 11 -17 33 -15
28 4 29 4 12 -20 -10 -12 -22 -33 -28 -45 -6 -12 -33 -30 -60 -41 l-48 -21
-19 26 c-18 25 -18 25 11 54 35 35 37 35 37 5 0 -14 4 -27 9 -31 14 -8 26 16
22 47 -3 33 24 88 44 88 8 0 15 7 15 15 0 8 7 15 15 15 9 0 15 -9 15 -24z
m380 14 c0 -5 -7 -10 -15 -10 -8 0 -15 5 -15 10 0 6 7 10 15 10 8 0 15 -4 15
-10z m-765 -37 c26 -40 31 -58 16 -67 -26 -16 -61 30 -61 79 0 35 15 31 45
-12z m1163 -14 c-14 -39 -18 -37 -18 12 0 35 2 40 14 30 11 -10 12 -19 4 -42z
m-708 26 c0 -8 -7 -15 -15 -15 -16 0 -20 12 -8 23 11 12 23 8 23 -8z m68 -24
c3 -8 -1 -12 -9 -9 -7 2 -15 10 -17 17 -3 8 1 12 9 9 7 -2 15 -10 17 -17z
m-1653 -73 c30 -63 33 -137 8 -179 -10 -16 -20 -29 -24 -29 -6 0 -42 118 -54
178 -6 31 -5 33 14 27 15 -4 21 -2 21 9 0 8 -4 18 -10 21 -15 9 -12 25 5 25 9
0 26 -22 40 -52z m1828 21 c-19 -244 -15 -288 21 -238 13 19 20 21 63 14 70
-10 183 -62 219 -101 23 -25 40 -34 63 -34 33 0 129 -41 209 -89 26 -16 70
-36 99 -47 40 -13 50 -21 42 -30 -25 -30 29 -74 89 -74 l27 1 -24 19 c-13 11
-29 20 -37 20 -7 0 -18 9 -24 20 -13 25 -5 25 69 3 108 -31 171 -56 171 -66 0
-6 -16 -7 -41 -3 -22 4 -67 1 -99 -6 -47 -9 -85 -9 -182 1 -68 6 -145 14 -173
17 -27 2 -66 6 -85 9 -210 27 -348 36 -380 25 -10 -4 -19 11 -32 50 -33 98
-69 292 -58 310 8 13 4 180 -5 188 -11 11 -4 21 23 30 37 14 47 9 45 -19z
m-242 11 c5 0 9 -4 9 -9 0 -11 -69 -55 -76 -48 -10 9 31 67 44 62 8 -3 18 -5
23 -5z m135 -39 c-2 -27 -1 -76 4 -108 7 -48 5 -60 -8 -70 -37 -29 -42 -17
-37 77 2 50 1 90 -4 90 -24 0 -34 -35 -33 -112 1 -77 -8 -108 -30 -108 -6 0
-9 37 -8 93 3 117 3 117 -20 88 -16 -19 -20 -38 -20 -100 0 -42 4 -81 9 -86 6
-6 -21 -42 -75 -95 -90 -91 -102 -95 -132 -39 -15 29 -7 158 13 204 13 28 13
26 14 -43 1 -64 3 -73 18 -70 14 3 18 18 20 93 4 87 10 104 40 105 7 0 14 -26
19 -70 4 -46 11 -70 19 -70 19 0 25 40 16 98 -7 43 -5 54 9 67 9 8 20 15 24
15 4 0 31 15 59 34 62 40 89 55 100 56 4 0 5 -22 3 -49z m-754 9 c38 -11 98
-54 98 -71 0 -5 -36 9 -80 32 -99 51 -104 63 -18 39z m-113 -29 c-13 -17 -19
-36 -15 -48 8 -24 60 -52 137 -72 75 -19 78 -37 6 -33 -63 3 -110 17 -159 48
-55 35 -63 93 -15 109 12 5 31 11 42 15 11 5 21 8 23 9 1 1 -7 -12 -19 -28z
m331 9 c-11 -21 -35 -27 -45 -10 -3 6 4 14 17 19 35 14 40 13 28 -9z m68 -2
c-6 -18 -28 -21 -28 -4 0 9 7 16 16 16 9 0 14 -5 12 -12z m-250 -64 c102 -52
39 -59 -75 -8 -29 12 -53 27 -53 32 0 30 37 23 128 -24z m153 16 c18 0 19 -2
5 -27 -8 -16 -26 -41 -40 -58 -20 -25 -27 -28 -38 -17 -11 11 -10 16 6 28 14
10 20 25 19 50 -1 27 2 34 14 30 8 -3 23 -6 34 -6z m138 -32 c-21 -29 -23 -30
-36 -13 -11 16 -10 21 14 36 37 25 48 14 22 -23z m-69 -17 c0 -21 -26 -36 -36
-20 -6 11 13 39 27 39 5 0 9 -9 9 -19z m130 -35 c0 -8 -4 -17 -9 -21 -12 -7
-24 12 -16 25 9 15 25 12 25 -4z m-894 -22 c51 -24 66 -84 48 -196 -8 -50 -21
-48 -29 4 -7 38 -44 88 -66 88 -5 0 -17 -10 -29 -22 -11 -12 -21 -20 -23 -17
-16 22 -37 60 -37 68 0 24 66 84 98 90 2 1 19 -6 38 -15z m820 -15 c18 -20 18
-21 -5 -39 l-24 -17 21 -19 c27 -23 27 -30 1 -45 -33 -17 -42 1 -34 75 4 36
11 66 15 66 4 0 15 -9 26 -21z m-80 -72 c-6 -64 -5 -75 12 -90 17 -16 22 -16
55 -2 l37 15 18 -39 19 -39 -49 0 c-55 0 -80 -14 -60 -34 7 -7 30 -11 52 -10
22 2 44 0 49 -3 5 -2 -9 -51 -31 -107 -22 -57 -43 -121 -47 -142 -5 -31 -12
-41 -32 -46 -38 -11 -124 -74 -215 -159 -112 -105 -204 -184 -209 -179 -10 10
9 47 31 58 26 15 29 26 14 65 -8 20 -3 46 26 128 47 137 79 237 100 324 16 65
20 71 37 61 15 -7 23 -6 35 6 13 13 14 19 2 40 -17 33 2 165 27 184 35 26 45
16 38 -42 -6 -46 -4 -54 11 -60 13 -5 24 0 36 16 22 28 22 37 3 44 -24 10 -19
63 8 74 38 15 40 12 33 -63z m136 23 c-2 -16 -8 -30 -13 -30 -10 0 -12 53 -3
63 13 13 21 -3 16 -33z m-547 -10 c8 -16 15 -34 15 -39 0 -13 -82 -49 -118
-53 -23 -3 -27 0 -24 22 4 34 16 44 39 29 11 -7 28 -9 38 -5 14 5 16 13 11 41
-9 45 16 49 39 5z m944 -42 c7 -35 26 -118 42 -184 l30 -122 -51 -82 c-27 -46
-50 -89 -50 -97 0 -7 -11 -13 -24 -13 -30 0 -221 -57 -264 -78 -31 -16 -34
-16 -43 1 -6 9 -15 17 -22 17 -7 1 -27 14 -46 30 -30 25 -32 31 -21 46 8 9 13
30 12 47 -3 35 19 107 60 194 21 44 36 64 56 71 15 5 63 50 107 100 44 50 86
91 92 91 7 1 27 10 45 21 53 32 63 27 77 -42z m-1382 -82 c-1 -36 12 -56 47
-69 19 -7 -6 -24 -44 -31 -23 -4 -42 -1 -53 6 -20 15 -32 75 -23 112 5 21 11
24 40 23 33 -2 35 -3 33 -41z m87 6 c13 -45 -6 -65 -35 -36 -15 16 -18 28 -13
48 9 37 36 30 48 -12z m1896 -253 c69 -7 175 -12 235 -12 319 2 339 2 373 -13
19 -7 44 -14 56 -14 12 0 27 -5 33 -11 6 -6 30 -15 54 -20 76 -17 94 -49 29
-49 -33 0 -40 -3 -40 -20 0 -22 3 -23 71 -20 40 1 47 -2 57 -25 7 -14 12 -40
12 -58 0 -18 7 -51 15 -74 15 -42 27 -102 46 -222 10 -62 9 -64 -17 -92 -29
-30 -49 -29 -39 2 7 20 1 56 -41 254 -15 66 -28 130 -30 142 -2 12 -12 29 -21
38 -15 16 -17 16 -32 -4 -16 -20 -17 -20 -126 -4 -96 14 -121 15 -188 3 -48
-8 -77 -18 -77 -25 0 -21 25 -25 110 -18 46 3 125 0 184 -7 l104 -13 31 -111
c17 -62 34 -127 37 -146 7 -32 6 -33 -17 -25 -13 4 -57 14 -97 23 -67 15 -79
15 -174 -1 -56 -9 -112 -24 -125 -32 -12 -8 -24 -15 -26 -15 -2 0 -7 46 -11
103 -3 56 -11 129 -17 162 -6 33 -13 89 -16 124 l-5 63 -31 -6 c-18 -4 -48
-10 -67 -13 -44 -7 -62 -21 -55 -43 5 -16 1 -17 -47 -5 -29 6 -64 11 -78 9
-14 -1 -83 -7 -155 -12 -71 -6 -152 -18 -180 -26 -62 -19 -65 -20 -65 -1 0 8
-6 15 -13 15 -7 0 -26 14 -42 30 -25 26 -36 30 -80 30 -29 0 -66 -5 -84 -11
-18 -6 -34 -9 -37 -6 -3 3 18 44 47 92 l52 88 181 -6 c100 -4 237 -12 306 -18z
m320 -192 c0 -18 4 -58 9 -88 12 -66 18 -124 27 -253 7 -107 3 -117 -43 -108
-23 4 -25 8 -20 39 3 19 -3 93 -14 166 -33 219 -34 237 -16 237 9 0 21 9 27
20 16 30 30 24 30 -13z m-734 -2 c15 -24 15 -27 0 -44 -21 -23 -20 -28 8 -66
27 -36 43 -146 48 -329 2 -95 1 -99 -23 -117 -14 -10 -48 -23 -75 -30 -27 -6
-83 -24 -124 -39 -41 -15 -113 -38 -160 -50 -47 -12 -120 -38 -163 -58 l-77
-35 -29 28 c-16 15 -40 50 -52 79 -40 93 -29 384 18 466 17 29 109 91 168 113
80 30 207 67 233 68 15 0 59 9 97 19 97 25 112 24 131 -5z m-640 -35 c32 -22
64 -40 71 -40 22 0 6 -18 -33 -36 -20 -10 -46 -34 -59 -55 -14 -20 -29 -40
-35 -44 -7 -4 -9 -21 -5 -44 5 -33 3 -39 -20 -49 -35 -16 -55 -15 -55 3 0 20
-13 19 -58 -4 -61 -32 -120 -94 -127 -135 -6 -29 -14 -40 -39 -50 -18 -7 -45
-29 -60 -47 -25 -30 -46 -39 -38 -16 4 14 -29 7 -34 -8 -4 -8 -17 -15 -30 -15
-28 0 -54 -35 -54 -72 0 -20 -8 -31 -29 -42 l-29 -15 -5 37 c-5 27 -2 39 8 45
12 6 13 13 4 28 -9 17 -7 25 9 42 10 12 29 40 43 62 59 100 140 201 178 225
49 29 73 50 161 135 54 52 162 135 176 135 2 0 29 -18 60 -40z m1258 -10 c13
-44 48 -272 43 -277 -4 -3 -35 2 -71 11 -90 22 -140 20 -221 -10 -96 -35 -136
-47 -143 -40 -3 4 -7 34 -10 69 -2 34 -6 69 -8 77 -11 33 -25 -17 -23 -85 2
-89 1 -91 -11 -79 -5 5 -11 67 -12 137 -2 108 -5 127 -18 125 -13 -3 -15 -26
-15 -143 0 -118 -2 -140 -15 -140 -11 0 -15 14 -16 57 -1 31 -5 95 -9 142 -6
78 -5 87 12 93 10 4 26 17 35 29 21 27 55 34 188 44 168 12 289 8 294 -10z
m811 -325 c9 -33 24 -75 32 -93 9 -18 13 -35 10 -38 -7 -7 -87 27 -87 37 0 4
5 11 11 15 8 4 9 31 4 83 -8 89 4 87 30 -4z m-2205 41 c0 -6 -79 -56 -90 -56
-21 0 -9 21 23 40 28 17 67 27 67 16z m1343 -15 c54 -13 100 -39 91 -52 -3 -5
-10 -6 -17 -2 -19 11 -278 3 -337 -11 -82 -20 -140 -27 -140 -17 0 5 17 12 38
16 37 6 66 16 192 61 66 24 89 24 173 5z m-1276 -155 l0 -164 -45 -32 c-24
-17 -50 -29 -57 -26 -14 5 -31 94 -27 138 2 14 -2 29 -7 33 -6 3 -11 17 -11
30 0 33 61 147 83 153 9 2 17 8 17 12 0 7 15 14 41 19 4 0 6 -73 6 -163z
m-173 71 c3 -13 2 -37 -3 -53 -9 -31 -7 -67 10 -184 9 -62 17 -82 46 -117 l34
-43 -27 -25 c-15 -14 -32 -25 -38 -25 -26 0 -56 34 -75 85 -27 72 -30 229 -5
239 12 5 14 14 9 45 -4 27 -2 49 10 70 19 37 31 39 39 8z m-106 -209 c-1 -62
2 -128 6 -145 7 -30 6 -33 -17 -33 -13 0 -40 -11 -60 -24 -19 -13 -37 -23 -39
-21 -10 10 0 213 12 235 14 29 80 100 92 100 4 0 7 -51 6 -112z m2275 14 c41
-27 96 -55 123 -62 27 -7 52 -16 56 -19 4 -3 12 -58 19 -121 12 -118 20 -143
40 -123 10 10 -1 151 -17 211 -5 16 -2 22 10 22 26 0 36 -43 36 -152 l0 -101
-82 7 c-166 13 -247 29 -273 54 -53 51 -68 211 -27 290 12 23 27 42 32 42 5 0
43 -22 83 -48z m-2435 -113 c1 -155 18 -279 40 -296 14 -11 13 -15 -3 -33 -10
-11 -24 -20 -31 -20 -7 0 -17 -6 -21 -12 -19 -30 -93 -52 -93 -29 0 14 45 61
59 61 6 0 11 -4 11 -10 0 -16 30 -11 37 6 3 9 1 25 -6 36 -37 59 -42 428 -6
428 8 0 12 -36 13 -131z m-164 75 c3 -9 6 -26 6 -38 0 -12 5 -27 11 -33 11
-11 3 -79 -11 -88 -4 -2 -14 3 -23 13 -13 14 -15 32 -10 90 6 70 15 88 27 56z
m629 -40 c7 -7 -60 -64 -74 -64 -17 0 -9 15 23 42 35 29 41 32 51 22z m-551
-261 c-37 -28 -44 -17 -39 65 5 81 18 149 33 173 6 9 11 -27 16 -106 5 -104 4
-121 -10 -132z m294 83 l38 -33 -64 -48 c-94 -68 -100 -71 -100 -40 0 20 11
30 61 56 56 28 60 32 46 46 -14 14 -21 13 -71 -15 -30 -18 -58 -27 -61 -22
-10 15 66 77 111 90 1 0 19 -15 40 -34z m2554 -37 c0 -9 -7 -19 -15 -23 -12
-4 -15 4 -15 42 1 46 1 46 15 22 8 -14 14 -32 15 -41z m-2832 -86 c-25 -51
-33 -63 -45 -63 -11 0 -11 4 -2 23 6 12 16 28 22 35 10 13 31 17 25 5z m6
-225 c-1 -29 -5 -66 -8 -83 -22 -95 -30 -126 -49 -180 -11 -33 -28 -72 -39
-87 -10 -16 -26 -40 -37 -56 -10 -15 -21 -38 -25 -50 -12 -37 -31 -20 -28 24
4 46 47 140 67 148 8 3 15 16 15 30 0 13 13 61 29 105 16 45 32 101 36 124 10
62 15 77 28 77 8 0 12 -18 11 -52z m-74 -33 c0 -19 -4 -35 -10 -35 -11 0 -13
30 -4 54 10 25 14 19 14 -19z"/>
<path d="M5127 10093 c-19 -19 -5 -33 33 -33 45 0 53 16 14 30 -30 12 -38 12
-47 3z"/>
<path d="M5136 9981 c-4 -6 -1 -13 6 -15 7 -2 28 -9 47 -15 42 -14 41 -14 41
3 0 19 -7 23 -51 31 -23 4 -39 3 -43 -4z"/>
<path d="M4260 8653 c-18 -6 -140 -124 -140 -135 0 -19 27 -5 74 40 28 26 62
55 76 64 26 17 19 40 -10 31z"/>
<path d="M4356 8455 c-20 -14 -42 -25 -49 -25 -7 0 -39 -13 -73 -29 -64 -30
-149 -115 -149 -149 0 -13 -7 -16 -33 -14 -22 3 -32 -1 -32 -11 0 -17 91 -41
135 -35 35 4 40 22 7 26 -13 2 -21 9 -19 15 2 7 34 14 79 17 75 5 96 14 136
60 42 49 68 149 43 164 -5 3 -25 -5 -45 -19z m14 -45 c0 -13 -39 -90 -45 -90
-12 0 -3 70 11 84 18 18 34 21 34 6z m-200 -120 c0 -5 -4 -10 -10 -10 -5 0
-10 5 -10 10 0 6 5 10 10 10 6 0 10 -4 10 -10z"/>
<path d="M4339 7978 c-34 -68 -63 -84 -158 -92 -70 -5 -104 -21 -99 -44 3 -12
13 -17 33 -15 104 5 177 4 188 -5 7 -6 28 -9 47 -8 34 2 35 3 41 52 4 28 12
68 19 88 15 46 8 66 -24 66 -20 0 -30 -10 -47 -42z"/>
<path d="M3875 7768 c-6 -13 -20 -24 -32 -26 -38 -6 -18 -72 21 -72 9 0 19 -7
22 -15 10 -26 40 -16 72 24 26 33 41 42 86 51 48 10 139 13 230 7 16 -1 31 3
33 9 8 23 -59 38 -166 38 -119 -1 -163 -16 -214 -73 -38 -43 -51 -39 -27 10
22 42 21 69 -2 69 -7 0 -18 -10 -23 -22z"/>
<path d="M6019 6646 c-83 -34 -122 -61 -178 -122 -63 -68 -107 -154 -138 -269
-50 -179 -22 -279 118 -428 150 -160 319 -204 485 -126 174 82 276 252 276
459 0 52 -5 115 -11 140 -23 91 -35 126 -53 152 -10 14 -18 31 -18 37 0 6 -28
39 -62 74 -83 84 -141 107 -271 107 -73 0 -104 -5 -148 -24z m154 -28 c-11
-13 -23 -32 -27 -42 -6 -19 -7 -19 -22 2 -17 24 -55 29 -98 12 -33 -12 -66
-66 -66 -108 0 -29 -2 -32 -19 -22 -29 15 -68 12 -96 -6 -45 -29 -26 2 38 63
86 83 165 118 276 122 l34 1 -20 -22z m93 -13 c25 -38 30 -147 9 -201 -17 -45
-17 -46 4 -72 62 -78 63 -123 3 -172 -85 -70 -212 -43 -212 45 0 69 50 129
119 141 49 9 55 13 38 32 -20 22 -47 117 -47 162 0 41 29 87 55 87 9 0 23 -10
31 -22z m99 -20 c59 -37 69 -55 32 -55 -13 0 -32 -9 -42 -20 -25 -28 -36 -25
-32 8 3 15 -2 42 -9 61 -22 53 -21 53 51 6z m-255 -45 c15 -16 33 -51 39 -77
7 -26 17 -54 23 -61 13 -15 3 -27 -28 -36 -17 -5 -22 -3 -20 11 1 14 -6 17
-34 15 -42 -2 -65 14 -84 59 -12 29 -12 39 -1 66 25 58 64 67 105 23z m350
-72 c19 -31 19 -32 -2 -60 -20 -29 -103 -87 -123 -88 -6 0 -16 9 -23 20 -11
17 -10 28 6 63 43 96 105 125 142 65z m-504 -56 c53 -28 98 -101 87 -141 -6
-22 -39 -29 -45 -10 -2 6 -26 15 -53 20 -69 12 -135 47 -135 71 0 50 54 91
100 78 15 -4 36 -12 46 -18z m570 -59 c-2 -2 -15 2 -30 8 -25 12 -25 13 -10
31 16 17 17 17 31 -9 7 -14 12 -28 9 -30z m-431 -13 c-20 -22 -31 -20 -22 5 4
8 14 15 23 15 16 0 16 -2 -1 -20z m-297 -40 c17 -16 38 -30 46 -30 26 0 19
-14 -34 -67 -47 -47 -59 -75 -42 -98 16 -23 89 -58 125 -59 29 0 36 -4 31 -16
-54 -131 -55 -168 -1 -200 17 -11 36 -20 40 -20 5 0 25 16 44 35 19 19 36 35
38 35 1 0 6 -15 9 -33 6 -34 36 -69 69 -81 31 -10 82 21 108 67 21 36 24 39
27 20 5 -32 50 -65 85 -61 46 5 71 46 69 112 l-1 54 29 -11 c26 -10 33 -8 55
13 36 34 31 12 -14 -57 -83 -128 -190 -196 -321 -201 -90 -4 -141 14 -215 78
-74 62 -184 189 -206 235 -23 49 -25 152 -5 216 8 24 17 56 20 72 4 15 8 27
10 27 3 0 18 -13 34 -30z m706 24 c20 -8 22 -77 2 -93 -20 -17 -111 -17 -130
-1 -55 45 52 123 128 94z m-516 -104 c23 -10 42 -26 42 -34 0 -8 3 -21 6 -29
8 -23 -73 -77 -115 -77 -44 0 -121 34 -121 53 0 23 96 107 122 107 13 0 42 -9
66 -20z m565 -42 c-2 -29 -6 -78 -10 -108 l-5 -55 -18 53 c-10 30 -33 69 -51
88 l-33 34 31 -6 c25 -5 36 -1 55 19 13 14 26 25 29 26 3 1 4 -23 2 -51z
m-131 -28 c75 -65 98 -143 49 -169 -29 -16 -55 11 -87 86 -15 37 -34 73 -42
80 -12 10 -13 15 -2 28 19 23 33 19 82 -25z m-74 -103 c37 -106 42 -173 13
-208 -17 -22 -20 -22 -43 -7 -32 21 -48 78 -48 172 0 68 -2 77 -17 74 -15 -3
-18 -15 -19 -73 -1 -39 -6 -88 -13 -111 -13 -48 -52 -94 -80 -94 -52 0 -69
112 -29 195 17 35 19 48 10 57 -16 16 -21 9 -67 -77 -20 -38 -49 -83 -65 -99
-28 -28 -29 -29 -54 -12 -14 9 -26 22 -26 29 1 28 76 163 97 173 13 6 32 19
43 29 17 15 24 16 50 5 45 -18 144 -9 178 18 15 11 29 21 32 21 3 1 20 -41 38
-92z"/>
<path d="M6173 6310 c-85 -51 -68 -159 24 -160 35 0 91 42 94 70 4 39 -3 63
-26 85 -29 30 -50 31 -92 5z m77 -41 c28 -50 -22 -105 -74 -81 -35 16 -35 54
0 81 34 27 60 27 74 0z"/>
<path d="M3030 6029 c0 -24 23 -21 28 4 2 10 -3 17 -12 17 -10 0 -16 -9 -16
-21z"/>
<path d="M4889 4868 c-28 -31 -49 -82 -49 -120 0 -24 -13 -23 -35 2 -11 12
-31 20 -50 20 -26 0 -37 -7 -59 -39 -32 -45 -43 -100 -26 -130 10 -20 7 -26
-29 -62 -23 -21 -41 -45 -41 -51 1 -31 71 -88 107 -88 28 0 28 1 -2 -56 -26
-49 -26 -74 3 -106 8 -10 26 -18 39 -18 33 0 97 34 121 65 24 30 32 32 32 5 0
-12 11 -32 25 -45 l24 -25 53 20 c66 26 98 60 98 105 0 30 6 39 41 60 54 35
76 83 54 124 -8 16 -27 38 -41 49 -27 19 -27 19 -12 66 29 87 -7 140 -87 129
l-43 -5 -7 40 c-8 50 -39 92 -66 92 -11 0 -33 -15 -50 -32z m63 -30 c26 -40
31 -110 12 -159 -20 -50 -35 -64 -47 -44 -4 8 -14 15 -22 15 -32 0 -25 111 11
181 18 35 27 36 46 7z m-140 -166 c17 -30 40 -57 50 -60 22 -5 22 -11 -2 -40
-18 -22 -20 -22 -76 -7 -32 8 -61 21 -66 27 -26 41 -21 95 13 127 29 27 45 18
81 -47z m286 56 c32 -32 4 -103 -53 -133 l-40 -21 -11 26 c-8 20 -7 34 9 70
11 25 24 51 29 58 13 15 50 16 66 0z m-136 -150 c3 -7 4 -33 3 -58 -2 -38 -6
-46 -25 -48 -28 -5 -60 24 -60 54 0 23 42 64 65 64 7 0 15 -6 17 -12z m182
-49 c26 -31 25 -58 -2 -82 -33 -28 -58 -29 -90 -2 -16 14 -35 25 -42 25 -8 0
-10 8 -6 23 3 12 6 30 6 40 0 11 8 17 23 17 12 0 28 4 36 9 20 13 49 2 75 -30z
m-395 -5 c25 -8 56 -12 72 -9 22 5 29 3 29 -9 0 -9 -6 -16 -14 -16 -8 0 -29
-12 -47 -27 -39 -34 -84 -38 -121 -11 -35 24 -35 41 -2 67 32 25 28 25 83 5z
m121 -63 c0 -18 67 -33 90 -21 18 10 26 6 60 -32 58 -62 52 -103 -20 -132 -45
-18 -60 -15 -60 13 0 9 -4 21 -9 27 -5 5 -11 27 -13 49 -4 54 -33 61 -42 11
-13 -67 -96 -137 -137 -115 -25 13 -24 36 4 82 46 76 127 151 127 118z"/>
<path d="M3612 4784 c1 -9 9 -19 16 -22 9 -3 13 2 10 14 -1 9 -9 19 -16 22 -9
3 -13 -2 -10 -14z"/>
<path d="M3450 4595 c0 -8 7 -15 15 -15 8 0 15 7 15 15 0 8 -7 15 -15 15 -8 0
-15 -7 -15 -15z"/>
<path d="M3681 4272 c-46 -5 -75 -25 -110 -80 -43 -68 -73 -182 -75 -279 -1
-74 1 -84 24 -108 64 -69 165 -100 275 -84 48 6 64 13 80 35 11 14 43 49 71
76 28 27 60 67 70 89 17 39 17 43 0 107 -31 119 -95 205 -166 227 -38 11 -131
20 -169 17z m154 -61 c43 -15 56 -26 92 -79 50 -75 72 -156 54 -201 -7 -16
-45 -61 -85 -99 -54 -53 -82 -72 -110 -77 -85 -16 -192 16 -235 71 -62 79 15
363 109 397 31 11 127 5 175 -12z"/>
<path d="M3695 4193 c-26 -7 -76 -49 -97 -82 -22 -35 -47 -154 -43 -206 4 -46
48 -91 113 -117 35 -14 45 -14 104 1 35 9 77 24 91 34 60 39 126 201 74 181
-8 -2 -18 18 -29 55 -21 71 -48 103 -106 125 -42 16 -69 18 -107 9z m85 -54
c0 -4 -9 -13 -20 -19 -11 -6 -23 -22 -26 -35 -7 -29 -16 -31 -34 -10 -18 21
-46 19 -64 -6 -8 -12 -20 -19 -27 -17 -23 8 62 89 101 97 38 8 70 4 70 -10z
m48 -62 c2 -10 -4 -30 -13 -44 l-17 -25 -21 20 c-19 20 -19 22 -3 47 19 29 49
30 54 2z m-144 -45 c15 -17 15 -22 1 -48 -8 -16 -12 -37 -9 -48 11 -33 -33
-48 -60 -20 -23 22 -20 54 9 97 29 42 35 44 59 19z m196 3 c0 -8 -4 -15 -10
-15 -5 0 -10 7 -10 15 0 8 5 15 10 15 6 0 10 -7 10 -15z m-22 -57 c29 -29 -7
-86 -47 -73 -25 8 -26 17 -6 55 16 32 33 38 53 18z m-98 -15 c-1 -14 -27 -43
-39 -43 -15 0 -14 23 1 38 13 13 38 16 38 5z m10 -88 c15 -18 -1 -26 -51 -29
-44 -2 -48 21 -7 33 45 13 44 13 58 -4z m91 -16 c-13 -10 -30 -19 -39 -19 -18
0 -12 7 25 30 36 22 45 14 14 -11z m-221 1 c0 -5 -4 -10 -9 -10 -6 0 -13 5
-16 10 -3 6 1 10 9 10 9 0 16 -4 16 -10z"/>
<path d="M4487 3653 c-4 -3 -7 -15 -7 -25 0 -28 34 -19 38 10 3 21 -16 31 -31
15z"/>
<path d="M3925 3528 c-11 -30 -25 -148 -25 -205 0 -48 3 -63 14 -63 11 0 16
24 21 98 4 53 11 112 15 131 5 19 7 38 4 43 -8 12 -24 10 -29 -4z"/>
<path d="M3067 2902 c-20 -22 -22 -42 -4 -42 16 0 47 32 47 48 0 18 -25 14
-43 -6z"/>
<path d="M3413 2521 c-103 -48 -121 -57 -163 -86 -25 -17 -53 -34 -62 -38 -10
-3 -20 -18 -24 -32 -3 -14 -10 -25 -14 -25 -15 0 -41 -84 -44 -142 -5 -100 38
-269 68 -268 6 0 20 7 30 15 11 8 27 15 37 15 9 0 47 14 85 31 95 43 228 88
294 99 69 12 79 25 69 87 -13 81 -13 83 25 83 39 0 51 12 38 37 -6 10 -6 27 0
43 11 34 -24 110 -52 110 -10 0 -20 9 -23 20 -3 11 -13 20 -24 20 -10 0 -34 8
-53 19 -56 29 -137 35 -187 12z m140 -38 c4 -4 -6 -12 -23 -19 -16 -7 -30 -20
-30 -29 0 -20 -4 -19 -51 12 -29 19 -36 29 -27 34 16 10 122 12 131 2z m75
-40 c-2 -10 -10 -18 -18 -18 -8 0 -16 8 -18 18 -2 12 3 17 18 17 15 0 20 -5
18 -17z m-218 -43 c0 -33 23 -42 34 -13 5 11 10 13 17 6 8 -8 2 -23 -17 -53
l-28 -42 -14 27 c-10 21 -19 26 -38 22 -13 -2 -32 1 -41 8 -14 11 -16 18 -8
41 22 61 95 63 95 4z m149 13 c0 -10 -13 -28 -30 -41 -28 -22 -29 -23 -29 -4
0 11 7 22 15 26 8 3 15 12 15 21 0 8 7 15 15 15 8 0 15 -8 14 -17z m142 -3 c5
0 9 -20 9 -43 0 -51 -19 -73 -70 -82 -19 -3 -49 -13 -67 -22 -40 -19 -50 -12
-35 22 6 14 9 31 6 40 -7 17 113 98 134 90 7 -3 18 -5 23 -5z m-428 -34 c-6
-27 36 -66 71 -66 24 0 46 -17 46 -36 0 -9 -11 -11 -34 -7 -19 3 -36 1 -40 -6
-14 -21 -26 -11 -26 22 0 43 -35 66 -70 47 -36 -19 -36 -2 0 35 40 41 59 45
53 11z m221 -73 c-4 -21 -7 -50 -6 -66 1 -29 -38 -65 -58 -52 -15 9 -12 41 5
55 8 7 15 21 15 32 0 22 28 68 42 68 7 0 7 -14 2 -37z m-234 -45 c0 -38 -14
-52 -39 -39 -25 14 -26 24 -5 45 23 23 44 20 44 -6z m-109 -35 c-8 -15 -10
-15 -11 -2 0 17 10 32 18 25 2 -3 -1 -13 -7 -23z m491 -3 c1 -16 2 -38 2 -47
1 -13 -5 -17 -21 -15 -12 2 -31 -2 -42 -7 -31 -17 -34 4 -7 48 23 35 37 48 59
50 4 1 8 -12 9 -29z m-262 -30 c8 -20 24 -33 48 -41 l37 -12 -52 -17 c-28 -9
-63 -24 -77 -33 -39 -26 -54 -20 -23 8 33 31 34 43 5 47 -35 5 -36 50 -2 77
31 24 45 18 64 -29z m-150 -20 c0 -15 -30 -32 -45 -26 -15 5 -21 37 -9 49 7 7
54 -13 54 -23z m36 -37 c19 -26 17 -31 -17 -48 -40 -21 -47 -13 -23 30 21 40
22 41 40 18z m234 -33 c0 -5 -8 -10 -17 -10 -15 0 -16 2 -3 10 19 12 20 12 20
0z m-55 -20 c-3 -5 -13 -10 -20 -10 -8 0 -40 -12 -71 -26 -31 -14 -58 -23 -61
-20 -7 7 116 64 140 65 10 1 15 -3 12 -9z m-232 -57 c-33 -17 -51 -13 -38 6 3
6 21 11 38 10 l32 0 -32 -16z"/>
<path d="M2770 2345 c0 -8 9 -15 20 -15 11 0 20 7 20 15 0 8 -9 15 -20 15 -11
0 -20 -7 -20 -15z"/>
<path d="M2570 2100 c0 -5 5 -10 10 -10 6 0 10 5 10 10 0 6 -4 10 -10 10 -5 0
-10 -4 -10 -10z"/>
<path d="M4054 2339 c-10 -17 13 -36 27 -22 12 12 4 33 -11 33 -5 0 -12 -5
-16 -11z"/>
<path d="M4002 2327 c-14 -17 -6 -47 13 -47 21 0 24 13 11 38 -11 20 -14 21
-24 9z"/>
<path d="M5192 9748 c-28 -14 -23 -34 8 -30 28 3 52 21 44 33 -7 12 -23 10
-52 -3z"/>
<path d="M5235 9666 c-56 -15 -69 -25 -55 -41 9 -10 19 -10 57 5 73 28 71 56
-2 36z"/>
<path d="M5355 9622 c-6 -5 -37 -15 -70 -22 -75 -17 -95 -26 -95 -46 0 -18 14
-17 115 11 61 17 99 41 89 56 -7 11 -27 11 -39 1z"/>
<path d="M4755 9600 c-8 -14 13 -40 32 -40 20 0 12 44 -9 48 -9 2 -19 -2 -23
-8z"/>
<path d="M5258 9339 c-10 -5 -18 -17 -18 -26 0 -12 6 -14 28 -8 15 4 48 7 75
6 34 0 47 3 47 13 0 25 -97 36 -132 15z"/>
<path d="M7615 8348 c-156 -95 -420 -237 -530 -285 -61 -26 -141 -64 -180 -86
-38 -21 -87 -45 -107 -54 -41 -17 -47 -33 -22 -57 16 -17 37 -11 66 17 40 39
155 102 278 153 36 14 88 39 115 54 137 75 218 122 300 170 50 29 102 59 118
67 15 8 27 23 27 34 0 25 -5 24 -65 -13z"/>
<path d="M6930 7405 c-7 -9 -10 -19 -6 -22 8 -9 38 9 44 25 5 17 -23 15 -38
-3z"/>
<path d="M4630 2135 c-19 -23 1 -40 29 -26 25 14 27 27 5 35 -21 8 -20 8 -34
-9z"/>
<path d="M3989 2095 c-3 -2 -23 -5 -44 -6 -60 -2 -75 -8 -75 -31 0 -18 5 -19
43 -15 49 6 116 22 125 32 4 3 0 10 -8 15 -16 10 -34 13 -41 5z"/>
<path d="M4020 2015 c-47 -24 -91 -44 -98 -44 -7 -1 -55 -22 -105 -47 -108
-54 -145 -69 -247 -94 -66 -17 -77 -18 -97 -5 -31 21 -40 19 -60 -11 -16 -26
-16 -27 6 -45 13 -11 34 -19 47 -19 37 0 204 64 366 141 81 38 154 69 162 69
8 0 18 5 21 10 3 6 17 10 31 10 28 0 94 48 94 68 0 21 -32 12 -120 -33z"/>
<path d="M4530 2011 c0 -18 38 -51 60 -51 18 0 11 31 -12 51 -29 24 -48 24
-48 0z"/>
<path d="M4325 1980 c-9 -14 10 -35 61 -71 42 -29 79 -38 72 -19 -4 12 -110
100 -120 100 -4 0 -10 -5 -13 -10z"/>
<path d="M4430 1965 c0 -18 56 -49 76 -41 24 9 15 25 -22 41 -45 19 -54 19
-54 0z"/>
<path d="M4248 1944 c-4 -3 -4 -12 -1 -19 4 -11 -1 -12 -25 -3 -39 15 -82 2
-232 -73 -63 -31 -132 -62 -152 -68 -60 -20 -280 -135 -292 -153 -17 -27 2
-34 37 -14 42 25 212 109 256 127 19 8 80 35 134 62 92 44 102 47 132 35 38
-13 65 0 65 33 0 26 10 29 52 14 66 -22 118 -27 118 -11 0 8 -10 16 -22 18
-14 2 -24 12 -28 28 -6 24 -29 38 -42 24z m-108 -75 c0 -5 -4 -9 -10 -9 -5 0
-10 7 -10 16 0 8 5 12 10 9 6 -3 10 -10 10 -16z"/>
<path d="M3103 1661 c-12 -48 -236 -153 -358 -169 -41 -6 -50 -11 -50 -27 0
-11 8 -21 19 -23 17 -4 135 35 178 59 10 5 23 9 30 9 6 0 44 16 84 36 71 35
142 103 129 124 -10 16 -27 11 -32 -9z"/>
<path d="M4510 1650 c-10 -18 -8 -19 37 -16 34 3 49 9 51 20 5 26 -74 22 -88
-4z"/>
<path d="M3975 1610 c-16 -4 -75 -20 -130 -35 -232 -63 -367 -87 -379 -66 -11
16 -52 13 -67 -5 -20 -24 21 -54 75 -54 55 0 475 109 515 135 8 4 14 -1 18
-14 3 -12 9 -21 15 -21 20 0 58 33 58 51 0 15 -7 19 -37 18 -21 -1 -51 -4 -68
-9z"/>
<path d="M4458 1393 c-108 -73 -151 -110 -143 -123 10 -17 23 -12 79 33 30 23
80 59 110 80 31 21 56 44 56 52 0 23 -11 19 -102 -42z"/>
<path d="M4335 1418 c-22 -11 -65 -40 -96 -64 -49 -38 -59 -41 -90 -35 l-34 8
68 31 c37 17 67 36 67 42 0 21 -46 8 -127 -36 -58 -31 -98 -46 -133 -49 -28
-3 -50 -1 -50 3 0 4 24 18 53 30 87 38 102 47 105 65 2 9 -1 17 -7 17 -6 0
-66 -29 -134 -63 -103 -54 -134 -65 -193 -71 -38 -4 -94 -11 -124 -16 -30 -5
-99 -9 -152 -9 -95 -1 -123 -10 -99 -34 27 -27 156 -19 363 23 25 5 40 3 50
-6 11 -12 20 -11 53 5 22 11 64 21 93 24 49 4 52 3 52 -19 0 -31 15 -30 36 1
14 21 24 25 65 25 35 0 51 -4 55 -15 9 -24 22 -18 83 33 31 27 82 63 114 81
31 18 55 37 52 42 -9 13 -26 10 -70 -13z"/>
<path d="M4780 1415 c-28 -34 -83 -59 -126 -56 -49 2 -144 -40 -144 -64 0 -21
11 -19 70 12 46 24 55 25 83 15 28 -10 35 -9 67 12 65 45 93 72 86 84 -10 16
-21 15 -36 -3z"/>
<path d="M3096 1265 c-33 -30 -52 -33 -261 -39 -183 -5 -225 -13 -225 -46 0
-23 3 -24 50 -10 19 5 115 15 213 20 98 6 188 15 200 19 27 11 77 56 77 71 0
18 -26 11 -54 -15z"/>
<path d="M3012 1107 c-44 -14 -88 -55 -73 -70 8 -8 17 -5 33 10 13 12 35 25
51 28 15 4 30 12 33 17 11 18 -10 25 -44 15z"/>
<path d="M3263 743 c-59 -76 -105 -162 -173 -323 -15 -36 -64 -143 -109 -238
-45 -95 -81 -175 -81 -178 0 -2 8 -4 19 -4 12 0 23 12 32 32 7 18 47 105 90
194 42 89 80 172 84 185 11 35 103 218 127 251 13 20 26 27 38 23 14 -4 19 2
24 35 11 70 -8 79 -51 23z"/>
<path d="M3610 745 c0 -38 134 -271 308 -533 128 -193 149 -219 171 -210 5 1
-58 103 -139 226 -143 214 -259 408 -296 492 -18 40 -44 54 -44 25z"/>
<path d="M3800 649 c0 -12 166 -336 267 -519 41 -75 75 -126 86 -128 26 -5 22
8 -37 110 -59 103 -197 363 -252 476 -20 39 -42 72 -50 72 -8 0 -14 -5 -14
-11z"/>
</g>
</svg>
